<svg width="241" height="60" viewBox="0 0 241 60" fill="none" xmlns="http://www.w3.org/2000/svg">
<path d="M57.5963 33.3558C59.7556 33.3558 61.5061 31.6295 61.5061 29.4999C61.5061 27.3704 59.7556 25.6441 57.5963 25.6441C55.4369 25.6441 53.6865 27.3704 53.6865 29.4999C53.6865 31.6295 55.4369 33.3558 57.5963 33.3558Z" fill="white"/>
<path d="M57.5963 13.3065C49.9457 13.3065 43.517 18.4676 41.6932 25.4516C41.6775 25.513 41.666 25.5775 41.666 25.6441C41.666 26.0699 42.0161 26.4151 42.4479 26.4151H49.0686C49.3841 26.4151 49.6537 26.2304 49.7772 25.9646C49.7772 25.9646 49.7871 25.9465 49.7902 25.9377C51.1551 23.0331 54.136 21.0177 57.5952 21.0177C62.3455 21.0177 66.1967 24.8147 66.1967 29.4999C66.1967 34.1851 62.3466 37.9821 57.5963 37.9821C54.137 37.9821 51.1567 35.9667 49.7913 33.0626C49.7876 33.0533 49.7777 33.0353 49.7777 33.0353C49.7158 32.901 49.6162 32.7872 49.4905 32.7073C49.3649 32.6274 49.2186 32.5849 49.0691 32.5847H42.4484C42.0161 32.5847 41.666 32.93 41.666 33.3558C41.666 33.4223 41.677 33.4869 41.6932 33.5483C43.517 40.5322 49.9457 45.6933 57.5963 45.6933C66.6651 45.6933 74.0164 38.443 74.0164 29.4999C74.0164 20.5568 66.6651 13.3065 57.5963 13.3065ZM100.532 33.2959H98.298C98.2242 33.296 98.1514 33.3128 98.0852 33.3451C98.0191 33.3775 97.9613 33.4244 97.9165 33.4822C96.6192 35.3732 94.4253 36.617 91.9358 36.617C87.9496 36.617 84.7186 33.4301 84.7186 29.4994C84.7186 25.5682 87.9496 22.3812 91.9358 22.3812C94.4259 22.3812 96.6192 23.6261 97.917 25.5166C97.9617 25.5745 98.0193 25.6214 98.0854 25.6537C98.1515 25.686 98.2242 25.7029 98.298 25.7029H100.532C100.595 25.703 100.657 25.6908 100.716 25.667C100.774 25.6432 100.827 25.6082 100.872 25.5642C100.917 25.5202 100.952 25.4679 100.977 25.4103C101.001 25.3527 101.014 25.291 101.014 25.2286C101.013 25.1544 100.995 25.0814 100.961 25.0155C99.2965 21.7645 95.8813 19.5339 91.9364 19.5339C86.3561 19.5339 81.8313 23.9956 81.8313 29.4994C81.8313 35.0027 86.3561 39.4649 91.9364 39.4649C95.8813 39.4649 99.2965 37.2343 100.96 33.9833C100.995 33.9174 101.013 33.8444 101.014 33.7702C101.014 33.7078 101.001 33.6461 100.977 33.5885C100.952 33.5309 100.917 33.4786 100.872 33.4346C100.827 33.3906 100.774 33.3556 100.716 33.3318C100.657 33.308 100.595 33.2958 100.532 33.2959ZM107.268 16.2132C107.268 16.7168 107.066 17.1996 106.705 17.5557C106.344 17.9117 105.854 18.1117 105.343 18.1117C104.833 18.1117 104.343 17.9117 103.982 17.5557C103.621 17.1996 103.418 16.7168 103.418 16.2132C103.418 15.7097 103.621 15.2268 103.982 14.8708C104.343 14.5148 104.833 14.3147 105.343 14.3147C105.854 14.3147 106.344 14.5148 106.705 14.8708C107.066 15.2268 107.268 15.7097 107.268 16.2132ZM106.788 38.5158V20.0087H103.9V38.5153C103.9 38.641 103.951 38.7616 104.041 38.8505C104.131 38.9394 104.254 38.9895 104.381 38.9896H106.307C106.37 38.9897 106.432 38.9775 106.491 38.9537C106.549 38.9299 106.602 38.895 106.647 38.851C106.691 38.807 106.727 38.7547 106.751 38.6972C106.775 38.6397 106.788 38.5781 106.788 38.5158ZM119.305 19.5463C116.393 19.6815 114.068 21.0538 112.561 23.1492V20.483C112.561 20.3572 112.51 20.2367 112.42 20.1478C112.33 20.0588 112.208 20.0088 112.08 20.0087H110.155C110.028 20.0088 109.905 20.0588 109.815 20.1478C109.725 20.2367 109.674 20.3572 109.674 20.483V38.5153C109.674 38.7775 109.889 38.9896 110.155 38.9896H112.08C112.143 38.9897 112.206 38.9774 112.264 38.9536C112.323 38.9298 112.376 38.8949 112.42 38.8508C112.465 38.8068 112.5 38.7544 112.524 38.6969C112.549 38.6393 112.561 38.5776 112.561 38.5153V29.4999C112.561 25.7282 115.537 22.6429 119.297 22.3983C119.36 22.3983 119.423 22.386 119.481 22.362C119.54 22.3381 119.593 22.3031 119.638 22.2589C119.683 22.2147 119.718 22.1622 119.742 22.1045C119.766 22.0468 119.779 21.9849 119.779 21.9224V20.02C119.778 19.8956 119.729 19.7763 119.64 19.6877C119.552 19.5991 119.431 19.5483 119.305 19.5463ZM138.479 33.2959H136.245C136.171 33.2959 136.098 33.3127 136.032 33.345C135.966 33.3773 135.908 33.4243 135.863 33.4822C134.566 35.3732 132.372 36.617 129.883 36.617C125.897 36.617 122.665 33.4301 122.665 29.4994C122.665 25.5682 125.897 22.3812 129.883 22.3812C132.372 22.3812 134.566 23.6261 135.863 25.5166C135.908 25.5745 135.966 25.6214 136.032 25.6538C136.098 25.6861 136.171 25.7029 136.245 25.7029H138.479C138.542 25.703 138.604 25.6908 138.663 25.667C138.721 25.6432 138.774 25.6082 138.819 25.5642C138.864 25.5202 138.899 25.4679 138.924 25.4103C138.948 25.3527 138.96 25.291 138.96 25.2286C138.96 25.1544 138.942 25.0813 138.907 25.0155C137.243 21.7645 133.828 19.5339 129.884 19.5339C124.303 19.5339 119.779 23.9956 119.779 29.4994C119.779 35.0027 124.303 39.4649 129.884 39.4649C133.828 39.4649 137.243 37.2343 138.907 33.9833C138.942 33.9174 138.96 33.8444 138.96 33.7702C138.96 33.7078 138.948 33.6461 138.924 33.5885C138.899 33.5309 138.864 33.4786 138.819 33.4346C138.774 33.3906 138.721 33.3556 138.663 33.3318C138.604 33.308 138.542 33.2958 138.479 33.2959ZM144.252 13.8402H142.328C142.2 13.8403 142.078 13.8903 141.988 13.9792C141.898 14.0682 141.847 14.1887 141.847 14.3145V38.5158C141.847 38.778 142.062 38.9901 142.328 38.9901H144.252C144.38 38.9901 144.502 38.9401 144.593 38.8512C144.683 38.7623 144.734 38.6416 144.734 38.5158V14.3145C144.734 14.1886 144.683 14.068 144.593 13.9791C144.502 13.8901 144.38 13.8402 144.252 13.8402ZM157.726 19.5344C152.145 19.5344 147.621 23.9961 147.621 29.4999C147.621 35.0032 152.145 39.4654 157.726 39.4654C161.671 39.4654 165.085 37.2348 166.749 33.9839C166.787 33.9117 166.806 33.8312 166.802 33.7501C166.799 33.6689 166.775 33.5899 166.732 33.5208C166.689 33.4516 166.628 33.3946 166.556 33.3553C166.484 33.316 166.403 33.2957 166.321 33.2964H164.088C164.012 33.2964 163.937 33.3141 163.87 33.3481C163.803 33.3821 163.744 33.4314 163.7 33.492C162.402 35.3774 160.211 36.6181 157.726 36.6181C154.066 36.6181 151.045 33.9312 150.574 30.4496H167.337C167.46 30.4493 167.578 30.4025 167.668 30.3186C167.757 30.2348 167.81 30.1204 167.817 29.999C167.825 29.8338 167.83 29.6671 167.83 29.5004C167.83 23.9961 163.306 19.5344 157.726 19.5344ZM150.77 27.6017C151.613 24.5928 154.407 22.3818 157.726 22.3818C161.046 22.3818 163.839 24.5928 164.682 27.6017H150.77ZM195.779 13.3659C195.013 13.3659 194.279 13.6659 193.737 14.1998C193.196 14.7338 192.892 15.4581 192.892 16.2132C192.892 16.9684 193.196 17.6926 193.737 18.2266C194.279 18.7606 195.013 19.0606 195.779 19.0606C196.545 19.0606 197.279 18.7606 197.82 18.2266C198.362 17.6926 198.666 16.9684 198.666 16.2132C198.666 15.4581 198.362 14.7338 197.82 14.1998C197.279 13.6659 196.545 13.3659 195.779 13.3659ZM198.185 20.0087V38.5153C198.185 38.641 198.134 38.7616 198.044 38.8505C197.954 38.9394 197.832 38.9895 197.704 38.9896H193.854C193.791 38.9897 193.729 38.9774 193.67 38.9536C193.612 38.9298 193.559 38.8949 193.514 38.8508C193.47 38.8068 193.434 38.7544 193.41 38.6969C193.386 38.6393 193.373 38.5776 193.374 38.5153V20.0087H198.185ZM180.821 39.4654C185.539 39.4654 189.496 36.278 190.611 31.9695C190.619 31.9379 190.623 31.9055 190.623 31.873C190.623 31.7471 190.572 31.6264 190.482 31.5374C190.392 31.4484 190.27 31.3983 190.142 31.3982H186.069C185.977 31.3983 185.887 31.4246 185.81 31.4737C185.733 31.5228 185.671 31.5928 185.633 31.6753L185.632 31.6748C184.795 33.4708 182.958 34.7193 180.821 34.7193C177.899 34.7193 175.529 32.3829 175.529 29.4999C175.529 26.6169 177.899 24.2805 180.821 24.2805C181.835 24.2804 182.827 24.5673 183.679 25.107C184.532 25.6467 185.21 26.4166 185.632 27.325L185.633 27.324C185.671 27.4066 185.733 27.4766 185.81 27.5259C185.887 27.5751 185.977 27.6014 186.069 27.6017H190.142C190.27 27.6015 190.392 27.5514 190.482 27.4624C190.572 27.3734 190.623 27.2527 190.623 27.1269C190.622 27.0949 190.618 27.0631 190.611 27.0319C189.498 22.7224 185.539 19.5344 180.821 19.5344C175.242 19.5344 170.717 23.9967 170.717 29.4999C170.717 35.0037 175.242 39.4654 180.821 39.4654Z" fill="white"/>
</svg>
