<svg width="64" height="64" viewBox="0 0 64 64" fill="none" xmlns="http://www.w3.org/2000/svg">
<path d="M16 28C16 25.2386 18.2386 23 21 23H29C31.7614 23 34 25.2386 34 28V31C34 33.7614 31.7614 36 29 36H21C18.2386 36 16 33.7614 16 31V28Z" fill="#F02D5E"/>
<path d="M30.25 24.5V19.25C30.25 16.3505 27.8995 14 25 14V14C22.1005 14 19.75 16.3505 19.75 19.25V24.5" stroke="#F02D5E" stroke-width="4"/>
<circle cx="25" cy="25" r="19" stroke="#081120" stroke-width="4"/>
<rect x="41.041" y="46.6992" width="8" height="16" rx="4" transform="rotate(-45 41.041 46.6992)" stroke="#081120" stroke-width="4"/>
<path fill-rule="evenodd" clip-rule="evenodd" d="M55.5 7C56.6046 7 57.5 7.89543 57.5 9V17C57.5 20.3137 54.8137 23 51.5 23H40C38.8954 23 38 22.1046 38 21C38 19.8954 38.8954 19 40 19H51.5C52.6046 19 53.5 18.1046 53.5 17V9C53.5 7.89543 54.3954 7 55.5 7Z" fill="#02070F" fill-opacity="0.15"/>
<path fill-rule="evenodd" clip-rule="evenodd" d="M25.5 39C26.6046 39 27.5 39.8954 27.5 41V47C27.5 50.3137 24.8137 53 21.5 53H20C18.8954 53 18 53.8954 18 55V59C18 60.1046 17.1046 61 16 61C14.8954 61 14 60.1046 14 59V55C14 51.6863 16.6863 49 20 49H21.5C22.6046 49 23.5 48.1046 23.5 47V41C23.5 39.8954 24.3954 39 25.5 39Z" fill="#02070F" fill-opacity="0.15"/>
<path fill-rule="evenodd" clip-rule="evenodd" d="M38 31C38 29.8954 38.8954 29 40 29H55.5C56.6046 29 57.5 29.8954 57.5 31C57.5 32.1046 56.6046 33 55.5 33H40C38.8954 33 38 32.1046 38 31Z" fill="#02070F" fill-opacity="0.15"/>
<path d="M39 39L44 44" stroke="#081120" stroke-width="4"/>
</svg>
