<svg width="241" height="60" viewBox="0 0 241 60" fill="none" xmlns="http://www.w3.org/2000/svg">
<path d="M54.7115 42.3236C55.5923 42.3236 56.1208 43.0282 56.1208 43.7329C56.1208 44.6138 55.4162 45.1423 54.7115 45.1423C53.8306 45.1423 53.3021 44.4376 53.3021 43.7329C53.3021 43.0282 53.8306 42.3236 54.7115 42.3236ZM77.7901 33.3388C76.9092 33.3388 76.3807 32.6341 76.3807 31.9294C76.3807 31.2247 77.0854 30.52 77.7901 30.52C78.6709 30.52 79.1995 31.2247 79.1995 31.9294C79.1995 32.6341 78.4948 33.3388 77.7901 33.3388ZM77.7901 27.3489C75.3237 27.3489 73.2096 29.463 73.2096 31.9294C73.2096 32.4579 73.2096 32.9864 73.3858 33.3388L58.4111 41.2665C57.5302 40.0333 56.1208 39.3286 54.7115 39.3286C52.9497 39.3286 51.3642 40.3857 50.6595 41.795L37.2704 34.7481C35.861 34.0434 34.804 31.577 34.9801 29.463C34.9801 28.4059 35.5086 27.5251 36.0372 27.1727C36.3895 26.9965 36.918 26.9965 37.2704 27.1727H37.4465C40.97 29.1106 52.7736 35.1005 53.1259 35.4528C53.8306 35.8052 54.3591 35.9813 55.5923 35.2767L79.728 22.7684C80.0803 22.5922 80.4327 22.2399 80.4327 21.7114C80.4327 21.0067 79.728 20.6543 79.728 20.6543C78.3186 19.9496 76.2045 19.0688 74.2666 18.0117C69.8623 15.8977 64.9295 13.6074 62.6392 12.5504C60.7013 11.4934 59.292 12.3742 58.9396 12.5504L58.4111 12.7266C48.5454 17.6594 35.3325 24.1778 34.6278 24.5301C33.2184 25.411 32.5137 26.9965 32.3375 28.9344C32.1614 32.1056 33.7469 35.4528 36.2133 36.686L50.4833 44.0853C50.8357 46.3755 52.7736 47.9611 54.8876 47.9611C57.3541 47.9611 59.4681 46.0232 59.4681 43.5568L75.1475 35.1005C76.0284 35.8052 76.9092 35.9813 77.9662 35.9813C80.4327 35.9813 82.5467 33.8673 82.5467 31.4009C82.1944 29.2868 80.2565 27.3489 77.7901 27.3489Z" fill="white"/>
<path d="M112.144 39.3284C111.263 40.2093 110.03 41.0902 108.444 41.6187C106.859 42.1472 105.097 42.4995 103.159 42.4995C100.164 42.4995 97.6976 41.6187 95.9358 39.6808C94.1741 37.919 93.1171 35.2765 93.1171 32.1054V30.1675C93.1171 27.8772 93.4694 25.9393 94.3503 24.3538C95.2311 22.592 96.2882 21.3588 97.6976 20.478C99.1069 19.5971 100.869 19.0686 102.807 19.0686C105.625 19.0686 107.916 19.7733 109.501 21.0065C111.087 22.2397 111.968 24.1776 112.32 26.8202H107.035C106.859 25.587 106.506 24.7061 105.801 24.1776C105.097 23.6491 104.216 23.2967 103.159 23.2967C101.75 23.2967 100.692 23.8252 99.9878 25.0584C99.2831 26.2917 98.9308 27.8772 98.7546 29.9913V31.4007C98.7546 33.6909 99.1069 35.4526 99.9878 36.5097C100.692 37.5667 101.926 38.2714 103.687 38.2714C105.097 38.2714 106.154 37.919 106.859 37.3905V33.8671H102.983V30.1675H112.32V39.3284H112.144Z" fill="white"/>
<path d="M115.315 42.1472H120.6V25.2347H115.315V42.1472ZM115.139 20.8304C115.139 20.1257 115.491 19.421 116.02 18.8925C116.548 18.3639 117.253 18.1878 118.134 18.1878C119.014 18.1878 119.719 18.3639 120.248 18.8925C120.776 19.421 121.129 19.9495 121.129 20.8304C121.129 21.5351 120.776 22.2397 120.248 22.7683C119.719 23.2968 119.014 23.4729 118.134 23.4729C117.253 23.4729 116.548 23.2968 116.02 22.7683C115.315 22.2397 115.139 21.7112 115.139 20.8304Z" fill="white"/>
<path d="M130.113 21.0068V25.2349H132.932V28.9345H130.113V36.6861C130.113 37.3908 130.289 37.7432 130.466 38.0955C130.642 38.2717 131.17 38.4478 131.875 38.4478C132.403 38.4478 132.756 38.4478 133.108 38.2717V41.9713C132.227 42.3236 131.17 42.4998 130.113 42.4998C128.351 42.4998 126.942 42.1475 126.061 41.2666C125.18 40.3857 124.828 39.1525 124.828 37.3908V28.9345H122.714V25.2349H124.828V21.0068H130.113Z" fill="white"/>
<path d="M140.684 32.4581V37.9194H144.207C145.264 37.9194 145.969 37.7432 146.497 37.2147C147.026 36.6862 147.378 36.1577 147.378 35.2768C147.378 33.3389 146.497 32.4581 144.56 32.4581H140.684ZM140.684 28.9346H143.503C144.736 28.9346 145.617 28.7584 146.145 28.2299C146.674 27.8776 146.85 27.1729 146.85 26.292C146.85 25.4112 146.497 24.7065 145.969 24.1779C145.44 23.8256 144.56 23.4733 143.326 23.4733H140.684V28.9346ZM135.222 42.1476V19.4213H143.503C146.497 19.4213 148.612 19.9498 150.197 21.0068C151.783 22.0639 152.487 23.6494 152.487 25.7635C152.487 26.9967 152.135 27.8776 151.606 28.7584C151.078 29.6393 150.197 30.1678 149.14 30.5202C150.373 30.8725 151.254 31.401 151.959 32.2819C152.663 33.1627 152.84 34.2198 152.84 35.453C152.84 37.7432 152.135 39.3288 150.726 40.562C149.316 41.619 147.202 42.3237 144.383 42.3237L135.222 42.1476Z" fill="white"/>
<path d="M160.239 33.8672C160.239 35.4528 160.415 36.5098 160.943 37.3906C161.472 38.0953 162.177 38.4477 163.058 38.4477C164.995 38.4477 165.876 37.0383 165.876 34.0434V33.5149C165.876 30.5199 164.819 28.9344 162.881 28.9344C161.12 28.9344 160.239 30.1676 160.063 32.8102L160.239 33.8672ZM154.954 33.5149C154.954 31.7531 155.306 30.3437 156.011 28.9344C156.715 27.7012 157.596 26.6441 158.829 25.9394C160.063 25.2347 161.472 24.8824 163.234 24.8824C165.7 24.8824 167.814 25.5871 169.224 27.1726C170.633 28.7582 171.338 30.8723 171.338 33.5149V33.8672C171.338 36.5098 170.633 38.6239 169.047 40.2094C167.638 41.795 165.524 42.4997 163.058 42.4997C160.591 42.4997 158.653 41.795 157.244 40.3856C155.834 38.9762 154.954 37.0383 154.954 34.5719V33.5149Z" fill="white"/>
<path d="M178.385 33.8672C178.385 35.4528 178.561 36.5098 179.089 37.3906C179.618 38.0953 180.322 38.4477 181.203 38.4477C183.141 38.4477 184.022 37.0383 184.022 34.0434V33.5149C184.022 30.5199 182.965 28.9344 181.027 28.9344C179.265 28.9344 178.385 30.1676 178.208 32.8102L178.385 33.8672ZM173.099 33.5149C173.099 31.7531 173.452 30.3437 174.156 28.9344C174.861 27.7012 175.742 26.6441 176.975 25.9394C178.208 25.2347 179.618 24.8824 181.379 24.8824C183.846 24.8824 185.96 25.5871 187.369 27.1726C188.779 28.7582 189.483 30.8723 189.483 33.5149V33.8672C189.483 36.5098 188.779 38.6239 187.193 40.2094C185.784 41.795 183.67 42.4997 181.203 42.4997C178.737 42.4997 176.799 41.795 175.39 40.3856C173.98 38.9762 173.099 37.0383 173.099 34.5719V33.5149Z" fill="white"/>
<path d="M198.644 35.9812L197.059 37.3906V42.1472H191.774V18.1878H197.059V30.8722L197.587 30.1675L201.639 25.2347H207.982L201.992 32.2816L208.334 42.1472H202.344L198.644 35.9812Z" fill="white"/>
</svg>
