<svg width="240" height="60" viewBox="0 0 240 60" fill="none" xmlns="http://www.w3.org/2000/svg">
<path d="M49.0429 28.244C49.0429 28.244 44.3034 45.6693 63.2999 45.821C69.26 43.6071 73.6521 38.179 74.3175 31.6348C74.3636 31.182 74.3772 30.7203 74.3875 30.2577C74.3895 30.1361 74.4054 30.0182 74.4054 29.8955C74.4054 29.3683 74.3733 28.8488 74.3265 28.3339C69.3076 48.0488 47.1054 40.3267 49.0429 28.244Z" fill="white"/>
<path d="M58.8654 21.7758C58.8654 21.7758 41.1782 16.8475 41.4501 36.0919C42.3567 38.4174 43.7636 40.5161 45.5717 42.2397C45.6479 42.3116 45.7266 42.3794 45.8033 42.45C46.3147 42.9205 46.8544 43.3594 47.4195 43.7642C47.5072 43.8268 47.5898 43.8959 47.6777 43.957C48.2754 44.3647 48.8986 44.7339 49.5435 45.0622C49.731 45.1585 49.9234 45.2465 50.1135 45.3364C50.6685 45.5971 51.2373 45.8275 51.8174 46.0264C51.9599 46.0749 52.096 46.1357 52.2403 46.1806C52.9358 46.3929 53.6443 46.5601 54.3615 46.6812C54.5783 46.7191 54.7975 46.751 55.0171 46.7813C55.7611 46.8883 56.5112 46.9466 57.2628 46.9553C57.2916 46.9553 57.3194 46.9597 57.3482 46.9597C57.9152 46.9597 58.4749 46.9294 59.0269 46.8752C39.182 42.1527 46.7254 20.0091 58.8654 21.7758Z" fill="white"/>
<path d="M65.7593 30.9022C65.7593 30.9022 69.9437 13.2988 51.108 14.085C44.7916 16.5746 40.3203 22.7071 40.3203 29.894C40.3262 30.6679 40.3846 31.4405 40.4955 32.2064C44.4595 12.2903 67.0434 18.7403 65.7593 30.9022Z" fill="white"/>
<path d="M56.7152 38.4777C56.7152 38.4777 74.433 40.7856 73.3238 23.9764C70.9125 17.5061 64.6864 12.8876 57.3629 12.8876C56.3259 12.8916 55.2914 12.9897 54.2722 13.1807C74.0147 15.5992 68.8834 38.6497 56.7152 38.4777Z" fill="white"/>
<path d="M62.2819 29.8958C62.2819 31.1592 61.779 32.3709 60.8837 33.2642C59.9884 34.1576 58.7742 34.6595 57.5081 34.6595C56.2419 34.6595 55.0277 34.1576 54.1324 33.2642C53.2371 32.3709 52.7342 31.1592 52.7342 29.8958C52.7342 28.6324 53.2371 27.4207 54.1324 26.5274C55.0277 25.634 56.2419 25.1321 57.5081 25.1321C58.7742 25.1321 59.9884 25.634 60.8837 26.5274C61.779 27.4207 62.2819 28.6324 62.2819 29.8958ZM82.8419 43.7326V21.1377H86.2385V26.696C86.3594 26.3043 86.5857 25.7924 86.9178 25.1595C87.28 24.4967 87.7935 23.8339 88.4576 23.1712C89.1218 22.5084 89.9519 21.9512 90.9484 21.4991C91.9748 21.0171 93.1825 20.7761 94.5713 20.7761H94.7977V24.1656H94.3902C92.6994 24.1656 91.2353 24.6327 89.9974 25.5666C88.7897 26.4703 87.8536 27.6603 87.1895 29.1365C86.5556 30.5827 86.2385 32.1341 86.2385 33.791V43.7326H82.8419ZM107.932 44.0941C105.638 44.0941 103.63 43.582 101.909 42.5578C100.188 41.5033 98.8448 40.0872 97.8786 38.3099C96.9428 36.5324 96.4749 34.5741 96.4749 32.4352C96.4749 30.2662 96.9276 28.3077 97.8333 26.5604C98.7391 24.7829 100.037 23.3822 101.728 22.3577C103.419 21.3033 105.411 20.7761 107.706 20.7761C110.031 20.7761 112.023 21.3033 113.684 22.3577C115.374 23.3819 116.673 24.7829 117.578 26.5604C118.484 28.3077 118.937 30.2659 118.937 32.4352V33.7907H99.9619C100.143 35.1165 100.566 36.3365 101.23 37.4513C101.924 38.5358 102.845 39.4096 103.992 40.0723C105.14 40.7048 106.468 41.0213 107.978 41.0213C109.578 41.0213 110.921 40.6748 112.008 39.982C113.095 39.2589 113.94 38.34 114.544 37.2252H118.258C117.473 39.2437 116.22 40.9006 114.499 42.1961C112.808 43.4616 110.619 44.0941 107.932 44.0941ZM100.007 30.6276H115.405C115.103 28.6994 114.288 27.0877 112.959 25.7922C111.631 24.4967 109.88 23.8491 107.706 23.8491C105.532 23.8491 103.781 24.4967 102.452 25.7922C101.154 27.0877 100.339 28.6994 100.007 30.6276ZM123.087 52.6801V21.1377H126.484V24.7529C127.329 23.5177 128.416 22.5536 129.744 21.8608C131.103 21.1377 132.718 20.7761 134.59 20.7761C136.794 20.7761 138.711 21.3033 140.341 22.3577C142.002 23.3819 143.285 24.7829 144.191 26.5604C145.097 28.3077 145.549 30.2659 145.549 32.4352C145.549 34.5741 145.097 36.5324 144.191 38.3099C143.285 40.0872 142.002 41.5033 140.341 42.5578C138.711 43.582 136.794 44.0941 134.59 44.0941C132.718 44.0941 131.103 43.7326 129.744 43.0096C128.416 42.2564 127.329 41.2772 126.484 40.0723V52.6801H123.087ZM134.137 41.0213C135.828 41.0213 137.262 40.6296 138.439 39.8462C139.647 39.063 140.568 38.0237 141.202 36.7282C141.836 35.4027 142.153 33.9717 142.153 32.4352C142.153 30.8686 141.836 29.4376 141.202 28.1421C140.568 26.8466 139.647 25.8073 138.439 25.0239C137.262 24.2408 135.828 23.8491 134.137 23.8491C132.477 23.8491 131.058 24.2408 129.88 25.0239C128.703 25.8073 127.812 26.8466 127.208 28.1421C126.605 29.4376 126.303 30.8686 126.303 32.4352C126.303 33.9717 126.605 35.4027 127.208 36.7282C127.812 38.0237 128.703 39.063 129.88 39.8462C131.058 40.6296 132.477 41.0213 134.137 41.0213ZM150.02 43.7326V12.0996H153.417V43.7326H150.02ZM159.172 17.3416V12.913H162.84V17.3416H159.172ZM159.308 43.7326V21.1377H162.704V43.7326H159.308ZM171.041 43.7326V24.1201H166.421V21.1375H171.041V13.0486H174.437V21.1377H179.645V24.1204H174.437V43.7326H171.041Z" fill="white"/>
<path fill-rule="evenodd" clip-rule="evenodd" d="M186.624 23.5829H193.312V30.2567H200V36.9305H193.312L193.312 30.2567H186.624V23.5829ZM193.312 36.9305L186.624 36.9308V43.6046H193.312V36.9305Z" fill="white"/>
</svg>
