<svg width="25" height="24" viewBox="0 0 25 24" fill="none" xmlns="http://www.w3.org/2000/svg">
<path fill-rule="evenodd" clip-rule="evenodd" d="M17.4395 0C17.5939 1.40647 17.0286 2.81846 16.1902 3.83333C15.3518 4.84544 13.9757 5.63693 12.6326 5.53213C12.4479 4.15324 13.129 2.71643 13.904 1.82014C14.7699 0.805275 16.2316 0.0496403 17.4395 0ZM21.7905 8.19365C21.5606 8.33488 19.1825 9.79578 19.2093 12.752C19.2424 16.3771 22.3873 17.5864 22.4303 17.6029L22.4304 17.6029C22.4293 17.6065 22.4273 17.6129 22.4245 17.6219C22.3615 17.8264 21.8771 19.3977 20.7702 21.0171C19.7692 22.4787 18.7322 23.9348 17.0969 23.9679C16.3128 23.9827 15.7881 23.7554 15.2423 23.5189C14.6707 23.2713 14.0762 23.0137 13.1367 23.0137C12.1528 23.0137 11.5314 23.2788 10.9324 23.5343C10.4132 23.7558 9.91091 23.9701 9.20405 23.9983C7.62384 24.0589 6.4242 22.418 5.41484 20.9619C3.35202 17.9808 1.77732 12.5396 3.89254 8.87176C4.94326 7.0461 6.82132 5.89335 8.85933 5.86301C9.73807 5.84581 10.5884 6.18322 11.333 6.47865C11.9017 6.7043 12.4087 6.90546 12.8195 6.90546C13.1881 6.90546 13.6821 6.71061 14.2578 6.48349C15.1638 6.12608 16.2724 5.68875 17.414 5.8051C18.1972 5.83819 20.3924 6.11949 21.8044 8.18507C21.8014 8.18696 21.7968 8.18982 21.7905 8.19365Z" fill="white"/>
</svg>
