<svg width="240" height="60" viewBox="0 0 240 60" fill="none" xmlns="http://www.w3.org/2000/svg">
<path d="M36.0657 36.7937C37.5953 38.2833 39.6322 39.1383 41.7667 39.1867C44.1597 39.1867 46.1304 37.7791 46.1304 35.386C46.1304 29.8962 35.2211 31.2335 35.2211 24.4767C35.2211 21.3095 38.0364 18.635 42.0483 18.635C44.193 18.5712 46.2817 19.3261 47.89 20.7464L46.8343 22.5764C45.5225 21.3831 43.8214 20.7076 42.0483 20.6761C39.2329 20.6761 37.4734 22.506 37.403 24.4063C37.403 29.6147 48.3123 28.1366 48.3123 35.3157C48.3123 38.5533 45.7785 41.2278 41.6963 41.2278C40.4155 41.2532 39.143 41.0165 37.9569 40.5324C36.7708 40.0483 35.6961 39.3269 34.7988 38.4125L36.0657 36.7937ZM70.6236 18.7757C72.0918 18.7691 73.5466 19.0546 74.9034 19.6155C76.2602 20.1764 77.4919 21.0016 78.5267 22.043C79.5616 23.0845 80.379 24.3213 80.9314 25.6816C81.4837 27.0419 81.76 28.4985 81.7441 29.9666C81.7627 31.4455 81.4898 32.9135 80.941 34.2869C80.3922 35.6603 79.5782 36.9122 78.5456 37.971C77.5129 39.0298 76.2818 39.8748 74.9226 40.4577C73.5633 41.0407 72.1025 41.3502 70.6236 41.3686H70.5533C69.0744 41.3502 67.6136 41.0407 66.2543 40.4577C64.8951 39.8748 63.664 39.0298 62.6313 37.971C61.5987 36.9122 60.7847 35.6603 60.2359 34.2869C59.6871 32.9135 59.4142 31.4455 59.4328 29.9666V29.8962C59.4262 28.428 59.7116 26.9732 60.2726 25.6164C60.8335 24.2597 61.6587 23.028 62.7001 21.9931C63.7415 20.9582 64.9784 20.1408 66.3387 19.5885C67.699 19.0361 69.1556 18.7598 70.6236 18.7757ZM70.5533 39.3979C72.9789 39.3425 75.2832 38.326 76.9595 36.5718C78.6357 34.8177 79.5466 32.4696 79.4919 30.044V29.9666C79.4919 24.7583 75.5504 20.7464 70.6236 20.7464C69.4324 20.748 68.2534 20.9873 67.1558 21.4504C66.0582 21.9134 65.064 22.5908 64.2316 23.4429C63.3991 24.2951 62.7451 25.3048 62.3078 26.4129C61.8705 27.521 61.6588 28.7052 61.685 29.8962C61.685 35.2453 65.6265 39.3275 70.5533 39.3979ZM94.413 19.198H96.5245L96.4541 39.1163H106.589V41.0167H94.2722L94.413 19.198ZM118.273 19.2684H120.384L120.314 41.1574H118.202L118.273 19.2684ZM134.602 19.2684H141.64C148.185 19.2684 152.62 23.2802 152.62 30.2481C152.62 37.216 148.185 41.1574 141.64 41.1574H134.602V19.2684ZM141.358 39.2571C146.707 39.2571 150.297 36.0899 150.367 30.2481C150.438 24.4063 146.778 21.2391 141.429 21.2391H136.713L136.643 39.2571H141.358ZM171.039 41.1574C172.859 41.2134 174.634 40.58 176.008 39.3838C176.69 38.75 177.224 37.9736 177.572 37.1099C177.92 36.2461 178.073 35.3163 178.021 34.3866V19.5288H173.622V34.0629C173.671 34.8315 173.419 35.5891 172.918 36.1743C172.665 36.4309 172.36 36.6308 172.024 36.7606C171.688 36.8905 171.328 36.9473 170.968 36.9274C169.589 36.9274 168.582 36.118 167.949 34.4992L164.233 36.5755C165.453 39.6301 167.726 41.1574 171.053 41.1574H171.039ZM197.404 41.2067C199.846 41.2067 201.761 40.6014 203.133 39.3838C203.81 38.7898 204.345 38.0529 204.702 37.2264C205.059 36.3999 205.227 35.5044 205.195 34.6048C205.223 33.8498 205.079 33.0983 204.775 32.407C204.47 31.7157 204.012 31.1027 203.436 30.6141C202.253 29.6006 200.36 28.7278 197.756 27.9818C196.816 27.7702 195.921 27.3963 195.11 26.8768C194.866 26.7073 194.669 26.4806 194.534 26.2168C194.399 25.9529 194.331 25.6599 194.335 25.3636C194.327 25.0567 194.393 24.7523 194.528 24.4765C194.663 24.2008 194.862 23.9617 195.11 23.7799C195.705 23.3548 196.427 23.1439 197.158 23.1817C198.021 23.1235 198.88 23.3474 199.604 23.8197C200.329 24.2919 200.881 24.9869 201.177 25.7999L204.815 23.8081C204.25 22.3931 203.246 21.1967 201.951 20.3945C200.559 19.572 198.964 19.1574 197.348 19.198C195.435 19.1459 193.569 19.7969 192.104 21.028C191.409 21.5753 190.851 22.2767 190.474 23.0768C190.096 23.8768 189.91 24.7536 189.929 25.638C189.911 26.3736 190.047 27.1049 190.328 27.7849C190.61 28.4649 191.03 29.0785 191.562 29.5865C192.543 30.5719 194.272 31.4376 196.749 32.1836C197.867 32.4509 198.94 32.8826 199.931 33.4646C200.191 33.6104 200.406 33.8245 200.554 34.0837C200.702 34.3429 200.776 34.6374 200.768 34.9356C200.767 35.2612 200.682 35.5811 200.524 35.8654C200.365 36.1497 200.137 36.3891 199.86 36.5614C199.171 37.0104 198.36 37.2342 197.538 37.2019C196.555 37.2259 195.587 36.9551 194.759 36.4246C193.931 35.894 193.281 35.1279 192.893 34.2247L189.092 36.1884C189.717 37.7263 190.827 39.0185 192.252 39.8694C193.81 40.7883 195.595 41.2516 197.404 41.2067Z" fill="white"/>
</svg>
