<svg width="64" height="64" viewBox="0 0 64 64" fill="none" xmlns="http://www.w3.org/2000/svg">
<path d="M8 31C8 28.2386 10.2386 26 13 26H16C17.1046 26 18 26.8954 18 28V41C18 42.1046 17.1046 43 16 43H13C10.2386 43 8 40.7614 8 38V31Z" fill="white" stroke="#081120" stroke-width="4"/>
<path d="M46 28C46 26.8954 46.8954 26 48 26H51C53.7614 26 56 28.2386 56 31V38C56 40.7614 53.7614 43 51 43H48C46.8954 43 46 42.1046 46 41V28Z" fill="white" stroke="#081120" stroke-width="4"/>
<path d="M46 28V20C46 14.4772 41.5228 10 36 10H28C22.4772 10 18 14.4772 18 20V28" stroke="#081120" stroke-width="4"/>
<path d="M32 56L39 56C42.866 56 46 52.866 46 49L46 36" stroke="#081120" stroke-width="4"/>
<circle cx="32" cy="34" r="12" fill="#02070F" fill-opacity="0.15"/>
<path fill-rule="evenodd" clip-rule="evenodd" d="M33 16C30.7909 16 29 17.7909 29 20V30C29 32.2091 30.7909 34 33 34L33 37.7732C33 38.636 34.0195 39.0938 34.6644 38.5206L39.75 34H50C52.2091 34 54 32.2091 54 30V20C54 17.7909 52.2091 16 50 16H33Z" fill="#F02D5E"/>
<path d="M28 54C28 52.8954 28.8954 52 30 52H31C32.6569 52 34 53.3431 34 55V55.5C34 55.7761 33.7761 56 33.5 56H30C28.8954 56 28 55.1046 28 54Z" fill="white" stroke="#081120" stroke-width="4"/>
</svg>
