<svg width="64" height="64" viewBox="0 0 64 64" fill="none" xmlns="http://www.w3.org/2000/svg">
<circle cx="15" cy="19" r="8" fill="white" stroke="#081120" stroke-width="4"/>
<circle cx="49" cy="19" r="10" fill="#02070F" fill-opacity="0.15"/>
<circle cx="49" cy="45" r="8" fill="white" stroke="#081120" stroke-width="4"/>
<path d="M23 19H27C29.7614 19 32 21.2386 32 24V41C32 43.7614 34.2386 46 37 46H41" stroke="#02070F" stroke-width="4"/>
<path d="M7.10447 44.9238C5.4769 44.1528 5.69797 41.7703 7.43961 41.312L23.5761 37.0655C25.0059 36.6893 26.3107 37.9941 25.9345 39.4239L21.688 55.5604C21.2297 57.302 18.8472 57.5231 18.0762 55.8955L14.8448 49.0735C14.6539 48.6706 14.3294 48.3461 13.9265 48.1552L7.10447 44.9238Z" fill="#F02D5E"/>
</svg>
