<svg width="64" height="64" viewBox="0 0 64 64" fill="none" xmlns="http://www.w3.org/2000/svg">
<path d="M16.0195 38.5515C16.6283 38.2091 17.3717 38.2091 17.9805 38.5515L23.9805 41.9265C24.6103 42.2808 25 42.9471 25 43.6697V50.3303C25 51.0529 24.6103 51.7192 23.9805 52.0735L17.9805 55.4485C17.3717 55.7909 16.6283 55.7909 16.0195 55.4485L10.0195 52.0735C9.38972 51.7192 9 51.0529 9 50.3303V43.6697C9 42.9471 9.38972 42.2808 10.0195 41.9265L16.0195 38.5515Z" fill="#02070F" fill-opacity="0.15"/>
<path d="M48.1538 44C54.6963 44 60 38.6274 60 32C60 25.3726 54.6963 20 48.1538 20C40.6154 20 36.3077 26 32 32C36.3077 38 40.6154 44 48.1538 44Z" fill="white"/>
<path d="M31.4615 31.2508C35.9545 37.4898 40.3014 44 48.1538 44C54.6963 44 60 38.6274 60 32C60 25.3726 54.6963 20 48.1538 20C33.0769 20 30.9231 44 15.8462 44C9.3037 44 4 38.6274 4 32C4 25.3726 9.3037 20 15.8462 20C20.7195 20 24.2427 22.5075 27.2885 25.9015" stroke="#081120" stroke-width="4"/>
<path d="M29 19V26C29 27.1046 28.1046 28 27 28H20" stroke="#081120" stroke-width="4"/>
<path d="M44.9845 6.17574C46.23 5.44923 47.77 5.44923 49.0155 6.17574L57.0155 10.8424C58.2444 11.5593 59 12.8749 59 14.2975V23.7026C59 25.1252 58.2444 26.4408 57.0155 27.1577L49.0155 31.8243C47.77 32.5509 46.23 32.5509 44.9845 31.8243L36.9845 27.1577C35.7556 26.4408 35 25.1252 35 23.7026V14.2975C35 12.8749 35.7556 11.5593 36.9845 10.8424L44.9845 6.17574Z" fill="#F02D5E"/>
<circle cx="47" cy="19" r="5" fill="white"/>
</svg>
