<svg width="64" height="64" viewBox="0 0 64 64" fill="none" xmlns="http://www.w3.org/2000/svg">
<path fill-rule="evenodd" clip-rule="evenodd" d="M45.9995 15C46.6527 15.8908 46.4602 17.1424 45.5695 17.7956L36.4839 24.4583C35.4085 25.2469 35.3915 26.847 36.4497 27.6584L45.6292 34.6959C46.5058 35.368 46.6716 36.6234 45.9995 37.5C45.3275 38.3766 44.0721 38.5424 43.1955 37.8704L30.8595 28.4128C30.5103 28.1451 30.0826 28 29.6426 28H18C16.8954 28 16 27.1046 16 26C16 24.8954 16.8954 24 18 24H29.6901C30.1155 24 30.5298 23.8644 30.8728 23.6128L43.204 14.5699C44.0947 13.9167 45.3463 14.1093 45.9995 15ZM54 53C55.1046 53 56 52.1046 56 51C56 49.8954 55.1046 49 54 49H26C24.8954 49 24 49.8954 24 51C24 52.1046 24.8954 53 26 53H54Z" fill="#02070F" fill-opacity="0.15"/>
<rect x="10" y="19" width="14" height="14" rx="5" fill="white" stroke="#081120" stroke-width="4"/>
<path fill-rule="evenodd" clip-rule="evenodd" d="M8 49C8 45.134 11.134 42 15 42H19C22.866 42 26 45.134 26 49V53C26 56.866 22.866 60 19 60H15C11.134 60 8 56.866 8 53V49Z" fill="#F02D5E"/>
<rect x="40" y="7" width="14" height="14" rx="5" fill="white" stroke="#081120" stroke-width="4"/>
<rect x="40" y="29" width="14" height="14" rx="5" fill="white" stroke="#081120" stroke-width="4"/>
</svg>
