<svg width="240" height="60" viewBox="0 0 240 60" fill="none" xmlns="http://www.w3.org/2000/svg">
<path d="M82.1275 12.6458H90.9088L82.0375 27.9229C79.3355 23.1432 79.3806 17.3361 82.1275 12.6458Z" fill="white"/>
<path d="M90.9538 47.3544L70.7344 12.6458H61.9531L72.0403 30.0224L61.9531 47.3544H70.7344L76.4535 37.5716L82.1275 47.3544H90.9538Z" fill="white"/>
<path d="M97.1233 34.7128C98.5643 35.9189 100.231 36.4996 102.212 36.5443C104.554 36.4996 105.724 35.6509 105.769 33.9981C105.769 32.6133 105.004 31.8092 103.428 31.5412C102.707 31.4519 101.897 31.3179 101.041 31.1839C99.51 30.9158 98.3391 30.3351 97.5286 29.4417C96.718 28.5036 96.2677 27.3869 96.2677 26.0468C96.2677 24.4387 96.8081 23.1432 97.8438 22.1605C98.8345 21.1778 100.276 20.6864 102.122 20.6864C104.328 20.7311 106.265 21.3564 107.931 22.5625L106.4 24.8407C105.049 23.9473 103.563 23.4559 101.987 23.4113C101.131 23.4113 100.456 23.6346 99.9153 24.0366C99.3299 24.4833 99.0146 25.1534 99.0146 26.0021C99.0146 26.5382 99.1948 27.0295 99.6001 27.4316C100.005 27.8783 100.636 28.191 101.536 28.325C102.032 28.4143 102.707 28.5036 103.563 28.593C105.229 28.8163 106.49 29.4417 107.301 30.4245C108.111 31.4072 108.471 32.524 108.471 33.8641C108.336 37.4823 106.265 39.2245 102.167 39.2691C99.51 39.2691 97.2584 38.4204 95.322 36.7676L97.1233 34.7128Z" fill="white"/>
<path d="M118.018 23.2773H113.11V20.8204H125.629V23.2773H120.72V39.1351H118.018V23.2773Z" fill="white"/>
<path d="M138.463 35.0255H131.663L130.267 39.1351H127.385L133.87 20.8204H136.121L142.606 39.1351H139.859L138.463 35.0255ZM137.697 32.5686L135.13 24.5727H135.085L132.474 32.5686H137.697Z" fill="white"/>
<path d="M149.496 23.2773H144.587V20.8204H157.106V23.2773H152.198V39.1351H149.496V23.2773Z" fill="white"/>
<path d="M162.465 20.8204H173.903V23.4113H165.167V28.6377H172.597V31.0945H165.167V36.4996H173.903V39.0905H162.465V20.8204Z" fill="white"/>
</svg>
