<svg width="241" height="60" viewBox="0 0 241 60" fill="none" xmlns="http://www.w3.org/2000/svg">
<path d="M58.4847 7.80194C58.4847 7.70124 58.1978 7.61869 58.0485 7.51798C57.985 7.4672 57.9251 7.41203 57.8694 7.35289C57.3851 6.91704 56.9042 6.47624 56.4133 6.05029C54.2291 4.15171 52.0085 2.29441 49.9637 0.242291C49.826 0.105263 49.5723 0.0606853 49.3633 0.0210628C48.7879 -0.0862483 48.3849 0.234035 47.9785 0.584034C46.7977 1.59606 45.5954 2.58167 44.4113 3.58709C43.7479 4.15337 43.0928 4.73284 42.4444 5.31563C41.5245 6.1422 40.6113 6.97702 39.7047 7.8201C39.6101 7.9076 39.5388 8.16185 39.5869 8.22788C39.8191 8.5201 39.7528 8.85524 39.8008 9.17552C39.9037 9.98943 39.9982 10.805 40.1193 11.6156C40.2072 12.2116 40.3879 12.796 40.4311 13.392C40.5322 14.7887 40.6317 16.1805 40.9402 17.5491C40.9899 17.7703 41.0264 17.9965 40.6997 18.0444C40.6579 18.0494 40.6178 18.064 40.5826 18.0872C40.5475 18.1104 40.5183 18.1414 40.4973 18.1778C40.4764 18.2142 40.4643 18.255 40.462 18.2969C40.4597 18.3388 40.4673 18.3807 40.4841 18.4191C40.6831 19.0151 40.703 19.6474 40.9667 20.2352C41.4364 21.2258 41.7791 22.2714 41.9867 23.3472C42.0563 23.7649 42.2719 24.1578 42.4278 24.5606C42.5356 24.8429 42.7296 24.7538 42.8772 24.6201C42.9974 24.5245 43.0777 24.3881 43.1028 24.237C43.1028 24.001 43.1177 23.7814 43.3449 23.6724C43.5721 23.5635 43.4892 23.4826 43.3963 23.3142C42.9336 22.4887 42.3764 21.6781 42.4278 20.6562C42.4142 20.5752 42.3914 20.496 42.3598 20.4201C42.2338 19.8307 42.0862 19.2446 41.99 18.6519C41.6666 16.6807 41.3266 14.7128 41.0662 12.7316C40.9004 11.4555 40.8788 10.1611 40.8042 8.87505C40.7957 8.74033 40.8299 8.60634 40.902 8.49203C41.2745 7.92397 41.6839 7.38075 42.1276 6.86586C42.9759 5.93739 43.9116 5.09209 44.9221 4.34157C46.3782 3.27672 47.7679 2.12106 49.1925 1.01163C49.2322 0.98827 49.277 0.975133 49.3231 0.973404C49.3691 0.971674 49.4149 0.981406 49.4562 1.00172C50.3219 1.8426 51.1815 2.69008 52.035 3.54417C53.3502 4.85502 54.6587 6.17412 55.9838 7.47506C56.3013 7.77239 56.6418 8.04452 57.002 8.28897C57.1104 8.35179 57.1909 8.45302 57.2275 8.5724C57.2641 8.69177 57.254 8.8205 57.1994 8.93283C57.1491 9.08929 57.0892 9.24255 57.0203 9.39179C56.6421 10.1721 56.2607 10.9508 55.876 11.7279C55.6355 12.2149 55.3967 12.7036 55.1413 13.184C54.5525 14.2934 53.9439 15.3913 53.3651 16.504C52.7017 17.7901 52.0566 19.0911 51.3899 20.3771C50.7962 21.5212 50.1527 22.6406 49.5939 23.8012C49.5114 24.0023 49.3847 24.1825 49.2231 24.3284C49.0616 24.4744 48.8692 24.5825 48.6602 24.6448C48.3724 24.7343 48.0741 24.7859 47.7729 24.7984C47.083 24.8215 46.3914 24.8066 45.6999 24.8066C44.927 24.8066 44.1526 24.8066 43.3781 24.8066C42.6583 24.8066 42.0198 25.0212 41.5621 25.6106C41.2289 26.0107 40.923 26.4327 40.6467 26.8736C40.4659 27.1856 40.315 27.5538 40.5986 27.9318C40.912 28.3528 41.1657 28.8052 41.1707 29.3599C41.1707 29.4292 41.3366 29.5712 41.3747 29.5564C41.854 29.3913 42.2669 29.8866 42.7446 29.6851C42.791 29.6653 42.854 29.6851 42.9104 29.6851C43.1857 29.667 43.2935 29.7908 43.315 30.0682C43.3532 30.5634 43.4311 31.0455 43.4925 31.5342C43.542 31.8304 43.5753 32.1292 43.592 32.429C43.6036 33.3634 43.592 34.2995 43.592 35.2356C43.605 35.4543 43.5757 35.6734 43.5058 35.8811C43.1326 36.7611 42.7363 37.6311 42.3449 38.5012C41.7313 39.845 41.0961 41.179 40.4957 42.5278C40.0065 43.6273 39.63 44.783 39.0595 45.8379C38.6615 46.5726 38.6499 47.2957 38.6731 48.0601C38.6731 48.1625 38.7942 48.3342 38.8705 48.3408C38.933 48.3353 38.9934 48.3153 39.0467 48.2823C39.1 48.2493 39.1447 48.2043 39.1773 48.1509C39.3431 47.8405 39.4741 47.507 39.63 47.1868C40.3846 45.6382 41.1492 44.0929 41.8988 42.5427C42.3731 41.5604 42.8192 40.5615 43.2935 39.5842C43.8739 38.3823 44.4793 37.192 45.0564 35.9884C45.5904 34.8773 46.0879 33.7514 46.6236 32.6436C47.3334 31.1693 48.0698 29.7083 48.7796 28.2356C49.3401 27.08 49.8874 25.9243 50.438 24.7686L52.1329 21.2092C52.6304 20.1724 53.1163 19.1323 53.6155 18.0972C54.1827 16.9184 54.7632 15.743 55.332 14.5642C55.6289 13.9467 55.8925 13.3128 56.2093 12.7052C56.9125 11.3531 57.6538 10.0192 58.3487 8.66373C58.4676 8.39287 58.5145 8.09607 58.4847 7.80194ZM46.2737 30.3257C45.8447 31.2381 45.4063 32.1472 44.9586 33.0531C44.875 33.192 44.7697 33.3168 44.6468 33.4229C44.6285 33.441 44.4959 33.3948 44.4909 33.3651C44.4009 32.9383 44.3361 32.5067 44.2968 32.0724C44.2604 31.412 44.2819 30.7517 44.2686 30.0995C44.2686 29.8535 44.3151 29.6472 44.592 29.6191C45.1377 29.5597 45.6849 29.5234 46.3201 29.4722C46.3467 29.5118 46.4727 29.6175 46.4611 29.705C46.4301 29.92 46.367 30.1293 46.2737 30.3257ZM48.2422 26.4691C48.0051 26.9908 47.7182 27.4877 47.4727 28.0061C47.3806 28.2223 47.2251 28.4057 47.0266 28.5324C46.828 28.659 46.5957 28.723 46.3599 28.716C45.8093 28.7309 45.2571 28.716 44.7015 28.7392C44.0381 28.7689 43.388 28.8366 42.7296 28.8729C42.5385 28.8822 42.3469 28.8684 42.1591 28.8316C42.0629 28.8234 41.9732 28.7798 41.9076 28.7092C41.842 28.6387 41.8051 28.5464 41.8042 28.4502C41.7831 28.2075 41.7273 27.969 41.6384 27.742C41.4891 27.3821 41.5969 27.1229 41.7661 26.7762C42.1243 26.0366 42.6384 25.7955 43.4245 25.8946C43.8109 25.9215 44.1986 25.9243 44.5854 25.9028C45.6004 25.8847 46.6219 25.9788 47.617 25.6552C47.8857 25.5677 48.2074 25.642 48.5043 25.6436C48.4342 25.9249 48.3439 26.2008 48.2339 26.4691H48.2422Z" fill="white"/>
<path d="M62.5459 11.1398C62.2424 10.9235 62.2142 11.0688 62.1247 11.3148C62.0981 11.3769 62.0572 11.4319 62.0053 11.4755C61.9535 11.5191 61.8921 11.55 61.8262 11.5657C61.4115 11.5839 61.3452 11.9223 61.259 12.1815C60.8845 13.3512 60.425 14.4923 59.8841 15.5956C59.6636 16.0348 59.4347 16.4706 59.2125 16.9081C58.6337 18.0539 58.04 19.1914 57.4861 20.347C57.2141 20.915 56.8409 21.44 56.6071 21.998C56.1013 23.2098 55.4843 24.3654 54.8956 25.5392C54.3848 26.5661 53.8773 27.5947 53.3632 28.6183C53.0448 29.2539 52.7181 29.8862 52.393 30.5168C52.068 31.1475 51.7181 31.8128 51.3814 32.46C51.3565 32.5079 51.3399 32.559 51.32 32.6086C51.2855 32.5462 51.2578 32.4803 51.2371 32.4121C51.2189 32.3048 51.2371 32.1909 51.2122 32.0819C51.1758 31.8706 51.0729 31.7121 50.8258 31.7682C50.6351 31.8095 50.4361 31.8805 50.4543 32.1331C50.4676 32.323 50.529 32.5112 50.534 32.701C50.534 33.2178 50.6003 33.7494 50.5091 34.2513C50.4394 34.6409 50.1774 34.9975 49.9933 35.3623C48.9983 37.3049 47.9955 39.247 46.9849 41.1885C46.4177 42.2798 45.8373 43.3661 45.2602 44.4541C44.7892 45.3456 44.316 46.236 43.8406 47.1253C43.4674 47.8187 43.0876 48.5088 42.7079 49.1989C42.4617 49.5927 42.2401 50.0012 42.0445 50.4222C41.9433 50.6732 42.0213 50.9885 41.9848 51.2708C41.9433 51.5861 41.9682 51.847 42.2369 52.0798C43.0661 52.7963 43.8638 53.5474 44.693 54.2623C45.5222 54.9772 46.4327 55.6739 47.2751 56.4085C48.5289 57.508 49.7512 58.6422 51 59.7467C51.1492 59.8788 51.3847 59.9118 51.5804 59.9993C52.0133 60.0142 52.2886 59.7847 52.539 59.5172C53.738 58.2411 54.9155 56.9418 56.1378 55.687C57.4523 54.3388 58.7923 53.0136 60.1578 51.7116C60.6255 51.2658 60.7266 50.792 60.6337 50.196C60.516 49.4399 60.4447 48.6755 60.3585 47.9161C60.3269 47.6437 60.3269 47.368 60.2888 47.0906C60.0367 45.2201 59.773 43.3496 59.5243 41.4774C59.3949 40.5017 59.2871 39.5227 59.1694 38.5437C59.1014 37.9741 59.0251 37.4046 58.9621 36.835C58.8211 35.5836 58.6785 34.3322 58.5508 33.0791C58.3965 31.5536 58.433 30.0116 58.1179 28.4994C58.0814 28.3343 58.0665 28.0503 58.1677 27.9612C58.4214 27.7366 58.37 27.5617 58.2257 27.3223C58.1456 27.1814 58.0948 27.0258 58.0765 26.865C57.9969 26.1848 57.9471 25.5029 57.8592 24.826C57.8061 24.4232 57.8028 23.961 57.5939 23.6489C57.4995 23.5403 57.4432 23.404 57.4337 23.2607C57.4241 23.1174 57.4617 22.9749 57.5408 22.8548C57.8493 22.2473 58.1362 21.6282 58.4098 21.0041C58.9073 19.8485 59.4049 18.6928 59.8891 17.5454C60.1661 16.885 60.3867 16.2147 60.7051 15.5758C61.3369 14.2732 61.992 12.9789 62.6802 11.7027C62.8461 11.4072 62.7997 11.323 62.5459 11.1398ZM57.6237 32.5293C57.7133 33.1253 57.7995 33.723 57.8493 34.3222C57.928 35.4433 58.0877 36.5572 58.3269 37.6555C58.4596 38.2383 58.4629 38.8524 58.5143 39.4517C58.5906 40.3548 58.6586 41.2578 58.7299 42.1593C58.7431 42.3243 58.7415 42.4894 58.768 42.6545C58.899 43.4635 59.0433 44.2708 59.1727 45.0798C59.2573 45.6196 59.2639 46.1793 59.4082 46.7026C59.7034 47.7724 59.637 48.8819 59.846 49.9566C59.8744 50.0917 59.8683 50.2316 59.8283 50.3637C59.7883 50.4958 59.7157 50.6158 59.6171 50.7128C58.6928 51.711 57.7685 52.7093 56.8443 53.7076C56.1809 54.4307 55.5308 55.1786 54.8541 55.8852C53.8458 56.922 52.8441 57.967 51.6932 58.8569C51.5273 58.9906 51.4693 59.0929 51.267 58.8965C50.5505 58.2097 49.8208 57.5493 49.0911 56.8889C48.3249 56.184 47.5471 55.4906 46.7892 54.7774C45.4774 53.5441 44.1805 52.301 42.8654 51.0677C42.7327 50.9439 42.7642 50.9406 42.8438 50.7986C43.9351 48.8472 45.0136 46.8881 46.0794 44.9213C47.0413 43.1449 47.9783 41.3569 48.9402 39.5788C49.4858 38.5685 50.0563 37.5696 50.6218 36.5708C50.6567 36.5064 50.7479 36.4751 50.8142 36.4272C50.8426 36.4966 50.8621 36.5692 50.8723 36.6435C50.8723 38.542 50.8723 40.4401 50.8723 42.3376H50.9187C50.9187 43.5477 50.9386 44.7578 50.9187 45.9696C50.8988 46.8743 50.8209 47.7857 50.7744 48.6821C50.7545 49.0932 50.7413 49.5076 50.7379 49.9187C50.7379 50.414 50.8076 50.5246 51.0829 50.5279C51.4958 50.5279 51.7794 50.3 51.7662 49.9187C51.7313 48.7944 51.6733 47.6701 51.6302 46.5458C51.6169 46.2156 51.6136 45.8854 51.6302 45.5552C51.66 44.6505 51.7264 43.7392 51.728 42.8411C51.728 41.9925 51.6186 41.1439 51.6335 40.2953C51.6567 39.0076 51.7413 37.7199 51.7993 36.4321C51.8225 35.9666 51.8723 35.5027 51.8955 35.0371C51.9018 34.3247 52.0982 33.6268 52.4644 33.0147C52.869 32.3725 53.1277 31.6395 53.4743 30.9593C53.9437 30.0364 54.4528 29.1333 54.9122 28.2072C55.3235 27.3734 55.6916 26.5199 56.0731 25.6763C56.0882 25.6236 56.1076 25.5723 56.1311 25.5227C56.2323 25.3576 56.3401 25.2074 56.4462 25.0506C56.4975 25.2167 56.5402 25.3853 56.5739 25.5558C56.7945 27.0713 57.0035 28.5885 57.2273 30.1041C57.3567 30.9114 57.5043 31.7187 57.6237 32.5293Z" fill="white"/>
<path d="M162.428 27.2497C161.497 25.8219 160.29 24.5914 158.879 23.6292C157.838 22.9226 156.694 22.429 155.544 21.9452C155.019 21.7224 154.466 21.5655 153.927 21.3773C153.264 21.1445 152.617 20.8226 151.937 20.6955C150.855 20.518 149.8 20.2057 148.796 19.766C148.383 19.5626 147.959 19.3813 147.526 19.2228C147.1 19.0776 146.74 19.2426 146.433 19.5662C146.068 19.9493 145.955 20.4264 146.197 20.849C146.493 21.3658 146.935 21.8 147.622 21.7851C148.766 21.7603 149.824 22.1896 150.917 22.424C151.474 22.5429 152.008 22.7625 152.592 22.8186C152.871 22.845 153.135 23.025 153.402 23.1488C153.417 23.1488 153.41 23.2808 153.383 23.2957C152.982 23.5252 152.979 23.9396 152.954 24.3077C152.864 25.6202 152.801 26.936 152.743 28.2502C152.677 29.2105 152.78 30.1749 153.048 31.0997C153.176 31.5075 153.317 31.8591 153.712 32.0639C153.758 32.087 153.801 32.1134 153.846 32.1398C153.793 32.1976 153.745 32.2966 153.68 32.3049C153.111 32.3973 152.543 32.4898 151.969 32.5492C151.45 32.6021 150.909 32.5393 150.41 32.6631C149.925 32.7821 149.428 32.8398 148.929 32.8348C148.1 32.8348 147.27 32.8348 146.441 32.8348C146.193 32.8271 145.944 32.8392 145.698 32.8712C145.232 32.9471 144.91 33.3235 144.95 33.7065C145.015 34.3108 145.33 34.6756 145.831 34.6971C146.216 34.712 146.604 34.6971 146.901 34.6971C147.486 34.6674 147.984 34.6608 148.478 34.6129C149.901 34.4742 151.32 34.3174 152.742 34.1688C153.151 34.1242 153.561 34.0813 153.969 34.0318C154.924 33.9195 155.878 33.7164 156.833 33.7115C157.624 33.7115 158.344 33.4391 159.063 33.2558C159.995 33.0197 160.861 32.4914 161.725 32.0325C162.758 31.4827 163.249 30.5945 163.236 29.4124C163.234 28.5886 162.86 27.9002 162.428 27.2497ZM160.926 30.3089C160.181 30.9693 159.365 31.4778 158.335 31.5702C158.011 31.6239 157.69 31.6994 157.375 31.7964C156.878 31.912 156.365 32.0209 155.861 32.1266C155.861 32.0985 155.849 32.0721 155.843 32.044C155.677 32.044 155.511 32.044 155.345 32.044C154.941 32.0275 154.979 32.0275 155.014 31.6363C155.048 31.245 155.093 30.7976 154.975 30.4261C154.493 28.899 154.516 27.357 154.667 25.7903C154.737 25.0672 154.889 24.3044 154.488 23.611C154.463 23.5665 154.508 23.4641 154.548 23.4063C154.568 23.3913 154.593 23.3816 154.618 23.3782C154.643 23.3747 154.669 23.3776 154.693 23.3865C155.378 23.7051 156.068 24.0122 156.738 24.3589C157.398 24.6766 158.035 25.039 158.646 25.4436C159.806 26.2558 160.636 27.3636 161.299 28.5919C161.581 29.1153 161.379 29.9061 160.926 30.3089Z" fill="white"/>
<path d="M164.032 30.058C164.099 28.4946 164.168 27.291 164.198 26.0858C164.198 25.6566 164.089 25.2273 164.046 24.7964C164.017 24.524 164.046 24.245 164.002 23.971C163.972 23.7947 164.003 23.6133 164.09 23.4568C164.177 23.3003 164.315 23.1783 164.482 23.1108C164.89 22.9012 165.17 22.6783 164.88 22.1566C164.787 21.9915 164.843 21.724 164.867 21.5061C164.889 21.1759 165.041 20.8676 165.289 20.647C165.536 20.4265 165.861 20.3111 166.193 20.3257C166.33 20.322 166.464 20.3645 166.573 20.4462C167.21 21.0323 168.051 20.991 168.81 21.1594C169.556 21.3095 170.293 21.498 171.019 21.724C171.93 22.0101 172.817 22.3655 173.673 22.7873C174.468 23.2104 175.16 23.8022 175.701 24.5207C176.199 25.1448 176.018 26.1354 175.326 26.733C174.252 27.6592 173.048 28.3328 171.577 28.3938C171.451 28.4158 171.328 28.4535 171.212 28.5061C171.256 28.6342 171.321 28.7542 171.404 28.8611C171.925 29.3266 172.46 29.774 172.99 30.2297C173.587 30.7464 174.172 31.278 174.782 31.7783C175.393 32.2785 175.364 32.924 175.28 33.586C175.265 33.6983 175.086 33.8436 174.958 33.875C174.824 33.9118 174.683 33.9133 174.548 33.8795C174.414 33.8456 174.29 33.7775 174.19 33.6818C173.953 33.4589 173.664 33.2773 173.477 33.0214C172.868 32.196 172.038 31.628 171.233 31.0205C170.129 30.1868 169.047 29.3217 167.961 28.4648C167.749 28.2948 167.548 28.1117 167.359 27.9167C167.166 27.7023 167.038 27.4383 166.989 27.1548C166.94 26.8713 166.973 26.5798 167.082 26.3137C167.364 25.721 168.056 25.546 168.696 25.9471C169.051 26.2007 169.454 26.3799 169.88 26.4738C170.819 26.6389 171.742 26.4309 172.669 26.3896C172.955 26.3764 173.257 26.1238 173.499 25.9207C174.026 25.475 173.786 24.9467 173.391 24.6809C172.946 24.3804 172.505 24.0601 171.981 23.8802C171.029 23.55 170.102 23.1224 169.127 22.8995C168.102 22.6468 167.023 22.7219 166.044 23.1141C165.823 23.2033 165.835 23.3453 165.891 23.5021C165.925 23.5979 166.036 23.6672 166.085 23.7613C166.251 24.075 166.372 24.3738 166.251 24.7684C166.145 25.1266 166.205 25.5328 166.165 25.9141C166.125 26.2955 166.022 26.6686 165.999 27.0483C165.948 28.2238 165.905 29.4009 165.905 30.5797C165.905 30.7976 166.112 31.0172 166.236 31.2401C166.431 31.5717 166.532 31.9496 166.528 32.3337C166.524 32.7178 166.415 33.0935 166.213 33.421C165.961 33.8618 165.583 33.9872 165.014 33.903C164.558 33.8353 164.437 33.4886 164.391 33.1386C164.231 31.9896 164.119 30.8455 164.032 30.058Z" fill="white"/>
<path d="M188.187 29.277C187.963 29.1466 187.677 29.1219 187.418 29.0509C187.021 28.9436 186.944 28.8495 186.92 28.4235C186.835 26.5018 186.752 24.5807 186.67 22.6601H186.713V19.6884C186.721 19.5234 186.721 19.3581 186.713 19.1931C186.686 18.9648 186.581 18.7525 186.417 18.5911C186.252 18.4297 186.037 18.3287 185.808 18.3049C185.171 18.257 184.708 18.5228 184.58 19.028C184.445 19.4714 184.346 19.9254 184.287 20.3851C184.166 22.036 183.441 23.4789 182.794 24.9367C182.074 26.5447 180.943 27.9233 180.018 29.4207C179.326 30.54 178.383 31.4497 177.469 32.3825C177.164 32.6945 176.855 33.0032 176.568 33.3301C176.282 33.657 176.212 34.0846 176.393 34.2926C176.617 34.5502 177.001 34.5402 177.439 34.2612C177.487 34.2332 177.53 34.1985 177.578 34.1704C178.408 33.6752 179.071 32.99 179.721 32.2966C179.962 32.0407 180.149 31.9549 180.481 32.011C181.001 32.0985 181.524 32.1167 182.016 31.8459C182.172 31.7919 182.332 31.7505 182.494 31.7221C183.224 31.4745 184.016 31.5801 184.748 31.2697C185.224 31.0667 185.531 31.316 185.577 31.8641C185.618 32.3594 185.564 32.8546 185.577 33.3499C185.565 33.6193 185.612 33.888 185.715 34.1374C185.899 34.4372 186.122 34.7119 186.378 34.9546C186.485 35.071 186.625 35.1527 186.779 35.1891C187.512 35.3162 187.997 34.8407 187.876 34.0697C187.755 33.2987 187.57 32.5195 187.405 31.7452C187.37 31.5801 187.298 31.4348 187.272 31.2747C187.224 30.9841 187.272 30.7447 187.604 30.6143C187.827 30.5086 188.036 30.3773 188.229 30.223C188.66 29.8912 188.662 29.5577 188.187 29.277ZM185.103 29.0228C185.103 29.1879 185.078 29.3266 184.867 29.3976C184.025 29.6579 183.145 29.7762 182.263 29.7476C181.919 29.7476 181.817 29.5825 181.993 29.2787C182.307 28.7438 182.665 28.237 182.972 27.6987C183.521 26.7363 184.045 25.7605 184.582 24.7914C184.621 24.6941 184.684 24.6082 184.766 24.5422C184.824 24.5091 185.005 24.5554 185.013 24.5917C185.051 24.7792 185.069 24.97 185.068 25.1613C185.068 25.7622 185.068 26.3648 185.068 26.9657H185.099C185.104 27.6525 185.108 28.3377 185.103 29.0228Z" fill="white"/>
<path d="M122.134 29.3349C122.007 29.2318 121.864 29.1519 121.709 29.0988C120.907 28.871 120.905 28.8776 120.867 28.0472C120.868 27.9645 120.864 27.8819 120.857 27.7996C120.57 26.0875 120.57 24.3656 120.57 22.6305C120.57 21.5029 120.58 20.3753 120.57 19.2493C120.572 19.0017 120.476 18.7632 120.303 18.5855C120.13 18.4078 119.893 18.3053 119.645 18.3001C118.981 18.2687 118.5 18.589 118.429 19.1387C118.263 20.41 118.033 21.6696 117.573 22.8682C117.241 23.7526 116.847 24.6131 116.396 25.4437C115.754 26.5993 115.052 27.7269 114.329 28.8363C113.436 30.1984 112.378 31.446 111.178 32.551C110.844 32.8716 110.546 33.2269 110.288 33.6109C110.051 33.9526 110.152 34.2498 110.493 34.4363C110.785 34.5915 111.019 34.4363 111.261 34.3059C112.119 33.8436 112.789 33.1502 113.432 32.4552C113.764 32.0953 114.042 31.9352 114.547 32.0243C114.954 32.0684 115.366 32.0365 115.762 31.9302C116.757 31.7238 117.732 31.4778 118.717 31.2484C119.031 31.1757 119.215 31.3029 119.368 31.5901C119.481 31.7808 119.554 31.9924 119.582 32.2121C119.611 32.4317 119.594 32.6549 119.533 32.8679C119.22 33.7974 119.734 34.4 120.28 34.9811C120.694 35.4219 121.366 35.2948 121.683 34.7797C121.767 34.6546 121.824 34.5133 121.85 34.3649C121.877 34.2165 121.872 34.0642 121.835 33.9179C121.638 33.1222 121.474 32.3198 121.285 31.5241C121.142 30.9182 121.16 30.8505 121.668 30.5137C121.834 30.408 121.999 30.3205 122.152 30.2033C122.495 29.9194 122.492 29.6024 122.134 29.3349ZM118.018 29.5908C117.366 29.6943 116.707 29.7457 116.047 29.7444C115.77 29.7559 115.686 29.538 115.86 29.2937C116.708 28.0988 117.464 26.8422 118.122 25.5345C118.268 25.2423 118.359 24.922 118.504 24.6298C118.54 24.5571 118.686 24.5257 118.787 24.5059C118.809 24.5059 118.882 24.6281 118.888 24.6991C118.915 24.9996 118.925 25.3017 118.941 25.6038H118.911C118.965 26.5019 119.042 27.4 119.064 28.2981C119.089 29.3333 119.077 29.3762 118.018 29.5908Z" fill="white"/>
<path d="M191.527 25.7045C191.603 27.0467 191.665 28.3889 191.766 29.7278C191.821 30.0779 191.919 30.4199 192.058 30.7465C192.093 30.7685 192.133 30.782 192.174 30.786C192.216 30.79 192.258 30.7844 192.297 30.7696C192.487 30.5836 192.661 30.382 192.817 30.167C193.147 29.7329 193.448 29.2785 193.72 28.8066C193.979 28.3008 194.197 27.7746 194.37 27.2333C194.437 27.0366 194.519 26.8451 194.615 26.6604C194.814 26.2526 195.113 25.9719 195.537 26C196.035 26.0281 196.517 26.6356 196.542 27.1557C196.564 27.5932 196.542 28.034 196.531 28.4764C196.531 29.2458 196.511 30.0167 196.531 30.7877C196.537 30.862 196.558 30.9343 196.593 31.0003C196.628 31.0664 196.675 31.1249 196.733 31.1724C196.784 31.212 196.998 31.1196 197.079 31.0304C197.318 30.7695 197.54 30.4938 197.743 30.205C198.463 29.1814 199.262 28.2238 199.856 27.1028C200.383 26.1123 201.045 25.1844 201.634 24.2236C201.831 23.9017 202.075 23.5748 202.146 23.2215C202.282 22.5512 202.809 22.325 203.297 22.0361C203.331 22.0108 203.372 21.9959 203.415 21.9933C203.458 21.9907 203.501 22.0004 203.538 22.0214C203.575 22.0423 203.606 22.0735 203.626 22.1113C203.646 22.1491 203.654 22.1917 203.65 22.2342C203.665 22.8385 203.677 23.4427 203.65 24.0502C203.632 24.2429 203.555 24.4255 203.43 24.5736C202.58 25.5642 202.005 26.7413 201.335 27.8524C200.528 29.1918 199.638 30.4798 198.67 31.709C198.114 32.4139 197.547 33.104 196.68 33.4903C196.603 33.5313 196.517 33.552 196.43 33.5506C196.343 33.5491 196.258 33.5256 196.182 33.4821C195.288 33.1354 194.912 32.4189 194.715 31.562C194.673 31.3771 194.691 31.1774 194.665 30.9875C194.641 30.9162 194.604 30.8497 194.557 30.791C194.486 30.821 194.421 30.8616 194.363 30.9116C193.754 31.6413 193.167 32.3974 192.539 33.1007C192.297 33.3844 191.997 33.6139 191.66 33.7743C190.821 34.1457 189.787 33.279 189.965 32.3198C190.028 31.8913 190.023 31.4557 189.95 31.0288C189.867 30.3222 189.913 29.6007 189.872 28.8825C189.834 28.5328 189.776 28.1855 189.698 27.8425C189.698 27.816 189.666 27.7913 189.668 27.7665C189.695 26.5035 189.078 25.3132 189.235 24.0354C189.306 23.4559 189.432 22.9144 190.053 22.642C190.807 22.3118 191.545 22.7312 191.575 23.5566C191.603 24.2715 191.575 24.9863 191.575 25.7028L191.527 25.7045Z" fill="white"/>
<path d="M104.897 33.8914C103.793 33.8914 102.687 33.8914 101.581 33.8914C100.838 33.9106 100.101 33.7609 99.4247 33.4539C98.9951 33.2524 98.5192 33.1237 98.078 32.9041C97.083 32.3956 96.2438 31.7237 95.675 30.7579C95.1774 29.9324 94.9088 29.0492 95.0995 28.0404C95.2907 27.1628 95.5904 26.3122 95.9917 25.5079C96.2224 25.0788 96.5005 24.6768 96.8209 24.3093C97.5699 23.3413 98.5506 22.5756 99.6734 22.0822C99.8252 22.0212 99.9874 21.9904 100.151 21.9914C100.593 21.9737 101.036 21.9792 101.478 22.0079C101.758 22.031 101.975 22.0508 102.229 21.8428C102.483 21.6348 102.79 21.6645 103.007 21.927C103.139 22.0673 103.236 22.2371 103.289 22.4223C103.404 22.9284 103.622 23.4058 103.929 23.8256C104.413 24.5437 104.473 25.356 104.485 26.1782C104.462 26.3956 104.411 26.6093 104.334 26.8138C104.247 27.1324 103.984 27.2232 103.705 27.2496C103.461 27.2637 103.219 27.1952 103.019 27.0552C102.82 26.9152 102.673 26.712 102.604 26.4786C102.453 26.0131 102.325 25.5393 102.174 25.0737C102.128 24.9189 102.058 24.7723 101.965 24.6395C101.204 23.6126 100.216 23.5235 99.219 24.3522C98.334 25.0927 97.6445 26.0376 97.2107 27.1043C97.0677 27.4229 96.9566 27.7547 96.879 28.0949C96.6767 29.1036 97.1725 29.8961 97.8127 30.5713C98.2661 31.0427 98.812 31.4164 99.4164 31.6692C100.545 32.1481 101.763 32.3843 102.99 32.3626C105.035 32.351 107.08 32.3626 109.126 32.3626C109.347 32.3419 109.57 32.3475 109.79 32.3791C109.956 32.422 110.199 32.5442 110.228 32.6763C110.28 32.9056 110.24 33.1462 110.117 33.3465C109.815 33.7263 109.359 33.8649 108.876 33.8732C107.992 33.8881 107.108 33.8947 106.223 33.9029C105.781 33.9029 105.339 33.9029 104.896 33.9029L104.897 33.8914Z" fill="white"/>
<path d="M94.2277 23.6936C94.4035 24.2879 93.9043 24.5587 93.4897 24.8641C92.7434 25.4155 91.9557 25.9141 91.2442 26.5051C90.6493 27.0266 90.0861 27.5828 89.5576 28.1709C89.2491 28.5011 89.2724 28.9865 89.6156 29.4289C90.2989 30.3072 90.9971 31.1773 91.702 32.0391C92.2874 32.7539 92.8778 33.4671 93.493 34.1556C93.7358 34.4124 93.8796 34.7462 93.8994 35.0982C93.9133 35.2643 93.8741 35.4306 93.7874 35.5732C93.7007 35.7158 93.571 35.8275 93.4168 35.8923C93.2753 35.9762 93.1104 36.0123 92.9467 35.9953C92.7829 35.9784 92.6291 35.9092 92.5079 35.7982C91.647 35.091 90.8787 34.279 90.221 33.3813C89.9225 32.957 89.5758 32.569 89.2541 32.1612C88.8694 31.6659 88.478 31.1839 88.1048 30.6754C87.7118 30.1454 87.662 30.1372 87.2043 30.5796C86.5848 31.1633 86.1369 31.9042 85.9091 32.7225C85.8363 33.0141 85.6879 33.2815 85.4786 33.498C85.2693 33.7144 85.0066 33.8723 84.7167 33.9558C84.5496 34.0227 84.3656 34.0358 84.1907 33.9931C84.0157 33.9505 83.8586 33.8543 83.7415 33.7181C83.443 33.3994 83.2788 33.0082 83.5126 32.5905C83.7221 32.2079 83.9681 31.8463 84.2473 31.5108C84.8593 30.7876 85.5011 30.0893 86.1346 29.3843C86.4895 28.9881 86.5625 28.724 86.264 28.2799C85.9024 27.7417 85.4729 27.2447 85.0583 26.7428C84.6968 26.307 84.2772 25.9174 83.9505 25.4535C83.5508 24.8905 83.9239 24.1707 84.6138 24.0997C84.8561 24.0674 85.1025 24.0894 85.3352 24.1639C85.5679 24.2385 85.7809 24.3637 85.9588 24.5306C86.6106 25.0936 87.0268 25.8216 87.5542 26.4688C88.1396 27.1853 88.1728 27.1523 88.9025 26.5761C89.0868 26.4611 89.2473 26.3121 89.3752 26.1369C89.6737 25.5938 90.1115 25.2273 90.6107 24.8641C91.1514 24.4728 91.566 23.9131 92.0486 23.441C92.493 23.0084 92.9823 22.7013 93.6605 22.7971C94.1581 22.8681 94.1995 22.8598 94.2277 23.3865C94.2327 23.4608 94.2277 23.54 94.2277 23.6936Z" fill="white"/>
<path d="M137.436 25.4469C137.159 25.4432 136.881 25.4626 136.607 25.5047C135.66 25.7243 135.166 25.3644 135.167 24.4002C135.167 24.146 135.036 23.8043 135.356 23.6623C135.736 23.4972 136.101 23.1406 136.58 23.4196C137.224 23.7944 137.927 23.6028 138.605 23.6177C138.761 23.5949 138.904 23.5225 139.015 23.4113C139.177 23.2634 139.377 23.1637 139.593 23.1234C139.809 23.0831 140.032 23.104 140.237 23.1835C140.605 23.2824 140.988 23.3099 141.366 23.2644C141.777 23.2221 142.18 23.1278 142.566 22.9837C143.128 22.779 143.702 22.8286 144.277 22.7939C144.924 22.7559 145.106 23.2661 145.348 23.6689C145.557 24.0238 145.433 24.3887 145.144 24.7172C144.677 25.2505 144.282 25.4205 143.72 25.1514C142.947 24.78 142.144 24.884 141.375 25.0243C140.159 25.2455 140.184 25.2984 139.973 26.563C139.781 27.7186 139.534 28.866 139.342 30.03C139.279 30.4673 139.255 30.9092 139.27 31.3507C139.27 31.9583 139.436 32.0953 140.03 31.9401C140.814 31.7321 141.61 31.7568 142.408 31.7337C142.796 31.7391 143.173 31.8592 143.493 32.0788C143.573 32.1199 143.641 32.1805 143.691 32.255C143.742 32.3295 143.772 32.4154 143.781 32.5048C143.789 32.5942 143.774 32.6842 143.738 32.7664C143.702 32.8487 143.645 32.9205 143.574 32.9752C143.43 33.0969 143.259 33.1844 143.076 33.2311C142.388 33.3962 141.698 33.5613 141.002 33.6852C140.463 33.7842 139.841 33.6851 139.386 33.9361C138.677 34.3208 137.998 34.2745 137.264 34.2168C136.892 34.1887 136.511 34.3637 136.129 34.3918C135.358 34.4495 135.091 34.2762 134.802 33.5778C134.745 33.4559 134.719 33.3211 134.729 33.1866C134.826 32.6252 135.567 32.0309 136.144 32.0408C136.282 32.0408 136.419 32.0524 136.557 32.0672C137.315 32.1448 137.497 32.0474 137.648 31.3425C137.837 30.4609 138.06 29.5892 138.222 28.701C138.348 28.0059 138.436 27.3026 138.565 26.6076C138.595 26.4739 138.612 26.3381 138.618 26.2014C138.618 25.7061 138.439 25.5113 137.935 25.48C137.769 25.4684 137.604 25.48 137.438 25.48L137.436 25.4469Z" fill="white"/>
<path d="M72.1438 28.5786V24.0452C72.1438 23.852 72.1438 23.6605 72.1438 23.4673C72.1384 23.4198 72.1436 23.3716 72.1588 23.3262C72.174 23.2807 72.199 23.2391 72.2319 23.2043C72.2649 23.1694 72.3051 23.1421 72.3497 23.1242C72.3944 23.1064 72.4424 23.0984 72.4904 23.1008C72.6279 23.0918 72.7659 23.0918 72.9034 23.1008C74.0294 23.228 75.0742 22.9176 76.1174 22.5494C77.0942 22.206 78.0959 21.889 79.1324 21.8412C80.0197 21.7966 80.9434 21.8115 81.62 22.5626C81.8788 22.8466 82.0363 23.7728 81.8655 24.1013C81.6947 24.4298 81.1872 24.5966 80.95 24.3192C80.0926 23.3287 79.0246 23.6209 77.9748 23.7612C77.7028 23.7959 77.4358 23.8702 77.1655 23.9263C76.2202 24.1063 75.3413 24.4843 74.4772 24.8739C73.9133 25.1249 73.5999 25.4914 73.648 26.1353C73.6646 26.4918 73.6613 26.8489 73.638 27.2051C73.6281 27.494 73.7707 27.5666 74.041 27.5831C75.2749 27.6574 76.4292 27.3289 77.5851 26.9673C78.923 26.5419 80.3301 26.3739 81.7312 26.4721C81.9779 26.4859 82.2178 26.5583 82.4307 26.6832C82.6436 26.8081 82.8234 26.982 82.9551 27.1902C83.2354 27.6079 83.2221 27.8027 82.9236 28.1362C82.6582 28.4317 82.426 28.5192 82.0529 28.2897C81.766 28.1098 81.4857 28.1246 81.1905 28.1015C79.8737 27.9909 78.6448 28.3013 77.4375 28.8032C76.8371 29.0525 76.1904 29.1961 75.5668 29.3942C75.409 29.4352 75.2581 29.4992 75.119 29.5841C74.7442 29.8499 74.3478 30.0117 73.8818 29.9143C73.5601 29.8449 73.4191 30.0199 73.3661 30.294C73.3233 30.5078 73.2995 30.7249 73.2948 30.9428C73.2948 31.6032 73.3113 32.2635 73.2948 32.9239C73.2815 33.51 72.9946 33.8749 72.4821 34.0152C72.2848 34.0697 72.1504 33.9937 72.1405 33.7857C72.1305 33.5777 72.1289 33.4027 72.1289 33.2095L72.1438 28.5786Z" fill="white"/>
<path d="M132.498 34.2001C132.188 34.1572 131.755 34.0763 131.319 34.0466C130.878 33.9941 130.433 33.9941 129.992 34.0466C128.7 34.2662 127.403 34.1886 126.115 34.1308C125.286 34.0928 124.422 33.9657 123.723 33.3796C123.53 33.2304 123.369 33.0435 123.25 32.8304C123.131 32.6172 123.057 32.3823 123.032 32.1398C122.946 31.3222 123.08 30.4967 123.42 29.7476C123.864 28.7851 124.155 27.7532 124.581 26.7759C124.984 25.8645 125.067 24.8492 125.606 23.9693C125.814 23.5829 125.868 23.1323 125.757 22.708C125.566 21.899 126.345 21.199 127.151 21.3641C127.501 21.4367 127.577 21.6002 127.586 22.0245C127.599 22.7228 127.319 23.3452 127.15 24.0056C126.722 25.6565 126.106 27.2563 125.491 28.8511C125.219 29.5561 124.939 30.2759 125.019 31.0749C125.073 31.6098 125.297 31.9268 125.821 32.0292C126.3 32.1472 126.786 32.2332 127.276 32.2867C127.77 32.2926 128.263 32.2639 128.753 32.2009C129.325 32.153 129.896 32.0787 130.47 32.0358C130.967 32.0027 131.465 32.0275 131.962 31.9895C132.792 31.9268 133.362 32.3676 133.919 32.8711C134.151 33.0825 134.234 33.3483 134.085 33.6108C133.936 33.8733 133.808 34.2299 133.375 34.1952C133.125 34.1836 132.876 34.2001 132.498 34.2001Z" fill="white"/>
<path d="M76.0497 31.6297C76.9751 31.5208 77.8972 31.392 78.8243 31.3094C79.6701 31.2352 80.5192 31.1642 81.3583 31.43C81.6668 31.5274 82.0084 31.5158 82.3302 31.5802C82.4673 31.6024 82.5934 31.6686 82.6892 31.7687C82.785 31.8689 82.8453 31.9975 82.8609 32.1349C82.8641 32.3445 82.793 32.5485 82.6602 32.7111C82.5354 32.8153 82.375 32.8674 82.2124 32.8564C80.4479 32.8564 78.7297 33.2741 76.9785 33.4028C76.471 33.4408 75.9834 33.6571 75.4726 33.776C75.2344 33.8354 74.9913 33.873 74.7462 33.8882C74.5246 33.8948 74.3062 33.834 74.1202 33.714C73.9341 33.594 73.7892 33.4203 73.7047 33.2163C73.6091 33.0027 73.5649 32.7697 73.5759 32.5361C73.5868 32.3024 73.6525 32.0746 73.7677 31.8708C73.8398 31.7524 73.9442 31.6569 74.0686 31.5952C74.1931 31.5335 74.3326 31.5083 74.4709 31.5224C74.995 31.534 75.5174 31.5224 76.0414 31.5224L76.0497 31.6297Z" fill="white"/>
<path d="M99.6266 42.8181C99.5101 42.7093 99.3582 42.646 99.1987 42.6398C99.0067 42.6258 98.8137 42.6325 98.6232 42.6596C98.4059 42.6778 98.1406 42.7933 97.988 42.7058C97.8354 42.6183 97.8388 42.3327 97.7724 42.133C97.7625 42.1065 97.7509 42.0818 97.7409 42.057C97.7205 41.9616 97.6639 41.8777 97.5831 41.8227C97.5022 41.7677 97.4031 41.7458 97.3064 41.7615C97.0411 41.7896 97.0444 41.9844 97.0294 42.1841C96.9714 43.0096 96.9681 43.0096 96.1555 43.0971C96.0999 43.0933 96.0441 43.0972 95.9896 43.1087C95.6861 43.2407 95.4921 43.2176 95.2516 42.9073C94.8304 42.3773 94.2085 42.3393 93.6064 42.6596C92.9232 43.0261 92.5716 43.6386 92.3776 44.3419C92.2978 44.6231 92.3124 44.9225 92.4193 45.1946C92.5262 45.4666 92.7194 45.6965 92.9696 45.8492C93.3276 46.052 93.722 46.1832 94.1305 46.2355C94.9332 46.3198 95.7127 46.0969 96.4905 45.9054C96.5684 45.8856 96.6745 45.8608 96.7061 45.8047C96.7766 45.696 96.8135 45.5691 96.8122 45.4398C96.7918 45.3931 96.7598 45.3524 96.7192 45.3214C96.6785 45.2905 96.6306 45.2705 96.58 45.2631C96.2483 45.278 95.9266 45.3242 95.5999 45.3655C95.1411 45.4475 94.6783 45.5059 94.2134 45.5405C93.696 45.5521 93.3394 45.2252 93.1122 44.791C93.068 44.6404 93.0828 44.4787 93.1537 44.3386C93.1703 44.2973 93.3958 44.3089 93.5103 44.3386C94.2101 44.5615 94.8635 44.6143 95.3544 43.9242C95.3988 43.8762 95.4565 43.8423 95.5203 43.8268C95.8984 44.2577 96.2881 43.9094 96.6663 43.8433C97.0444 43.7773 97.1323 43.8301 97.1638 44.1735C97.1953 44.4723 97.1505 44.786 97.2235 45.0733C97.2618 45.1532 97.3183 45.223 97.3886 45.2772C97.4588 45.3314 97.5409 45.3684 97.6281 45.3853C97.7343 45.4035 97.9233 45.24 97.9847 45.1146C98.032 44.9589 98.036 44.7935 97.9963 44.6358C97.9698 44.4476 97.8835 44.2676 97.862 44.0794C97.8139 43.6634 97.8952 43.5297 98.3064 43.4471C98.7526 43.3563 99.2103 43.3117 99.663 43.2473C99.6581 43.1054 99.6995 42.9221 99.6266 42.8181ZM94.643 43.5924C94.619 43.6082 94.5934 43.6215 94.5667 43.632C94.477 43.6697 94.3844 43.7 94.2897 43.7228C94.1216 43.7637 93.9485 43.781 93.7756 43.774C93.6562 43.774 93.4224 43.7856 93.4141 43.6221C93.4112 43.575 93.4234 43.5282 93.4489 43.4884C93.4822 43.4404 93.5258 43.4003 93.5766 43.3712C93.7376 43.2627 93.9121 43.1756 94.0957 43.112C94.1665 43.0789 94.2438 43.0618 94.3221 43.0618C94.4003 43.0618 94.4776 43.0789 94.5484 43.112C94.6096 43.1538 94.6587 43.2107 94.6911 43.2771C94.7107 43.3103 94.7247 43.3466 94.7325 43.3844C94.7376 43.4239 94.732 43.464 94.7162 43.5005C94.7005 43.5371 94.6752 43.5688 94.643 43.5924Z" fill="white"/>
<path d="M99.6587 43.282V43.2589H99.6836L99.6587 43.282Z" fill="white"/>
<path d="M122.715 43.5907C123.047 43.3893 123.027 43.0591 123.047 42.7355C123.098 42.0537 123.165 41.3752 123.228 40.695C123.229 40.5828 123.247 40.4714 123.282 40.3648C123.369 40.1568 123.503 39.9273 123.755 40.0131C123.834 40.0563 123.901 40.1175 123.951 40.1915C124.001 40.2656 124.033 40.3504 124.044 40.4391C124.072 41.2645 124.185 42.09 123.866 42.8792C123.7 43.3001 123.866 43.6815 123.976 44.0711C124.075 44.4112 124.203 44.7447 124.289 45.0881C124.291 45.1392 124.281 45.19 124.258 45.2359C124.236 45.2818 124.202 45.3212 124.16 45.3506C124.113 45.368 124.062 45.373 124.012 45.3652C123.962 45.3574 123.916 45.337 123.876 45.306C123.722 45.1161 123.582 44.9147 123.458 44.7034C123.251 44.3634 123.221 44.3567 122.938 44.6638C122.863 44.7447 122.803 44.8388 122.73 44.9197C122.168 45.557 121.496 45.6626 120.77 45.2202C120.647 45.1442 120.554 45.0435 120.438 45.202C120.185 45.5322 119.997 45.3556 119.899 45.0947C119.757 44.7133 119.679 44.3072 119.556 43.9176C119.458 43.6089 119.307 43.5593 119.103 43.7954C118.806 44.1512 118.529 44.5233 118.274 44.9098C118.161 45.0749 118.065 45.2994 117.853 45.1806C117.761 45.1302 117.682 45.0605 117.62 44.9764C117.559 44.8922 117.516 44.7957 117.496 44.6935C117.496 44.1744 117.537 43.6561 117.617 43.1433C117.635 43.0704 117.669 43.0026 117.717 42.9452C117.766 42.8879 117.827 42.8426 117.896 42.8131C117.971 42.8128 118.045 42.8311 118.111 42.8662C118.177 42.9014 118.233 42.9524 118.274 43.0145C118.427 43.3034 118.556 43.3051 118.737 43.0575C118.786 42.9904 118.841 42.9285 118.903 42.8726C119.375 42.445 119.83 42.5242 120.063 43.1235C120.199 43.4735 120.218 43.8681 120.296 44.2412C120.315 44.2904 120.343 44.3362 120.377 44.3766C120.432 44.332 120.543 44.2858 120.543 44.2461C120.505 43.6402 120.891 43.2869 121.309 42.9584C121.478 42.8437 121.676 42.7771 121.88 42.7658C122.085 42.7544 122.289 42.7988 122.47 42.894C122.757 43.0591 122.782 43.32 122.748 43.6056C122.592 43.5586 122.433 43.5194 122.272 43.4883C122.043 43.4586 121.81 43.5164 121.621 43.6502C121.432 43.784 121.301 43.9839 121.254 44.2098C121.188 44.573 121.42 44.7909 121.78 44.6688C122.284 44.4938 122.675 44.1917 122.715 43.5907Z" fill="white"/>
<path d="M178.793 43.4207C178.647 43.4651 178.494 43.4788 178.343 43.4609C178.192 43.443 178.046 43.3939 177.915 43.3167C177.822 43.2577 177.722 43.2106 177.617 43.1763C176.977 42.9634 176.531 43.2523 176.466 43.9308C176.453 44.1511 176.459 44.372 176.484 44.5912C176.484 44.6985 176.561 44.8009 176.564 44.9082C176.575 45.1938 176.345 45.5504 176.146 45.5438C175.829 45.5339 175.774 45.2582 175.688 45.0337C175.663 44.9253 175.649 44.8147 175.645 44.7035C175.617 44.5384 175.58 44.3733 175.547 44.1983C175.444 44.3584 175.357 44.5282 175.287 44.7051C175.112 45.283 174.953 45.8641 174.809 46.4485C174.73 46.7672 174.745 47.1188 174.624 47.416C174.242 48.3521 173.925 48.3851 173.297 47.8898C173.071 47.7347 172.855 47.566 172.65 47.3846C172.449 47.1815 172.492 46.9273 172.705 46.7325C172.917 46.5377 173.085 46.5938 173.287 46.7573C173.993 47.3285 173.995 47.3235 174.156 46.47C174.181 46.3346 174.234 46.2058 174.257 46.0705C174.385 45.3407 174.343 45.3011 173.615 45.2697C173.347 45.2582 173.02 45.2697 172.821 45.1228C172.214 44.6853 171.91 44.1752 172.617 43.5032C172.949 43.1896 173.3 42.9271 173.778 42.937C173.994 42.9422 174.204 43.0074 174.385 43.1252C174.478 43.1912 174.497 43.4223 174.473 43.5643C174.459 43.6337 174.247 43.7294 174.158 43.7096C173.826 43.6139 173.56 43.7558 173.313 43.9341C173.066 44.1124 173.108 44.3881 173.388 44.5087C173.609 44.5885 173.85 44.5922 174.073 44.5191C174.296 44.4461 174.488 44.3005 174.619 44.1058C174.688 43.9903 174.7 43.8367 174.784 43.7311C174.95 43.5148 175.151 43.3695 175.408 43.5973C175.697 43.8516 175.756 43.6931 175.798 43.4141C175.934 42.5275 176.836 42.0372 177.771 42.4714C178.201 42.6712 178.72 42.8396 178.781 43.4438L178.793 43.4207Z" fill="white"/>
<path d="M138.115 43.8795C138.115 43.6319 138.115 43.3843 138.115 43.1383C138.115 42.8163 138.337 42.709 138.583 42.6529C138.798 42.6034 139.012 42.8411 138.994 43.1482C138.976 43.4553 138.881 43.7904 138.828 44.114C138.832 44.1937 138.85 44.2721 138.883 44.3451C138.954 44.3097 139.021 44.2647 139.08 44.2114C139.127 44.1438 139.169 44.0732 139.206 44.0001C139.634 43.4107 139.889 43.4123 140.261 44.0496C140.413 44.3088 140.536 44.2807 140.69 44.0958C140.954 43.7805 141.206 43.4536 141.46 43.13C141.561 42.9996 141.642 42.8543 141.753 42.7338C142.171 42.2748 142.389 42.2897 142.748 42.813C142.858 42.9877 142.958 43.1685 143.047 43.3545L143.528 42.9104C144.025 42.4399 144.437 42.4663 144.676 43.0953C144.904 43.6996 144.991 44.36 145.102 45.0038C145.12 45.1079 144.936 45.2465 144.846 45.3703C144.745 45.2928 144.594 45.2366 144.551 45.1343C144.442 44.8554 144.352 44.5697 144.281 44.2791C144.258 44.118 144.224 43.9586 144.18 43.802C144.103 43.6253 143.936 43.5444 143.793 43.7194C143.482 44.1008 143.203 44.5086 142.899 44.8982C142.796 45.0124 142.686 45.1194 142.568 45.2185C142.43 45.0534 142.226 44.918 142.176 44.7347C142.127 44.5515 142.236 44.3071 142.249 44.0909C142.251 43.9017 142.241 43.7127 142.221 43.5246C142.069 43.6222 141.926 43.7327 141.793 43.8548C141.627 44.0331 141.5 44.251 141.336 44.4343C141.1 44.703 140.85 44.9592 140.588 45.202C140.362 45.4067 140.09 45.4711 139.856 45.2102C139.659 44.989 139.525 44.951 139.261 45.1722C138.644 45.6873 138.209 45.4942 138.123 44.6951C138.108 44.4202 138.108 44.1446 138.123 43.8696L138.115 43.8795Z" fill="white"/>
<path d="M164.508 43.589C164.866 43.3677 164.828 43.0045 164.854 42.6562C164.906 41.9727 164.979 41.2925 165.043 40.6107C165.047 40.5287 165.064 40.4479 165.093 40.3713C165.184 40.1649 165.314 39.9305 165.567 40.0213C165.646 40.0658 165.714 40.1279 165.764 40.2026C165.815 40.2774 165.847 40.3628 165.859 40.4522C165.914 41.2397 165.979 42.0239 165.705 42.8015C165.493 43.4074 165.748 43.9901 165.954 44.5597C165.99 44.6621 166.068 44.7479 166.12 44.8486C166.204 45.0451 166.194 45.2399 165.999 45.3555C165.765 45.4925 165.667 45.2861 165.534 45.1458C165.344 44.9328 165.385 44.4574 165.025 44.4937C164.818 44.5151 164.65 44.8602 164.455 45.0484C163.912 45.5668 163.169 45.6873 162.727 45.3373C162.284 44.9873 162.209 43.9637 162.632 43.4338C162.917 43.0755 163.226 42.709 163.793 42.7734C164.36 42.8378 164.499 42.9864 164.536 43.6137C164.403 43.5807 164.272 43.5378 164.138 43.5147C163.907 43.4729 163.669 43.52 163.471 43.6466C163.274 43.7732 163.132 43.9698 163.075 44.1965C162.979 44.5432 163.241 44.8321 163.572 44.7066C164.078 44.5069 164.473 44.1932 164.508 43.589Z" fill="white"/>
<path d="M128.853 43.589C129.172 43.3777 129.158 43.0475 129.185 42.7206C129.236 42.0405 129.304 41.3603 129.372 40.6817C129.374 40.5451 129.409 40.4109 129.473 40.2905C129.561 40.1683 129.747 39.9883 129.827 40.0164C129.978 40.0676 130.185 40.2475 130.188 40.378C130.203 41.0879 130.319 41.8506 130.1 42.4945C129.85 43.2275 130.014 43.8235 130.238 44.464C130.326 44.6339 130.404 44.8086 130.472 44.9874C130.48 45.0503 130.473 45.1143 130.451 45.174C130.43 45.2338 130.394 45.2875 130.347 45.3308C130.29 45.3534 130.227 45.3615 130.166 45.3543C130.104 45.3471 130.045 45.3248 129.994 45.2895C129.865 45.1504 129.759 44.9915 129.681 44.819C129.425 44.3419 129.357 44.3121 129.017 44.7546C128.875 44.9554 128.693 45.1261 128.484 45.2568C128.274 45.3874 128.041 45.4754 127.797 45.5157C127.565 45.5627 127.324 45.5189 127.124 45.3935C126.924 45.268 126.78 45.0705 126.722 44.8421C126.631 44.4799 126.656 44.0985 126.794 43.7512C126.932 43.404 127.175 43.1083 127.49 42.9055C127.643 42.812 127.818 42.759 127.997 42.7518C128.176 42.7446 128.355 42.7833 128.515 42.8643C128.832 43.0029 128.938 43.2737 128.873 43.6105C128.74 43.5775 128.608 43.5362 128.473 43.5131C128.271 43.4738 128.062 43.5008 127.876 43.5901C127.691 43.6794 127.54 43.8262 127.445 44.0084C127.356 44.2114 127.289 44.4673 127.513 44.6027C127.595 44.6418 127.683 44.6639 127.774 44.6675C127.864 44.6712 127.954 44.6565 128.039 44.6242C128.257 44.5424 128.448 44.4026 128.592 44.2201C128.735 44.0375 128.826 43.8192 128.853 43.589Z" fill="white"/>
<path d="M86.4823 45.4645C86.0594 45.3604 85.6265 45.2828 85.2169 45.1343C85.0227 45.0462 84.8593 44.9025 84.7475 44.7215C84.7128 44.655 84.6947 44.5811 84.6947 44.5061C84.6947 44.4311 84.7128 44.3572 84.7475 44.2906C84.7742 44.2498 84.8088 44.2145 84.8492 44.187C84.8896 44.1595 84.9351 44.1402 84.983 44.1302C85.0309 44.1202 85.0804 44.1198 85.1285 44.1289C85.1766 44.138 85.2224 44.1565 85.2633 44.1833C85.333 44.2262 85.3993 44.2774 85.4673 44.3237C86.0726 44.7397 86.7393 44.6225 87.3878 44.5102C87.7708 44.4425 87.8239 44.18 87.5254 43.9423C87.2864 43.7588 87.0277 43.6022 86.7542 43.4751C86.3844 43.2918 85.9914 43.1548 85.6248 42.9649C85.4289 42.8672 85.2585 42.7253 85.1273 42.5505C85.0786 42.4845 85.0461 42.4081 85.0323 42.3273C85.0186 42.2466 85.024 42.1637 85.0482 42.0854C85.0724 42.0072 85.1146 41.9356 85.1716 41.8764C85.2285 41.8173 85.2985 41.7722 85.3761 41.7449C86.1705 41.4345 86.9731 41.1439 87.7775 40.8616C87.9403 40.823 88.1078 40.8074 88.275 40.8154C88.4657 40.8055 88.5951 40.8814 88.6067 41.0862C88.6183 41.2909 88.5636 41.4857 88.3082 41.4791C87.6083 41.4626 87.0743 41.9116 86.4557 42.1213C86.2103 42.2055 86.2186 42.392 86.4723 42.5208C86.8405 42.709 87.2385 42.8395 87.5951 43.0425C87.8891 43.1892 88.1481 43.3969 88.3546 43.6517C88.8223 44.327 88.4342 44.8453 87.7294 45.2218C87.5824 45.2989 87.422 45.3477 87.2567 45.3654C87.0113 45.3885 86.7592 45.3654 86.5121 45.3654L86.4823 45.4645Z" fill="white"/>
<path d="M159.57 45.2714C159.298 45.2817 159.026 45.3148 158.759 45.3704C158.325 45.4332 157.894 45.519 157.457 45.5553C156.811 45.6065 156.452 45.1971 156.194 44.6803C156.175 44.633 156.167 44.582 156.172 44.5313C156.176 44.4806 156.192 44.4316 156.219 44.3881C156.257 44.3565 156.302 44.3332 156.35 44.3196C156.399 44.3059 156.449 44.3023 156.499 44.3089C156.607 44.3283 156.711 44.3669 156.806 44.4228C157.156 44.5879 157.509 44.4954 157.849 44.4096C158.047 44.3509 158.221 44.2325 158.348 44.0707C158.476 43.9089 158.549 43.7117 158.559 43.5065C158.579 43.0327 158.393 42.7471 157.93 42.5589C157.764 42.4916 157.585 42.46 157.406 42.466C157.226 42.4719 157.05 42.5154 156.889 42.5935C156.147 42.9122 155.743 43.5032 155.529 44.2445C155.429 44.5444 155.435 44.869 155.545 45.1651C155.656 45.4613 155.864 45.7112 156.136 45.874C156.556 46.1534 157.05 46.3044 157.555 46.3082C158.253 46.1711 158.955 46.049 159.648 45.8855C159.714 45.8519 159.77 45.8021 159.811 45.7409C159.853 45.6796 159.878 45.609 159.884 45.5355C159.858 45.4689 159.816 45.4097 159.761 45.3636C159.706 45.3174 159.641 45.2857 159.57 45.2714ZM156.676 43.5577C156.7 43.4844 156.729 43.4132 156.764 43.3447C156.781 43.31 156.803 43.2778 156.829 43.249C156.862 43.217 156.899 43.1898 156.94 43.1681C157.167 43.039 157.429 42.9814 157.69 43.003C157.749 43.0036 157.806 43.0214 157.855 43.0542C157.892 43.0932 157.918 43.1413 157.93 43.1935C157.942 43.2458 157.94 43.3003 157.923 43.3513C157.915 43.4103 157.893 43.4666 157.86 43.5164C157.81 43.5803 157.741 43.6279 157.663 43.6534C157.457 43.7251 157.241 43.7673 157.023 43.7789L156.764 43.8053C156.719 43.8053 156.655 43.8317 156.63 43.7822C156.605 43.7327 156.658 43.6122 156.676 43.5577Z" fill="white"/>
<path d="M88.715 44.8373C89.0749 43.6569 88.8676 42.4781 88.8808 41.3109C88.8778 41.2021 88.9005 41.094 88.9472 40.9956C89.0202 40.8651 89.1578 40.7908 89.2789 40.9246C89.3944 41.036 89.4799 41.1745 89.5276 41.3274C89.5984 41.6759 89.6493 42.0281 89.6802 42.3823C89.7399 43.0113 89.7581 43.018 90.3436 42.6993C90.929 42.3807 91.5376 42.0257 92.1595 41.7451C92.4199 41.6279 92.745 41.6427 93.0435 41.6312C93.1248 41.6312 93.2923 41.7665 93.2823 41.7963C93.2538 41.9167 93.181 42.0221 93.0783 42.0918C92.4249 42.4319 91.7516 42.7522 91.0998 43.0823C91.0485 43.1024 91.0008 43.1309 90.9589 43.1665C90.7632 43.3647 90.2955 43.3911 90.4232 43.7906C90.531 44.1472 90.7084 44.5418 91.1794 44.5566C91.5244 44.5682 91.6007 44.7432 91.5808 45.0304C91.5509 45.4861 91.2491 45.6462 90.8477 45.4234C90.7271 45.3561 90.6112 45.2805 90.5011 45.1972C89.8809 44.7366 89.8825 44.7349 89.3651 45.2715C89.3217 45.3153 89.2677 45.3473 89.2082 45.3641C89.1487 45.381 89.0859 45.3823 89.0258 45.3678C88.9657 45.3534 88.9103 45.3237 88.8652 45.2816C88.82 45.2396 88.7866 45.1866 88.7681 45.1278C88.7418 45.0327 88.724 44.9355 88.715 44.8373Z" fill="white"/>
<path d="M154.831 44.9264C154.68 45.1361 154.592 45.3606 154.43 45.4514C154.345 45.4821 154.254 45.4928 154.165 45.4825C154.075 45.4722 153.989 45.4412 153.914 45.3919C153.569 45.1245 153.267 44.8026 152.947 44.5037C152.899 44.4614 152.848 44.4223 152.795 44.3865C152.783 44.4394 152.773 44.4938 152.758 44.5516C152.725 44.7374 152.664 44.9172 152.577 45.0849C152.481 45.2203 152.272 45.387 152.148 45.3622C152.023 45.3375 151.897 45.1162 151.798 44.9644C151.779 44.9276 151.768 44.8871 151.766 44.8458C151.764 44.8044 151.772 44.7632 151.788 44.725C152.295 43.703 152.025 42.6415 151.954 41.5882C151.937 41.3273 151.841 41.0153 152.174 40.8651C152.378 40.7726 152.632 41.0483 152.685 41.4858C152.738 41.9233 152.725 42.3641 152.745 42.8066C152.745 42.9717 152.798 43.0641 152.985 42.9502C153.385 42.7075 153.795 42.4797 154.194 42.237C154.677 41.917 155.224 41.7073 155.798 41.6228C155.935 41.6045 156.074 41.6129 156.208 41.6476C156.258 41.6618 156.306 41.6871 156.345 41.7216C156.385 41.7562 156.417 41.7991 156.438 41.8474C156.453 41.9101 156.345 42.0405 156.264 42.0785C155.891 42.2535 155.494 42.3823 155.13 42.5738C154.642 42.8264 154.174 43.1169 153.702 43.3993C153.43 43.5644 153.416 43.7823 153.591 44.0217C153.801 44.3106 154.002 44.5995 154.435 44.5962C154.552 44.5912 154.662 44.7745 154.831 44.9264Z" fill="white"/>
<path d="M189.546 45.7964C189.028 45.8794 188.498 45.7714 188.054 45.4927C187.896 45.3909 187.768 45.2504 187.681 45.0849C187.66 45.0241 187.654 44.9593 187.663 44.8958C187.673 44.8323 187.698 44.772 187.735 44.72C187.785 44.6778 187.842 44.647 187.905 44.6298C187.968 44.6127 188.033 44.6097 188.097 44.621C188.257 44.6631 188.404 44.7404 188.53 44.8472C188.918 45.1559 189.359 45.0997 189.794 45.037C189.862 45.037 189.92 44.9462 189.983 44.8967C189.938 44.8422 189.905 44.7663 189.848 44.7398C189.45 44.5549 189.037 44.3997 188.648 44.2C188.274 44.0274 187.922 43.8137 187.596 43.5627C187.221 43.2474 187.296 42.8726 187.762 42.6729C188.219 42.481 188.687 42.3156 189.163 42.1776C189.323 42.1355 189.49 42.1355 189.649 42.1776C189.761 42.1924 189.862 42.2501 189.932 42.3384C190.001 42.4266 190.033 42.5383 190.021 42.6497C189.989 42.8825 189.79 42.9271 189.583 42.9337C189.24 42.9453 188.883 42.9188 188.633 43.2292C188.91 43.3943 189.182 43.5677 189.462 43.7245C189.817 43.9325 190.187 44.1174 190.528 44.3436C190.675 44.4255 190.79 44.5549 190.853 44.7103C190.917 44.8658 190.925 45.0381 190.877 45.1988C190.774 45.5554 190.5 45.7188 190.13 45.7337C189.931 45.7585 189.739 45.7816 189.546 45.7964Z" fill="white"/>
<path d="M183.225 44.1967C183.209 44.0055 183.209 43.8134 183.225 43.6222C183.275 43.454 183.341 43.2914 183.424 43.1368C183.567 43.2458 183.766 43.3283 183.841 43.467C184.006 43.7972 184.083 43.6238 184.184 43.4439C184.215 43.368 184.25 43.2941 184.29 43.2227C184.58 42.8314 185.023 42.8413 185.169 43.3151C185.335 43.8533 185.449 43.5149 185.61 43.3597C185.65 43.3217 185.685 43.2788 185.723 43.2392C186.22 42.7158 186.665 42.8 186.837 43.4901C186.95 43.9955 187.027 44.5079 187.07 45.0238C187.081 45.1328 186.967 45.354 186.929 45.354C186.783 45.3392 186.569 45.2896 186.517 45.1889C186.401 44.9151 186.31 44.6317 186.244 44.342C186.166 44.0729 186.05 44.0316 185.852 44.2314C185.655 44.4312 185.501 44.654 185.307 44.8455C185.161 44.9908 184.99 45.1889 184.809 45.2071C184.54 45.2335 184.516 44.9413 184.451 44.7366C184.428 44.6606 184.391 44.5896 184.361 44.5154C184.306 44.5668 184.255 44.622 184.207 44.6804C184.084 44.892 183.945 45.0939 183.791 45.2847C183.752 45.3331 183.699 45.3684 183.64 45.3855C183.58 45.4026 183.516 45.4008 183.458 45.3803C183.399 45.3598 183.349 45.3215 183.313 45.271C183.277 45.2204 183.258 45.16 183.258 45.0981C183.243 44.7979 183.243 44.497 183.258 44.1967H183.225Z" fill="white"/>
<path d="M178.768 43.4472L178.791 43.4323C178.791 43.4323 178.791 43.4241 178.791 43.4208L178.768 43.4472ZM182.692 44.8125C182.231 44.5203 181.964 44.0844 181.707 43.6321C181.141 42.6415 180.348 42.4417 179.375 43.0509C179.179 43.1748 178.985 43.3052 178.791 43.4323C178.725 43.8005 178.607 44.1686 178.612 44.5352C178.612 45.0849 178.954 45.3606 179.499 45.4201C180.01 45.4811 180.4 45.255 180.771 44.9611C181.269 44.5682 181.249 44.583 181.677 44.9941C181.896 45.1874 182.152 45.334 182.43 45.425C182.596 45.4844 182.853 45.4498 182.884 45.2104C182.885 45.1338 182.868 45.058 182.835 44.9889C182.802 44.9199 182.753 44.8595 182.692 44.8125ZM180.74 43.6469C180.574 44.1984 180.11 44.621 179.589 44.6094C179.534 44.5764 179.373 44.5318 179.33 44.4361C179.313 44.3742 179.309 44.3093 179.319 44.2457C179.329 44.1822 179.353 44.1216 179.388 44.0679C179.498 43.8776 179.65 43.7144 179.832 43.5903C180.014 43.4663 180.222 43.3846 180.44 43.3514C180.697 43.3217 180.808 43.4142 180.74 43.6469Z" fill="white"/>
<path d="M137.818 44.9345C137.245 44.5894 136.953 44.043 136.649 43.48C136.538 43.2419 136.355 43.0442 136.126 42.9143C135.897 42.7844 135.633 42.7288 135.37 42.7553C134.571 42.6876 134.084 43.1779 133.689 43.7541C133.42 44.1453 133.462 44.5894 133.724 44.9989C133.825 45.1653 133.978 45.2948 134.159 45.3685C134.34 45.4422 134.541 45.4561 134.73 45.4083C135.022 45.3484 135.302 45.242 135.56 45.093C135.792 44.9625 136.009 44.5977 136.188 44.6274C136.429 44.6637 136.636 44.9692 136.842 45.1739C136.949 45.3013 137.096 45.3898 137.259 45.4256C137.422 45.4614 137.592 45.4426 137.744 45.372C137.949 45.2828 138.006 45.0484 137.818 44.9345ZM134.596 44.6043C134.289 44.5729 134.19 44.3666 134.336 44.0876C134.609 43.5675 135.084 43.3942 135.624 43.3364C135.677 43.3364 135.739 43.4057 135.778 43.4305C135.777 44.0611 135.148 44.672 134.593 44.6076L134.596 44.6043Z" fill="white"/>
<path d="M117.174 44.8949C116.676 44.5201 116.391 43.9902 116.083 43.4652C115.816 43.0095 115.433 42.6397 114.859 42.7586C114.089 42.6991 113.6 43.1152 113.219 43.6286C113.095 43.7786 113.013 43.9578 112.98 44.1487C112.947 44.3396 112.964 44.5358 113.029 44.7182C113.278 45.3687 113.988 45.6411 114.688 45.2944C114.948 45.1426 115.188 44.9572 115.399 44.743C115.709 44.4673 115.701 44.4607 115.943 44.743C116.046 44.905 116.174 45.0504 116.321 45.1739C116.524 45.2979 116.75 45.3815 116.985 45.4199C117.05 45.4161 117.114 45.3961 117.17 45.3618C117.226 45.3275 117.272 45.28 117.305 45.2234C117.311 45.1622 117.303 45.1003 117.28 45.0431C117.257 44.9859 117.221 44.935 117.174 44.8949ZM114.111 44.6126C113.801 44.6043 113.675 44.4012 113.807 44.1173C113.904 43.8911 114.066 43.6985 114.273 43.5634C114.479 43.4284 114.721 43.3569 114.968 43.3578C115.063 43.3578 115.161 43.4767 115.23 43.5229C115.179 44.0826 114.587 44.6258 114.111 44.6126Z" fill="white"/>
<path d="M171.999 44.9033C171.44 44.5731 171.204 44.0233 170.899 43.5016C170.632 43.0476 170.251 42.6762 169.665 42.7554C169.33 42.749 168.999 42.828 168.702 42.9849C168.406 43.1418 168.156 43.3714 167.974 43.6519C167.606 44.2611 167.728 45.0023 168.305 45.3028C168.803 45.5604 169.32 45.4679 169.775 45.1229C170.004 44.9446 170.249 44.616 170.465 44.6276C170.68 44.6391 170.916 44.9809 171.128 45.1889C171.216 45.2954 171.334 45.373 171.468 45.4116C171.601 45.4502 171.742 45.4479 171.874 45.4052C172.123 45.3226 172.213 45.0304 171.999 44.9033ZM168.814 44.6111C168.76 44.6138 168.706 44.602 168.658 44.5767C168.609 44.5513 168.569 44.5136 168.54 44.4673C168.512 44.421 168.496 44.3679 168.495 44.3136C168.495 44.2593 168.509 44.2058 168.536 44.1587C168.645 43.91 168.829 43.7004 169.061 43.5579C169.293 43.4154 169.564 43.3468 169.836 43.3613C169.904 43.3696 169.96 43.4818 169.992 43.5148C169.939 44.1059 169.329 44.6507 168.814 44.6111Z" fill="white"/>
<path d="M102.978 43.2407C102.978 42.6926 102.978 42.1429 102.987 41.5898C102.987 41.4825 103.103 41.3785 103.164 41.2745C103.27 41.3421 103.423 41.3851 103.476 41.4825C103.56 41.6533 103.612 41.8379 103.63 42.0273C103.665 42.3261 103.653 42.6299 103.682 42.9304C103.706 43.1896 103.569 43.5445 103.872 43.6601C103.98 43.6997 104.227 43.386 104.408 43.2325C104.977 42.7471 105.511 42.8429 105.765 43.5396C105.94 44.0842 106.072 44.6417 106.159 45.207C106.176 45.2945 106.051 45.4415 105.955 45.5025C105.912 45.5306 105.728 45.4448 105.692 45.3705C105.526 45.0271 105.39 44.6721 105.25 44.3172C105.053 43.8219 104.867 43.7591 104.494 44.1521C104.258 44.4176 104.047 44.705 103.866 45.0106C103.728 45.2301 103.605 45.4596 103.303 45.382C102.952 45.2912 102.972 44.994 102.982 44.7216C102.982 44.2264 102.982 43.7311 102.982 43.2358L102.978 43.2407Z" fill="white"/>
<path d="M112.922 45.2037C112.871 45.2846 112.821 45.4414 112.722 45.4843C112.662 45.4896 112.602 45.4797 112.547 45.4554C112.492 45.4311 112.444 45.3934 112.408 45.3456C112.233 45.0075 112.075 44.6603 111.937 44.3055C111.738 43.8103 111.539 43.7624 111.176 44.1652C110.983 44.3974 110.804 44.6405 110.64 44.8933C110.561 45.0039 110.512 45.1525 110.408 45.2235C110.289 45.3255 110.135 45.3781 109.978 45.3704C109.854 45.3324 109.755 45.1525 109.685 45.0155C109.649 44.9129 109.644 44.8017 109.673 44.6968C109.839 43.8713 109.774 43.0624 109.663 42.2435C109.635 41.9983 109.635 41.7507 109.663 41.5055C109.673 41.4558 109.696 41.4093 109.728 41.3701C109.76 41.331 109.802 41.3004 109.849 41.281C109.9 41.2827 109.951 41.2963 109.996 41.3207C110.041 41.345 110.08 41.3795 110.109 41.4213C110.198 41.5598 110.26 41.7139 110.29 41.8754C110.352 42.2254 110.385 42.5803 110.426 42.9336C110.454 43.1747 110.478 43.4173 110.503 43.66C110.693 43.528 110.892 43.4058 111.073 43.2621C111.736 42.7322 112.265 42.8461 112.541 43.6336C112.695 44.1502 112.822 44.6742 112.922 45.2037Z" fill="white"/>
<path d="M99.6587 43.282C99.9564 43.0476 100.267 42.8299 100.589 42.6299C100.814 42.4879 101.081 42.4282 101.345 42.461C101.609 42.4939 101.853 42.6172 102.035 42.8098C102.162 42.9513 102.253 43.1212 102.299 43.3051C102.337 43.3962 102.339 43.4985 102.303 43.5907C102.268 43.6829 102.198 43.758 102.108 43.8004C102.067 43.8267 102.02 43.8436 101.972 43.8499C101.923 43.8561 101.874 43.8516 101.827 43.8366C101.781 43.8216 101.738 43.7965 101.702 43.7631C101.667 43.7298 101.639 43.6889 101.621 43.6435C101.488 43.419 101.355 43.2193 101.047 43.2968C100.738 43.3744 100.369 43.7657 100.334 44.0398C100.314 44.1643 100.342 44.2917 100.414 44.396C100.485 44.5003 100.593 44.5737 100.717 44.6011C101.136 44.7299 101.566 44.824 101.989 44.9313C102.202 44.9815 102.41 45.05 102.611 45.136C102.656 45.1633 102.694 45.2015 102.72 45.2471C102.747 45.2926 102.762 45.3441 102.763 45.3968C102.712 45.5166 102.631 45.622 102.53 45.7039C102.481 45.7366 102.422 45.7496 102.364 45.7402C101.559 45.7138 100.765 45.6181 100.067 45.1773C99.5991 44.8817 99.4283 44.3683 99.5526 43.8103C99.5941 43.6254 99.6356 43.4388 99.6754 43.2523L99.6587 43.282Z" fill="white"/>
<path d="M50.0142 6.70051C49.8202 6.37032 49.5167 6.01702 49.0623 6.00712C48.8709 6.00048 48.6802 6.03217 48.5014 6.1003C48.3226 6.16842 48.1594 6.2716 48.0215 6.40372C47.8835 6.53583 47.7736 6.69418 47.6983 6.86938C47.6229 7.04458 47.5837 7.23305 47.5829 7.42362C47.5829 7.50617 47.5829 7.58872 47.5829 7.67126H47.5597C47.5763 7.91891 47.5829 8.16654 47.6128 8.41088C47.6244 8.51324 47.6559 8.66678 47.7256 8.70145C48.185 8.93258 48.6559 9.31395 49.1883 9.03164C49.6609 8.77574 50.0656 8.39602 50.5001 8.07079C50.3442 7.60192 50.253 7.10499 50.0142 6.70051ZM49.3508 8.18636C49.171 8.24933 48.9825 8.28387 48.7919 8.28871C48.4602 8.30522 48.3607 8.21772 48.3193 7.82975C48.2745 7.40051 48.2447 7.08188 48.651 6.8557C48.8417 6.75169 49.0341 6.73683 49.1485 6.94485C49.3179 7.21957 49.458 7.51117 49.5664 7.81489C49.6029 7.90239 49.4603 8.11867 49.3442 8.18636H49.3508Z" fill="white"/>
<path d="M149.133 42.2783C149.133 41.5106 149.133 40.7412 149.133 39.9669C149.128 39.8041 149.151 39.6416 149.201 39.4865C149.223 39.436 149.258 39.3925 149.303 39.361C149.349 39.3295 149.402 39.3112 149.457 39.3081C149.512 39.305 149.567 39.3173 149.615 39.3435C149.664 39.3698 149.704 39.409 149.731 39.4568C149.822 39.6242 149.873 39.81 149.881 40C149.881 40.6835 149.848 41.3669 149.813 42.0488C149.763 43.0559 149.584 44.0646 149.894 45.0667C149.934 45.1922 149.828 45.3622 149.79 45.5108C149.615 45.4563 149.367 45.4547 149.292 45.3374C149.161 45.1342 149.088 44.8989 149.081 44.6573C149.058 43.8615 149.073 43.0658 149.073 42.2717L149.133 42.2783Z" fill="white"/>
<path d="M131.531 44.4393C131.512 44.7326 131.471 45.024 131.408 45.311C131.323 45.5933 131.099 45.6313 130.91 45.4216C130.79 45.3109 130.711 45.1631 130.686 45.0022C130.711 44.4046 130.696 43.7855 130.852 43.2176C131.078 42.4185 131.872 42.0999 132.637 42.4268C132.96 42.5774 133.266 42.7641 133.547 42.9832C133.592 43.0274 133.624 43.082 133.641 43.1421C133.659 43.2021 133.661 43.2656 133.647 43.3265C133.599 43.3699 133.542 43.4028 133.48 43.423C133.418 43.4432 133.353 43.4503 133.288 43.4438C133.155 43.4164 133.026 43.3673 132.909 43.2985C131.914 42.8659 131.464 43.1681 131.479 44.261C131.479 44.3155 131.479 44.3699 131.479 44.4261L131.531 44.4393Z" fill="white"/>
<path d="M125.499 43.4422C125.334 43.4588 125.168 43.4671 125.002 43.4669C124.657 43.4554 124.534 43.3398 124.528 43.0426C124.528 42.7124 124.665 42.4747 124.969 42.4549C125.379 42.4315 125.791 42.4403 126.201 42.4813C126.484 42.5077 126.71 42.7719 126.657 42.9766C126.637 43.0994 126.576 43.212 126.484 43.2963C126.392 43.3807 126.274 43.432 126.149 43.4422C125.937 43.4554 125.712 43.4422 125.499 43.4422Z" fill="white"/>
<path d="M151.583 44.7002C151.566 44.8473 151.531 44.9919 151.48 45.1311C151.426 45.244 151.332 45.3324 151.215 45.3787C151.157 45.3969 151.006 45.2829 150.973 45.2004C150.761 44.6084 150.688 43.9756 150.762 43.3513C150.762 43.2737 150.928 43.1318 150.964 43.1466C151.104 43.1912 151.306 43.2737 151.333 43.3794C151.444 43.7938 151.497 44.228 151.583 44.7002Z" fill="white"/>
<path d="M167.36 44.6588C167.365 44.7407 167.365 44.8228 167.36 44.9048C167.339 45.1112 167.39 45.4001 167.075 45.3819C166.946 45.372 166.762 45.1475 166.732 44.9956C166.645 44.5129 166.585 44.0256 166.555 43.5361C166.538 43.3397 166.618 43.1185 166.861 43.1465C166.933 43.1704 166.998 43.2107 167.051 43.264C167.104 43.3173 167.143 43.3822 167.166 43.4536C167.269 43.8465 167.324 44.2527 167.397 44.6538L167.36 44.6588Z" fill="white"/>
<path d="M167.006 42.2948C166.833 42.2444 166.667 42.1758 166.509 42.0901C166.384 42.0108 166.215 41.8193 166.242 41.7318C166.308 41.5592 166.439 41.4186 166.606 41.3389C166.682 41.3294 166.759 41.3357 166.833 41.3573C166.906 41.3789 166.974 41.4153 167.033 41.4643C167.157 41.5711 167.261 41.6998 167.339 41.8441C167.489 42.0785 167.384 42.2849 167.006 42.2948Z" fill="white"/>
<path d="M150.786 41.2925C151.118 41.3123 151.604 41.8291 151.563 42.0899C151.551 42.1659 151.408 42.2914 151.357 42.2781C151.073 42.2107 150.8 42.1069 150.543 41.9694C150.458 41.9199 150.422 41.6623 150.471 41.5451C150.521 41.4279 150.704 41.3536 150.786 41.2925Z" fill="white"/>
</svg>
