<svg width="64" height="64" viewBox="0 0 64 64" fill="none" xmlns="http://www.w3.org/2000/svg">
<rect x="17" y="7" width="30" height="50" rx="5" fill="white" stroke="#081120" stroke-width="4"/>
<rect x="24" y="48" width="16" height="4" rx="2" fill="#02070F" fill-opacity="0.15"/>
<rect x="2" y="15" width="38" height="20" rx="4" fill="#F02D5E"/>
<path d="M10.5029 27.5068C10.473 27.9708 10.8412 28.3636 11.3062 28.3636C11.772 28.3636 12.1406 27.9695 12.1093 27.5047L12.0008 25.8899L13.347 26.7915C13.7384 27.0536 14.2701 26.9279 14.5027 26.5183C14.7334 26.1119 14.5735 25.5951 14.1536 25.39L12.704 24.6818L14.1536 23.9736C14.5735 23.7685 14.7334 23.2517 14.5027 22.8453C14.2701 22.4357 13.7384 22.31 13.347 22.5722L12.0008 23.4737L12.1093 21.8589C12.1406 21.3942 11.772 21 11.3062 21C10.8412 21 10.473 21.3928 10.5029 21.8568L10.6074 23.4737L9.26085 22.5719C8.86966 22.3099 8.33829 22.4355 8.10581 22.8449C7.87502 23.2514 8.03524 23.7683 8.45545 23.973L9.91065 24.6818L8.45545 25.3907C8.03524 25.5953 7.87502 26.1123 8.10581 26.5187C8.33829 26.9281 8.86966 27.0538 9.26085 26.7918L10.6074 25.8899L10.5029 27.5068Z" fill="white"/>
<path d="M20.1123 27.5068C20.0823 27.9708 20.4506 28.3636 20.9156 28.3636C21.3814 28.3636 21.7499 27.9695 21.7187 27.5047L21.6102 25.8899L22.9563 26.7915C23.3477 27.0536 23.8794 26.9279 24.112 26.5183C24.3428 26.1119 24.1829 25.5951 23.763 25.39L22.3133 24.6818L23.763 23.9736C24.1829 23.7685 24.3428 23.2517 24.112 22.8453C23.8794 22.4357 23.3478 22.31 22.9563 22.5722L21.6102 23.4737L21.7187 21.8589C21.7499 21.3942 21.3814 21 20.9156 21C20.4506 21 20.0823 21.3928 20.1123 21.8568L20.2168 23.4737L18.8702 22.5719C18.479 22.3099 17.9477 22.4355 17.7152 22.8449C17.4844 23.2514 17.6446 23.7683 18.0648 23.973L19.52 24.6818L18.0648 25.3907C17.6446 25.5953 17.4844 26.1123 17.7152 26.5187C17.9477 26.9281 18.479 27.0538 18.8702 26.7918L20.2168 25.8899L20.1123 27.5068Z" fill="white"/>
<path d="M29.7217 27.5068C29.6917 27.9708 30.06 28.3636 30.525 28.3636C30.9907 28.3636 31.3593 27.9695 31.3281 27.5047L31.2196 25.8899L32.5657 26.7915C32.9571 27.0536 33.4888 26.9279 33.7214 26.5183C33.9521 26.1119 33.7923 25.5951 33.3724 25.39L31.9227 24.6818L33.3724 23.9736C33.7923 23.7685 33.9521 23.2517 33.7214 22.8453C33.4888 22.4357 32.9571 22.31 32.5657 22.5722L31.2196 23.4737L31.3281 21.8589C31.3593 21.3942 30.9907 21 30.525 21C30.06 21 29.6917 21.3928 29.7217 21.8568L29.8261 23.4737L28.4796 22.5719C28.0884 22.3099 27.557 22.4355 27.3246 22.8449C27.0938 23.2514 27.254 23.7683 27.6742 23.973L29.1294 24.6818L27.6742 25.3907C27.254 25.5953 27.0938 26.1123 27.3246 26.5187C27.557 26.9281 28.0884 27.0538 28.4796 26.7918L29.8261 25.8899L29.7217 27.5068Z" fill="white"/>
</svg>
