<svg width="21" height="16" viewBox="0 0 21 16" fill="none" xmlns="http://www.w3.org/2000/svg">
<path opacity="0.25" d="M9.56913 11.2669C9.56913 8.64309 7.5627 6.791 4.78457 6.791H4.01286V6.17363C4.01286 4.57878 4.93891 3.49839 6.63666 3.49839H8.79743V0H6.89389C2.10932 0 0 2.93247 0 6.89389V11.0611C0 14.0965 2.00643 16 4.78457 16C7.5627 16 9.56913 14.0965 9.56913 11.2669ZM20.373 11.2669C20.373 8.64309 18.3666 6.791 15.5884 6.791H14.8167V6.17363C14.8167 4.57878 15.7428 3.49839 17.4405 3.49839H19.6013V0H17.6977C12.9132 0 10.8039 2.93247 10.8039 6.89389V11.0611C10.8039 14.0965 12.8103 16 15.5884 16C18.3666 16 20.373 14.0965 20.373 11.2669Z" fill="white"/>
</svg>
