<?xml version="1.0" encoding="utf-8"?>
<!-- Generator: Adobe Illustrator 25.2.0, SVG Export Plug-In . SVG Version: 6.00 Build 0)  -->
<svg version="1.1" id="Layer_1" xmlns="http://www.w3.org/2000/svg" xmlns:xlink="http://www.w3.org/1999/xlink" x="0px" y="0px"
	 viewBox="0 0 119 32" style="enable-background:new 0 0 119 32;" xml:space="preserve">
<style type="text/css">
	.st0{fill:#5FFFA2;}
</style>
<path class="st0" d="M38.1,19.3l-4.5-7.5l-4.5-7.5c-0.2-0.3-0.5-0.6-0.8-0.8c-0.3-0.2-0.7-0.3-1.1-0.3c-0.4,0-0.8,0.1-1.1,0.3
	c-0.3,0.2-0.6,0.5-0.8,0.8l-8.6,15.3c-0.2,0.3-0.3,0.7-0.3,1.1s0.1,0.8,0.3,1.1c0.2,0.3,0.5,0.6,0.8,0.8c0.3,0.2,0.7,0.3,1.1,0.3
	l8.8-0.1l8.8-0.1c0.4,0,0.8-0.1,1.1-0.3c0.3-0.2,0.6-0.5,0.8-0.8c0.2-0.3,0.3-0.7,0.3-1.1C38.4,20,38.3,19.6,38.1,19.3z"/>
<path class="st0" d="M23.8,24.8l-3-5.1l-3-5.1c-0.1-0.2-0.3-0.4-0.5-0.5c-0.2-0.1-0.5-0.2-0.7-0.2c-0.3,0-0.5,0.1-0.7,0.2
	c-0.2,0.1-0.4,0.3-0.5,0.5L9.4,25c-0.1,0.2-0.2,0.5-0.2,0.7c0,0.3,0.1,0.5,0.2,0.7c0.1,0.2,0.3,0.4,0.5,0.5c0.2,0.1,0.5,0.2,0.7,0.2
	l6-0.1l6-0.1c0.3,0,0.5-0.1,0.7-0.2c0.2-0.1,0.4-0.3,0.5-0.5C24,26,24,25.8,24,25.5C24,25.3,24,25,23.8,24.8z"/>
<path class="st0" d="M45.7,24.8l-3-5.1l-3-5.1c-0.1-0.2-0.3-0.4-0.5-0.5c-0.2-0.1-0.5-0.2-0.7-0.2c-0.3,0-0.5,0.1-0.7,0.2
	c-0.2,0.1-0.4,0.3-0.5,0.5L31.2,25c-0.1,0.2-0.2,0.5-0.2,0.7c0,0.3,0.1,0.5,0.2,0.7c0.1,0.2,0.3,0.4,0.5,0.5
	c0.2,0.1,0.5,0.2,0.7,0.2l6-0.1l6-0.1c0.3,0,0.5-0.1,0.7-0.2c0.2-0.1,0.4-0.3,0.5-0.5c0.1-0.2,0.2-0.5,0.2-0.7
	C45.9,25.3,45.8,25,45.7,24.8z"/>
<g>
	<path class="st0" d="M59.9,10.9c-1.2,0-2.1,0.4-2.8,1.3c-0.7,0.9-1,2-1,3.5c0,1.6,0.3,2.8,1,3.6c0.7,0.8,1.6,1.2,2.9,1.2
		c0.5,0,1.1-0.1,1.6-0.2c0.5-0.1,1-0.2,1.6-0.4v1.8c-1,0.4-2.1,0.6-3.4,0.6c-1.9,0-3.3-0.6-4.3-1.7c-1-1.1-1.5-2.8-1.5-4.9
		c0-1.3,0.2-2.5,0.7-3.5c0.5-1,1.2-1.8,2.1-2.3c0.9-0.5,2-0.8,3.2-0.8c1.3,0,2.5,0.3,3.6,0.8l-0.8,1.7c-0.4-0.2-0.9-0.4-1.4-0.5
		S60.5,10.9,59.9,10.9z"/>
	<path class="st0" d="M71.1,12.2c0.4,0,0.8,0,1,0.1l-0.2,1.9c-0.3-0.1-0.6-0.1-0.9-0.1c-0.8,0-1.5,0.3-2,0.8
		c-0.5,0.5-0.8,1.2-0.8,2.1v5h-2.1v-9.7h1.6l0.3,1.7h0.1c0.3-0.6,0.7-1,1.3-1.4C69.9,12.4,70.5,12.2,71.1,12.2z"/>
	<path class="st0" d="M72.9,12.4h2.2l2,5.5c0.3,0.8,0.5,1.5,0.6,2.2h0.1c0.1-0.3,0.1-0.7,0.3-1.2s0.9-2.6,2.2-6.5h2.2l-4.1,10.9
		c-0.8,2-2,3-3.8,3c-0.5,0-0.9,0-1.3-0.1v-1.6c0.3,0.1,0.7,0.1,1.1,0.1c1,0,1.7-0.6,2.1-1.7l0.4-0.9L72.9,12.4z"/>
	<path class="st0" d="M89.4,22.2c-1.2,0-2.2-0.4-2.8-1.3h-0.1c0.1,0.8,0.1,1.3,0.1,1.5v4h-2.1v-14h1.7c0,0.2,0.1,0.6,0.3,1.3h0.1
		c0.6-1,1.6-1.5,2.9-1.5c1.2,0,2.1,0.4,2.8,1.3c0.7,0.9,1,2.1,1,3.7c0,1.6-0.3,2.8-1,3.7C91.6,21.8,90.6,22.2,89.4,22.2z M88.9,13.9
		c-0.8,0-1.4,0.2-1.8,0.7c-0.4,0.5-0.6,1.2-0.6,2.3v0.3c0,1.2,0.2,2,0.6,2.6c0.4,0.5,1,0.8,1.8,0.8c0.7,0,1.3-0.3,1.6-0.9
		c0.4-0.6,0.6-1.4,0.6-2.5c0-1.1-0.2-1.9-0.6-2.5C90.2,14.2,89.7,13.9,88.9,13.9z"/>
	<path class="st0" d="M99.8,20.6c0.5,0,1-0.1,1.5-0.2v1.5c-0.2,0.1-0.5,0.2-0.9,0.2c-0.4,0.1-0.7,0.1-1.1,0.1c-1.9,0-2.9-1-2.9-3.1
		V14h-1.3V13l1.4-0.8l0.7-2h1.3v2.1h2.8V14h-2.8v5.2c0,0.5,0.1,0.9,0.4,1.1C99.1,20.5,99.4,20.6,99.8,20.6z"/>
</g>
</svg>
