<svg width="25" height="27" viewBox="0 0 25 27" fill="none" xmlns="http://www.w3.org/2000/svg">
<mask id="path-1-outside-1" maskUnits="userSpaceOnUse" x="1.34961" y="0.156738" width="23" height="26" fill="black">
<rect fill="white" x="1.34961" y="0.156738" width="23" height="26"/>
<path fill-rule="evenodd" clip-rule="evenodd" d="M10.0712 23.7792C10.4311 23.7047 10.7955 23.6388 11.1637 23.6303L11.1645 23.6295C11.1897 23.6289 11.2149 23.6286 11.2401 23.6282H11.2401H11.2402C11.3042 23.6274 11.3683 23.6265 11.432 23.6211C11.6828 23.6487 11.9354 23.6585 12.1882 23.6486C13.4047 23.6006 14.5541 23.0978 15.5447 22.3737C15.4785 22.7566 15.4214 23.1422 15.4219 23.5304C15.4223 23.8065 15.4555 24.0933 15.6013 24.3277C15.7464 24.5612 15.9889 24.7184 16.241 24.8282C16.6009 24.9849 17.0018 25.0603 17.3898 25.002C17.7087 24.9541 18.0111 24.8173 18.2727 24.6285C18.4714 24.4848 18.6467 24.3126 18.8219 24.1404C18.8751 24.0881 18.9283 24.0358 18.9822 23.9843C19.2524 23.7261 19.5415 23.4863 19.8546 23.282C20.1944 23.0604 20.5595 22.8823 20.9246 22.7043L20.9246 22.7043C21.0616 22.6374 21.1987 22.5706 21.3344 22.5014C21.6259 22.3528 21.9186 22.1877 22.1294 21.9375C22.2249 21.8241 22.3018 21.695 22.3556 21.5568L22.3556 21.5569C22.3862 21.4269 22.3662 21.2857 22.3007 21.1692C22.2525 21.0834 22.1815 21.0122 22.1043 20.9511C22.0487 20.9072 21.9898 20.8679 21.9308 20.8287C21.9078 20.8133 21.8847 20.798 21.8619 20.7824C21.6886 20.6641 21.5271 20.5295 21.3665 20.3945C21.2061 20.2589 21.0439 20.1217 20.9089 19.9601C20.7738 19.7985 20.6652 19.6098 20.6254 19.403C20.6092 19.3183 20.6047 19.2322 20.6001 19.146V19.146C20.5979 19.1041 20.5957 19.0623 20.5922 19.0206C20.58 18.8765 20.5515 18.7333 20.4984 18.5988C20.4628 18.5084 20.4154 18.4213 20.3474 18.3522C20.258 18.2612 20.1379 18.2062 20.0162 18.1678L19.9992 18.1625C20.163 17.8938 20.2729 17.5889 20.3311 17.2791C20.4345 16.7278 20.387 16.1584 20.2909 15.6057C20.1597 14.8521 19.9389 14.1155 19.6579 13.4038C19.4512 12.8805 19.2093 12.3659 18.8714 11.916C18.712 11.7039 18.5326 11.508 18.3533 11.312C18.1604 11.1013 17.9676 10.8907 17.7997 10.66C17.725 10.5574 17.6553 10.4509 17.5856 10.3444L17.5856 10.3444L17.5855 10.3443L17.5855 10.3443C17.4955 10.2067 17.4055 10.0693 17.305 9.94052C17.2334 9.79266 17.1627 9.64436 17.0942 9.49508L17.095 9.49516C17.0411 9.37781 16.9884 9.25981 16.9358 9.14181L16.9358 9.1418L16.9358 9.14179L16.9358 9.14178L16.9358 9.14177C16.7794 8.79132 16.6231 8.44086 16.4335 8.10745C16.3941 8.03819 16.3532 7.96959 16.3105 7.90199C16.2989 7.7493 16.2855 7.5966 16.272 7.44388L16.272 7.44381L16.272 7.44374L16.272 7.44367L16.272 7.4436L16.272 7.44354C16.248 7.17053 16.224 6.89744 16.2101 6.62413C16.1988 6.40271 16.194 6.18022 16.1891 5.9577V5.95767V5.95765V5.95763V5.95761C16.1754 5.32046 16.1616 4.68303 15.9953 4.06978C15.8859 3.66602 15.7115 3.28129 15.4872 2.92902C15.2241 2.51633 14.8907 2.14639 14.4943 1.85943C13.862 1.40136 13.0793 1.16549 12.2984 1.15698C11.7226 1.15071 11.1388 1.26744 10.6327 1.54058C10.0941 1.83091 9.65255 2.29509 9.38069 2.84378C9.10884 3.39247 9.00649 4.01106 8.98592 4.62161C8.97189 5.03952 8.9944 5.45723 9.01691 5.875C9.02674 6.05745 9.03657 6.23991 9.04336 6.42241C9.05123 6.64082 9.05493 6.85944 9.05863 7.07804V7.07805V7.07806V7.07806V7.07807C9.06551 7.48438 9.07239 7.89063 9.10603 8.29543L9.10514 8.29607C9.10858 8.33546 9.11225 8.37485 9.11592 8.41424V8.41424V8.41425L9.11592 8.41427V8.41427V8.41428V8.41428C9.13093 8.5755 9.14595 8.73681 9.14531 8.89859C9.14511 8.95387 9.14312 9.00941 9.14114 9.06497V9.06499V9.06501V9.06503V9.06504V9.06505V9.06505V9.06506V9.06506C9.13952 9.11028 9.1379 9.15551 9.13725 9.20063L9.12907 9.22114C9.05266 9.41086 8.95832 9.59118 8.8542 9.76645L7.53871 11.4134L7.51407 11.444C7.23817 11.7858 6.95897 12.1318 6.77954 12.5325C6.66643 12.7851 6.59582 13.0533 6.52518 13.3215C6.49669 13.4297 6.4682 13.5379 6.43691 13.6451C6.31336 14.0687 6.14562 14.4782 5.95731 14.8772C5.78338 15.2455 5.59178 15.6052 5.39978 15.9646C5.26016 16.226 5.11821 16.4932 5.06976 16.7856C5.03152 17.0167 5.0537 17.2551 5.11266 17.4818C5.14187 17.5941 5.17959 17.7037 5.22329 17.8112C5.16845 17.8899 5.12046 17.9736 5.07361 18.0575C5.06671 18.0698 5.05983 18.0822 5.05295 18.0946C4.99411 18.2003 4.93514 18.3063 4.86393 18.4041C4.7844 18.5132 4.68848 18.6129 4.57119 18.6799C4.44772 18.7505 4.3056 18.7823 4.16389 18.7938C4.04907 18.8032 3.93388 18.8 3.81871 18.7968C3.79173 18.796 3.76476 18.7952 3.73779 18.7947C3.59568 18.7915 3.45236 18.7927 3.3133 18.8218C3.17424 18.8509 3.03839 18.9094 2.93604 19.0079C2.82502 19.1148 2.75987 19.2628 2.73054 19.414C2.70122 19.5653 2.70524 19.7211 2.71568 19.8748C2.72645 20.0313 2.74386 20.1872 2.76127 20.3432C2.78217 20.5303 2.80307 20.7175 2.81249 20.9055C2.82976 21.2503 2.8067 21.6037 2.67857 21.9242C2.64238 22.0147 2.59816 22.1017 2.55396 22.1887C2.50229 22.2904 2.45065 22.3921 2.41185 22.4992C2.37586 22.5985 2.35112 22.7029 2.34967 22.8086C2.34823 22.9143 2.37088 23.0217 2.42439 23.1128C2.49364 23.2306 2.61012 23.3148 2.73464 23.3712C2.84029 23.4191 2.95288 23.4493 3.06505 23.4795C3.08508 23.4849 3.10511 23.4902 3.12507 23.4957C3.29971 23.5438 3.4719 23.5999 3.64414 23.656C3.76457 23.6952 3.88503 23.7345 4.00635 23.771C4.39292 23.8873 4.78787 23.9756 5.18258 24.0639C5.76703 24.1946 6.35094 24.3252 6.90622 24.5464C7.00405 24.5853 7.10152 24.6272 7.19912 24.6692C7.55708 24.8231 7.91683 24.9777 8.30278 24.9922C8.61175 25.0038 8.92297 24.9214 9.18775 24.7617C9.45254 24.6019 9.67017 24.3664 9.81212 24.0917C9.85886 24.0012 9.89718 23.9067 9.92703 23.8095C9.97505 23.7992 10.0231 23.7892 10.0712 23.7792Z"/>
</mask>
<path fill-rule="evenodd" clip-rule="evenodd" d="M10.0712 23.7792C10.4311 23.7047 10.7955 23.6388 11.1637 23.6303L11.1645 23.6295C11.1897 23.6289 11.2149 23.6286 11.2401 23.6282H11.2401H11.2402C11.3042 23.6274 11.3683 23.6265 11.432 23.6211C11.6828 23.6487 11.9354 23.6585 12.1882 23.6486C13.4047 23.6006 14.5541 23.0978 15.5447 22.3737C15.4785 22.7566 15.4214 23.1422 15.4219 23.5304C15.4223 23.8065 15.4555 24.0933 15.6013 24.3277C15.7464 24.5612 15.9889 24.7184 16.241 24.8282C16.6009 24.9849 17.0018 25.0603 17.3898 25.002C17.7087 24.9541 18.0111 24.8173 18.2727 24.6285C18.4714 24.4848 18.6467 24.3126 18.8219 24.1404C18.8751 24.0881 18.9283 24.0358 18.9822 23.9843C19.2524 23.7261 19.5415 23.4863 19.8546 23.282C20.1944 23.0604 20.5595 22.8823 20.9246 22.7043L20.9246 22.7043C21.0616 22.6374 21.1987 22.5706 21.3344 22.5014C21.6259 22.3528 21.9186 22.1877 22.1294 21.9375C22.2249 21.8241 22.3018 21.695 22.3556 21.5568L22.3556 21.5569C22.3862 21.4269 22.3662 21.2857 22.3007 21.1692C22.2525 21.0834 22.1815 21.0122 22.1043 20.9511C22.0487 20.9072 21.9898 20.8679 21.9308 20.8287C21.9078 20.8133 21.8847 20.798 21.8619 20.7824C21.6886 20.6641 21.5271 20.5295 21.3665 20.3945C21.2061 20.2589 21.0439 20.1217 20.9089 19.9601C20.7738 19.7985 20.6652 19.6098 20.6254 19.403C20.6092 19.3183 20.6047 19.2322 20.6001 19.146V19.146C20.5979 19.1041 20.5957 19.0623 20.5922 19.0206C20.58 18.8765 20.5515 18.7333 20.4984 18.5988C20.4628 18.5084 20.4154 18.4213 20.3474 18.3522C20.258 18.2612 20.1379 18.2062 20.0162 18.1678L19.9992 18.1625C20.163 17.8938 20.2729 17.5889 20.3311 17.2791C20.4345 16.7278 20.387 16.1584 20.2909 15.6057C20.1597 14.8521 19.9389 14.1155 19.6579 13.4038C19.4512 12.8805 19.2093 12.3659 18.8714 11.916C18.712 11.7039 18.5326 11.508 18.3533 11.312C18.1604 11.1013 17.9676 10.8907 17.7997 10.66C17.725 10.5574 17.6553 10.4509 17.5856 10.3444L17.5856 10.3444L17.5855 10.3443L17.5855 10.3443C17.4955 10.2067 17.4055 10.0693 17.305 9.94052C17.2334 9.79266 17.1627 9.64436 17.0942 9.49508L17.095 9.49516C17.0411 9.37781 16.9884 9.25981 16.9358 9.14181L16.9358 9.1418L16.9358 9.14179L16.9358 9.14178L16.9358 9.14177C16.7794 8.79132 16.6231 8.44086 16.4335 8.10745C16.3941 8.03819 16.3532 7.96959 16.3105 7.90199C16.2989 7.7493 16.2855 7.5966 16.272 7.44388L16.272 7.44381L16.272 7.44374L16.272 7.44367L16.272 7.4436L16.272 7.44354C16.248 7.17053 16.224 6.89744 16.2101 6.62413C16.1988 6.40271 16.194 6.18022 16.1891 5.9577V5.95767V5.95765V5.95763V5.95761C16.1754 5.32046 16.1616 4.68303 15.9953 4.06978C15.8859 3.66602 15.7115 3.28129 15.4872 2.92902C15.2241 2.51633 14.8907 2.14639 14.4943 1.85943C13.862 1.40136 13.0793 1.16549 12.2984 1.15698C11.7226 1.15071 11.1388 1.26744 10.6327 1.54058C10.0941 1.83091 9.65255 2.29509 9.38069 2.84378C9.10884 3.39247 9.00649 4.01106 8.98592 4.62161C8.97189 5.03952 8.9944 5.45723 9.01691 5.875C9.02674 6.05745 9.03657 6.23991 9.04336 6.42241C9.05123 6.64082 9.05493 6.85944 9.05863 7.07804V7.07805V7.07806V7.07806V7.07807C9.06551 7.48438 9.07239 7.89063 9.10603 8.29543L9.10514 8.29607C9.10858 8.33546 9.11225 8.37485 9.11592 8.41424V8.41424V8.41425L9.11592 8.41427V8.41427V8.41428V8.41428C9.13093 8.5755 9.14595 8.73681 9.14531 8.89859C9.14511 8.95387 9.14312 9.00941 9.14114 9.06497V9.06499V9.06501V9.06503V9.06504V9.06505V9.06505V9.06506V9.06506C9.13952 9.11028 9.1379 9.15551 9.13725 9.20063L9.12907 9.22114C9.05266 9.41086 8.95832 9.59118 8.8542 9.76645L7.53871 11.4134L7.51407 11.444C7.23817 11.7858 6.95897 12.1318 6.77954 12.5325C6.66643 12.7851 6.59582 13.0533 6.52518 13.3215C6.49669 13.4297 6.4682 13.5379 6.43691 13.6451C6.31336 14.0687 6.14562 14.4782 5.95731 14.8772C5.78338 15.2455 5.59178 15.6052 5.39978 15.9646C5.26016 16.226 5.11821 16.4932 5.06976 16.7856C5.03152 17.0167 5.0537 17.2551 5.11266 17.4818C5.14187 17.5941 5.17959 17.7037 5.22329 17.8112C5.16845 17.8899 5.12046 17.9736 5.07361 18.0575C5.06671 18.0698 5.05983 18.0822 5.05295 18.0946C4.99411 18.2003 4.93514 18.3063 4.86393 18.4041C4.7844 18.5132 4.68848 18.6129 4.57119 18.6799C4.44772 18.7505 4.3056 18.7823 4.16389 18.7938C4.04907 18.8032 3.93388 18.8 3.81871 18.7968C3.79173 18.796 3.76476 18.7952 3.73779 18.7947C3.59568 18.7915 3.45236 18.7927 3.3133 18.8218C3.17424 18.8509 3.03839 18.9094 2.93604 19.0079C2.82502 19.1148 2.75987 19.2628 2.73054 19.414C2.70122 19.5653 2.70524 19.7211 2.71568 19.8748C2.72645 20.0313 2.74386 20.1872 2.76127 20.3432C2.78217 20.5303 2.80307 20.7175 2.81249 20.9055C2.82976 21.2503 2.8067 21.6037 2.67857 21.9242C2.64238 22.0147 2.59816 22.1017 2.55396 22.1887C2.50229 22.2904 2.45065 22.3921 2.41185 22.4992C2.37586 22.5985 2.35112 22.7029 2.34967 22.8086C2.34823 22.9143 2.37088 23.0217 2.42439 23.1128C2.49364 23.2306 2.61012 23.3148 2.73464 23.3712C2.84029 23.4191 2.95288 23.4493 3.06505 23.4795C3.08508 23.4849 3.10511 23.4902 3.12507 23.4957C3.29971 23.5438 3.4719 23.5999 3.64414 23.656C3.76457 23.6952 3.88503 23.7345 4.00635 23.771C4.39292 23.8873 4.78787 23.9756 5.18258 24.0639C5.76703 24.1946 6.35094 24.3252 6.90622 24.5464C7.00405 24.5853 7.10152 24.6272 7.19912 24.6692C7.55708 24.8231 7.91683 24.9777 8.30278 24.9922C8.61175 25.0038 8.92297 24.9214 9.18775 24.7617C9.45254 24.6019 9.67017 24.3664 9.81212 24.0917C9.85886 24.0012 9.89718 23.9067 9.92703 23.8095C9.97505 23.7992 10.0231 23.7892 10.0712 23.7792Z" fill="white"/>
<path d="M11.1637 23.6303L11.1869 24.63L11.5871 24.6207L11.8704 24.3378L11.1637 23.6303ZM10.0712 23.7792L10.2735 24.7585L10.274 24.7584L10.0712 23.7792ZM11.1645 23.6295L11.1398 22.6299L10.7405 22.6397L10.4578 22.922L11.1645 23.6295ZM11.2401 23.6282V22.6281L11.2264 22.6283L11.2401 23.6282ZM11.2402 23.6282V24.6283L11.2538 24.6281L11.2402 23.6282ZM11.432 23.6211L11.5413 22.6271L11.4446 22.6164L11.3476 22.6247L11.432 23.6211ZM12.1882 23.6486L12.2276 24.6478L12.2277 24.6478L12.1882 23.6486ZM15.5447 22.3737L16.5301 22.5441L16.9517 20.1065L14.9546 21.5664L15.5447 22.3737ZM15.4219 23.5304L14.4219 23.5318V23.5319L15.4219 23.5304ZM15.6013 24.3277L16.4506 23.7998L16.4505 23.7997L15.6013 24.3277ZM16.241 24.8282L15.8416 25.745L15.8417 25.745L16.241 24.8282ZM17.3898 25.002L17.5382 25.9909L17.5382 25.9909L17.3898 25.002ZM18.2727 24.6285L18.8579 25.4393L18.8583 25.439L18.2727 24.6285ZM18.8219 24.1404L19.5229 24.8536L19.5229 24.8536L18.8219 24.1404ZM18.9822 23.9843L18.2913 23.2614L18.2912 23.2614L18.9822 23.9843ZM19.8546 23.282L20.4009 24.1197L20.401 24.1196L19.8546 23.282ZM20.9246 22.7043L21.3629 23.6031L21.3718 23.5987L20.9246 22.7043ZM20.9246 22.7043L20.4862 21.8054L20.4774 21.8098L20.9246 22.7043ZM21.3344 22.5014L21.7884 23.3924L21.7887 23.3923L21.3344 22.5014ZM22.1294 21.9375L21.3647 21.2931L21.3646 21.2932L22.1294 21.9375ZM22.3556 21.5568L23.2874 21.9198L21.6319 20.8668L22.3556 21.5568ZM22.3556 21.5569L21.3822 21.3277L20.5381 24.9121L23.0793 22.247L22.3556 21.5569ZM22.3007 21.1692L21.4289 21.659L21.429 21.6592L22.3007 21.1692ZM22.1043 20.9511L22.7246 20.1667L22.7246 20.1667L22.1043 20.9511ZM21.9308 20.8287L21.3766 21.6611L21.3767 21.6611L21.9308 20.8287ZM21.8619 20.7824L22.4263 19.9569L22.4258 19.9566L21.8619 20.7824ZM21.3665 20.3945L20.7207 21.1581L20.7233 21.1603L21.3665 20.3945ZM20.9089 19.9601L21.6763 19.3189L21.6763 19.3189L20.9089 19.9601ZM20.6254 19.403L19.6434 19.5917L19.6434 19.5917L20.6254 19.403ZM20.6001 19.146H19.6001V19.1722L19.6015 19.1984L20.6001 19.146ZM20.6001 19.146H21.6001V19.1197L21.5988 19.0935L20.6001 19.146ZM20.5922 19.0206L19.5958 19.105L19.5958 19.1052L20.5922 19.0206ZM20.4984 18.5988L21.4287 18.232L21.4286 18.2317L20.4984 18.5988ZM20.3474 18.3522L19.634 19.053L19.6345 19.0535L20.3474 18.3522ZM20.0162 18.1678L20.3171 17.2141L20.3112 17.2123L20.0162 18.1678ZM19.9992 18.1625L19.1453 17.642L18.4766 18.739L19.7041 19.118L19.9992 18.1625ZM20.3311 17.2791L21.3139 17.4636L20.3311 17.2791ZM20.2909 15.6057L21.2761 15.4344L21.2761 15.4342L20.2909 15.6057ZM19.6579 13.4038L20.588 13.0366L20.588 13.0365L19.6579 13.4038ZM18.8714 11.916L19.671 11.3155L19.6709 11.3154L18.8714 11.916ZM18.3533 11.312L19.0909 10.6368V10.6368L18.3533 11.312ZM17.7997 10.66L18.6083 10.0716L18.6081 10.0714L17.7997 10.66ZM17.5856 10.3444L16.7281 10.8589L16.7382 10.8757L16.7489 10.8921L17.5856 10.3444ZM17.5855 10.3443L18.443 9.82983L18.4329 9.81302L18.4222 9.79663L17.5855 10.3443ZM17.305 9.94052L16.4049 10.3763L16.4513 10.4721L16.5167 10.5559L17.305 9.94052ZM17.0942 9.49508L17.1945 8.50012L15.4564 8.32487L16.1854 9.91241L17.0942 9.49508ZM17.095 9.49516L16.9947 10.4901L18.733 10.6654L18.0037 9.07771L17.095 9.49516ZM16.9358 9.14181L17.849 8.73442L17.8401 8.7143L17.8302 8.6946L16.9358 9.14181ZM16.9358 9.14177L16.0225 9.54916L16.0315 9.56928L16.0413 9.58898L16.9358 9.14177ZM16.4335 8.10745L15.5642 8.60177L15.5642 8.60178L16.4335 8.10745ZM16.3105 7.90199L15.3134 7.97807L15.3323 8.22558L15.4647 8.43553L16.3105 7.90199ZM16.272 7.44388L15.2753 7.52525L15.2759 7.5314L16.272 7.44388ZM16.272 7.4436L17.2687 7.36224L17.2683 7.35697L16.272 7.4436ZM16.272 7.44354L17.2683 7.35691L17.2682 7.35603L16.272 7.44354ZM16.2101 6.62413L17.2088 6.57316L17.2088 6.5731L16.2101 6.62413ZM16.1891 5.9577H15.1891V5.96851L15.1894 5.97933L16.1891 5.9577ZM16.1891 5.95761H17.1891V5.94679L17.1889 5.93598L16.1891 5.95761ZM15.9953 4.06978L15.0301 4.33134L15.0301 4.33149L15.9953 4.06978ZM15.4872 2.92902L16.3306 2.39179L16.3304 2.39156L15.4872 2.92902ZM14.4943 1.85943L13.9076 2.66922L13.908 2.6695L14.4943 1.85943ZM12.2984 1.15698L12.3093 0.157037L12.3093 0.157036L12.2984 1.15698ZM10.6327 1.54058L11.1072 2.42085L11.1077 2.4206L10.6327 1.54058ZM8.98592 4.62161L7.98649 4.58794L7.98649 4.58804L8.98592 4.62161ZM9.01691 5.875L10.0155 5.82119V5.82119L9.01691 5.875ZM9.04336 6.42241L10.0427 6.3864L10.0427 6.38523L9.04336 6.42241ZM9.05863 7.07804H10.0586V7.06958L10.0585 7.06112L9.05863 7.07804ZM9.05863 7.07807H8.05863V7.08653L8.05878 7.095L9.05863 7.07807ZM9.10603 8.29543L9.69381 9.10445L10.1492 8.77358L10.1026 8.21262L9.10603 8.29543ZM9.10514 8.29607L8.51736 7.48705L8.05973 7.81954L8.10893 8.38305L9.10514 8.29607ZM9.11592 8.41424H10.1159V8.36777L10.1116 8.32151L9.11592 8.41424ZM9.11592 8.41425H8.11592V8.45961L8.12002 8.50479L9.11592 8.41425ZM9.11592 8.41427H10.1159V8.36891L10.1118 8.32373L9.11592 8.41427ZM9.11592 8.41428H8.11592V8.46075L8.12023 8.50701L9.11592 8.41428ZM9.14531 8.89859L8.14532 8.8946L8.14532 8.89494L9.14531 8.89859ZM9.14114 9.06497L8.14177 9.02925L8.14114 9.0471V9.06497H9.14114ZM9.14114 9.06506L10.1405 9.10078L10.1411 9.08292V9.06506H9.14114ZM9.13725 9.20063L10.0662 9.57089L10.1345 9.39958L10.1371 9.21518L9.13725 9.20063ZM9.12907 9.22114L10.0567 9.59473L10.058 9.5914L9.12907 9.22114ZM8.8542 9.76645L9.63556 10.3905L9.67867 10.3366L9.71395 10.2772L8.8542 9.76645ZM7.53871 11.4134L8.31699 12.0414L8.32006 12.0375L7.53871 11.4134ZM7.51407 11.444L8.29228 12.072L8.29234 12.0719L7.51407 11.444ZM6.77954 12.5325L5.86688 12.1238L5.86686 12.1238L6.77954 12.5325ZM6.52518 13.3215L7.49222 13.5762L7.49222 13.5762L6.52518 13.3215ZM6.43691 13.6451L5.47696 13.365L5.47693 13.3651L6.43691 13.6451ZM5.95731 14.8772L6.86157 15.3041L6.86163 15.304L5.95731 14.8772ZM5.39978 15.9646L4.51779 15.4933L4.51771 15.4935L5.39978 15.9646ZM5.06976 16.7856L4.08321 16.6222L4.08318 16.6223L5.06976 16.7856ZM5.11266 17.4818L4.14486 17.7335H4.14486L5.11266 17.4818ZM5.22329 17.8112L6.04389 18.3827L6.35414 17.9372L6.14958 17.4344L5.22329 17.8112ZM5.07361 18.0575L4.20058 17.5698L4.20057 17.5698L5.07361 18.0575ZM5.05295 18.0946L4.17911 17.6084L4.1791 17.6084L5.05295 18.0946ZM4.86393 18.4041L5.67221 18.9929H5.67221L4.86393 18.4041ZM4.57119 18.6799L4.07518 17.8116L4.07517 17.8116L4.57119 18.6799ZM4.16389 18.7938L4.24525 19.7905H4.24525L4.16389 18.7938ZM3.81871 18.7968L3.79065 19.7964H3.79068L3.81871 18.7968ZM3.73779 18.7947L3.75985 17.7949L3.75982 17.7949L3.73779 18.7947ZM3.3133 18.8218L3.1086 17.843H3.1086L3.3133 18.8218ZM2.93604 19.0079L3.62946 19.7285L3.62974 19.7282L2.93604 19.0079ZM2.73054 19.414L3.71227 19.6043H3.71227L2.73054 19.414ZM2.71568 19.8748L1.71798 19.9426L1.71804 19.9435L2.71568 19.8748ZM2.76127 20.3432L1.76745 20.4541L1.76745 20.4541L2.76127 20.3432ZM2.81249 20.9055L1.81374 20.9556L2.81249 20.9055ZM2.67857 21.9242L3.60707 22.2955L3.60712 22.2954L2.67857 21.9242ZM2.55396 22.1887L3.44548 22.6417L3.44548 22.6417L2.55396 22.1887ZM2.41185 22.4992L3.35209 22.8397H3.35209L2.41185 22.4992ZM2.34967 22.8086L3.34958 22.8223V22.8223L2.34967 22.8086ZM2.42439 23.1128L1.5621 23.6192L1.56221 23.6194L2.42439 23.1128ZM2.73464 23.3712L2.32207 24.2821L2.32209 24.2821L2.73464 23.3712ZM3.06505 23.4795L3.32468 22.5138L3.32467 22.5138L3.06505 23.4795ZM3.12507 23.4957L3.39026 22.5315L3.38965 22.5314L3.12507 23.4957ZM3.64414 23.656L3.95392 22.7052L3.95391 22.7052L3.64414 23.656ZM4.00635 23.771L4.2945 22.8134L4.29442 22.8133L4.00635 23.771ZM5.18258 24.0639L4.96431 25.0398L4.96431 25.0398L5.18258 24.0639ZM6.90622 24.5464L7.2764 23.6174L7.27623 23.6173L6.90622 24.5464ZM7.19912 24.6692L6.8042 25.5879L6.80421 25.5879L7.19912 24.6692ZM8.30278 24.9922L8.26518 25.9915L8.26536 25.9915L8.30278 24.9922ZM9.18775 24.7617L8.67127 23.9053L8.67127 23.9054L9.18775 24.7617ZM9.81212 24.0917L8.92377 23.6325L8.92369 23.6326L9.81212 24.0917ZM9.92703 23.8095L9.71811 22.8316L9.14366 22.9543L8.97113 23.5158L9.92703 23.8095ZM11.1406 22.6305C10.6761 22.6413 10.2368 22.7237 9.86834 22.8L10.274 24.7584C10.6253 24.6857 10.9149 24.6363 11.1869 24.63L11.1406 22.6305ZM10.4578 22.922L10.4571 22.9227L11.8704 24.3378L11.8711 24.3371L10.4578 22.922ZM11.2264 22.6283C11.2021 22.6287 11.1714 22.6291 11.1398 22.6299L11.1891 24.6292C11.2079 24.6288 11.2277 24.6285 11.2538 24.6281L11.2264 22.6283ZM11.2401 22.6282H11.2401V24.6282H11.2401V22.6282ZM11.2402 22.6282H11.2401V24.6282H11.2402V22.6282ZM11.3476 22.6247C11.3251 22.6266 11.2966 22.6274 11.2265 22.6283L11.2538 24.6281C11.3119 24.6273 11.4115 24.6264 11.5164 24.6175L11.3476 22.6247ZM12.1489 22.6494C11.9482 22.6573 11.7453 22.6495 11.5413 22.6271L11.3227 24.6151C11.6202 24.6478 11.9225 24.6598 12.2276 24.6478L12.1489 22.6494ZM14.9546 21.5664C14.0758 22.2087 13.1141 22.6113 12.1488 22.6494L12.2277 24.6478C13.6953 24.5899 15.0323 23.9869 16.1349 23.181L14.9546 21.5664ZM16.4219 23.5291C16.4215 23.2326 16.4653 22.9189 16.5301 22.5441L14.5594 22.2033C14.4917 22.5944 14.4212 23.0517 14.4219 23.5318L16.4219 23.5291ZM16.4505 23.7997C16.4566 23.8095 16.4478 23.8002 16.4384 23.7522C16.4286 23.7023 16.422 23.6311 16.4219 23.529L14.4219 23.5319C14.4224 23.8585 14.4551 24.378 14.752 24.8556L16.4505 23.7997ZM16.6404 23.9114C16.5641 23.8782 16.5119 23.8473 16.4787 23.8226C16.4466 23.7986 16.444 23.7892 16.4506 23.7998L14.752 24.8556C15.0512 25.337 15.5066 25.599 15.8416 25.745L16.6404 23.9114ZM17.2413 24.0131C17.0763 24.0379 16.8661 24.0097 16.6403 23.9113L15.8417 25.745C16.3356 25.9601 16.9272 26.0827 17.5382 25.9909L17.2413 24.0131ZM17.6874 23.8176C17.5325 23.9294 17.3771 23.9927 17.2413 24.0131L17.5382 25.9909C18.0403 25.9156 18.4897 25.7051 18.8579 25.4393L17.6874 23.8176ZM18.121 23.4272C17.9366 23.6084 17.8142 23.726 17.687 23.8179L18.8583 25.439C19.1287 25.2437 19.3569 25.0167 19.5229 24.8536L18.121 23.4272ZM18.2912 23.2614C18.2315 23.3185 18.1734 23.3757 18.121 23.4272L19.5229 24.8536C19.5769 24.8005 19.6252 24.7531 19.6731 24.7072L18.2912 23.2614ZM19.3084 22.4444C18.9318 22.69 18.5946 22.9715 18.2913 23.2614L19.6731 24.7073C19.9102 24.4807 20.1511 24.2825 20.4009 24.1197L19.3084 22.4444ZM20.4862 21.8055C20.1306 21.9789 19.7089 22.1832 19.3083 22.4445L20.401 24.1196C20.68 23.9376 20.9884 23.7857 21.3629 23.6031L20.4862 21.8055ZM20.4774 21.8098L20.4773 21.8099L21.3718 23.5987L21.3718 23.5987L20.4774 21.8098ZM20.8804 21.6104C20.7538 21.675 20.6246 21.738 20.4862 21.8055L21.3629 23.6031C21.4987 23.5369 21.6436 23.4662 21.7884 23.3924L20.8804 21.6104ZM21.3646 21.2932C21.2964 21.3742 21.1698 21.4628 20.8801 21.6106L21.7887 23.3923C22.0819 23.2428 22.5409 23.0012 22.8942 22.5817L21.3646 21.2932ZM21.4238 21.1939C21.4102 21.2289 21.39 21.2631 21.3647 21.2931L22.8941 22.5819C23.0599 22.3852 23.1934 22.1611 23.2874 21.9198L21.4238 21.1939ZM23.0793 22.247L23.0794 22.2469L21.6319 20.8668L21.6318 20.8668L23.0793 22.247ZM21.429 21.6592C21.3718 21.5574 21.3553 21.442 21.3822 21.3277L23.3289 21.7861C23.4171 21.4119 23.3606 21.014 23.1724 20.6792L21.429 21.6592ZM21.484 21.7355C21.492 21.7418 21.4886 21.74 21.479 21.7296C21.4691 21.7189 21.4495 21.6957 21.4289 21.659L23.1725 20.6794C23.0369 20.4381 22.858 20.2723 22.7246 20.1667L21.484 21.7355ZM21.3767 21.6611C21.4413 21.7042 21.4659 21.7212 21.484 21.7355L22.7246 20.1667C22.6316 20.0932 22.5382 20.0317 22.4849 19.9962L21.3767 21.6611ZM21.2975 21.6079C21.3263 21.6276 21.3545 21.6464 21.3766 21.6611L22.4849 19.9963C22.461 19.9803 22.4432 19.9684 22.4263 19.9569L21.2975 21.6079ZM20.7233 21.1603C20.8805 21.2923 21.0778 21.4579 21.298 21.6082L22.4258 19.9566C22.2994 19.8703 22.1738 19.7667 22.0096 19.6288L20.7233 21.1603ZM20.1415 20.6012C20.3413 20.8405 20.5717 21.0321 20.7207 21.1581L22.0122 19.631C21.8405 19.4858 21.7465 19.403 21.6763 19.3189L20.1415 20.6012ZM19.6434 19.5917C19.725 20.0162 19.9368 20.3563 20.1415 20.6013L21.6763 19.3189C21.6461 19.2828 21.6273 19.2536 21.6166 19.2332C21.6061 19.2132 21.6061 19.2071 21.6075 19.2142L19.6434 19.5917ZM19.6015 19.1984C19.6054 19.2729 19.612 19.4282 19.6434 19.5917L21.6075 19.2142C21.6078 19.2159 21.6064 19.2094 21.6046 19.1884C21.6026 19.1655 21.6012 19.1396 21.5988 19.0936L19.6015 19.1984ZM19.6001 19.146V19.146H21.6001V19.146H19.6001ZM19.5958 19.1052C19.5977 19.1282 19.5992 19.1539 19.6015 19.1984L21.5988 19.0935C21.5967 19.0544 21.5937 18.9964 21.5886 18.9359L19.5958 19.1052ZM19.5681 18.9656C19.5776 18.9897 19.5897 19.0337 19.5958 19.105L21.5886 18.9361C21.5702 18.7193 21.5253 18.4769 21.4287 18.232L19.5681 18.9656ZM19.6345 19.0535C19.6027 19.0211 19.5842 18.9932 19.5754 18.9785C19.5669 18.9641 19.5652 18.9582 19.5683 18.9659L21.4286 18.2317C21.3657 18.0724 21.2569 17.8508 21.0603 17.6509L19.6345 19.0535ZM19.7153 19.1215C19.7378 19.1286 19.7381 19.1305 19.7254 19.1237C19.7118 19.1165 19.6758 19.0954 19.634 19.053L21.0608 17.6514C20.8041 17.3901 20.503 17.2728 20.3171 17.2141L19.7153 19.1215ZM19.7041 19.118L19.7211 19.1233L20.3112 17.2123L20.2942 17.2071L19.7041 19.118ZM19.3482 17.0946C19.3097 17.3 19.239 17.4884 19.1453 17.642L20.853 18.6831C21.087 18.2992 21.2361 17.8779 21.3139 17.4636L19.3482 17.0946ZM19.3057 15.7769C19.3933 16.2808 19.4197 16.7141 19.3482 17.0946L21.3139 17.4636C21.4494 16.7415 21.3807 16.036 21.2761 15.4344L19.3057 15.7769ZM18.7278 13.7711C18.9882 14.4307 19.1881 15.1014 19.3057 15.7772L21.2761 15.4342C21.1314 14.6028 20.8896 13.8003 20.588 13.0366L18.7278 13.7711ZM18.0718 12.5166C18.3309 12.8616 18.534 13.2804 18.7278 13.7712L20.588 13.0365C20.3684 12.4805 20.0876 11.8702 19.671 11.3155L18.0718 12.5166ZM17.6157 11.9873C17.8006 12.1892 17.9465 12.3498 18.0719 12.5167L19.6709 11.3154C19.4775 11.058 19.2647 10.8267 19.0909 10.6368L17.6157 11.9873ZM16.9911 11.2484C17.1976 11.5321 17.4292 11.7836 17.6157 11.9873L19.0909 10.6368C18.8916 10.4191 18.7376 10.2493 18.6083 10.0716L16.9911 11.2484ZM16.7489 10.8921C16.8163 10.995 16.8995 11.1225 16.9913 11.2486L18.6081 10.0714C18.5505 9.99229 18.4943 9.90669 18.4222 9.79667L16.7489 10.8921ZM16.7281 10.8588L16.7281 10.8589L18.4431 9.82987L18.443 9.82985L16.7281 10.8588ZM16.7281 10.8588L16.7281 10.8588L18.443 9.82985L18.443 9.82984L16.7281 10.8588ZM16.728 10.8588L16.7281 10.8588L18.443 9.82984L18.443 9.82983L16.728 10.8588ZM16.5167 10.5559C16.5873 10.6463 16.6549 10.7484 16.7489 10.892L18.4222 9.79663C18.3361 9.66505 18.2236 9.49223 18.0932 9.32513L16.5167 10.5559ZM16.1854 9.91241C16.2578 10.07 16.3316 10.2248 16.4049 10.3763L18.205 9.5047C18.1352 9.36048 18.0677 9.21875 18.0029 9.07775L16.1854 9.91241ZM17.1953 8.50021L17.1945 8.50012L16.9939 10.49L16.9947 10.4901L17.1953 8.50021ZM16.0225 9.5492C16.0748 9.66637 16.1297 9.78941 16.1863 9.91261L18.0037 9.07771C17.9525 8.96622 17.9021 8.85326 17.849 8.73442L16.0225 9.5492ZM16.0414 9.58901L16.0414 9.58903L17.8302 8.6946L17.8302 8.69459L16.0414 9.58901ZM16.0414 9.589L16.0414 9.58901L17.8302 8.69459L17.8302 8.69458L16.0414 9.589ZM16.0413 9.58899L16.0414 9.589L17.8302 8.69458L17.8302 8.69456L16.0413 9.58899ZM16.0413 9.58898L16.0413 9.58899L17.8302 8.69456L17.8302 8.69455L16.0413 9.58898ZM15.5642 8.60178C15.7257 8.88573 15.8628 9.19123 16.0225 9.54916L17.849 8.73437C17.696 8.39142 17.5205 7.996 17.3028 7.61311L15.5642 8.60178ZM15.4647 8.43553C15.4986 8.48927 15.5318 8.54473 15.5642 8.60177L17.3028 7.61312C17.2564 7.53164 17.2077 7.4499 17.1563 7.36845L15.4647 8.43553ZM15.2759 7.5314C15.2894 7.68507 15.3023 7.83205 15.3134 7.97807L17.3076 7.82592C17.2955 7.66654 17.2815 7.50813 17.2682 7.35637L15.2759 7.5314ZM15.2754 7.52518L15.2754 7.52525L17.2687 7.36252L17.2687 7.36245L15.2754 7.52518ZM15.2753 7.52511L15.2754 7.52518L17.2687 7.36245L17.2687 7.36238L15.2753 7.52511ZM15.2753 7.52504L15.2753 7.52511L17.2687 7.36238L17.2687 7.36231L15.2753 7.52504ZM15.2753 7.52497L15.2753 7.52504L17.2687 7.36231L17.2687 7.36224L15.2753 7.52497ZM15.2758 7.53017L15.2758 7.53023L17.2683 7.35697L17.2683 7.35691L15.2758 7.53017ZM15.2114 6.6751C15.2264 6.96976 15.2521 7.2611 15.2759 7.53105L17.2682 7.35603C17.2439 7.07995 17.2217 6.82512 17.2088 6.57316L15.2114 6.6751ZM15.1894 5.97933C15.1941 6.19936 15.1992 6.43659 15.2114 6.67516L17.2088 6.5731C17.1984 6.36883 17.1938 6.16108 17.1889 5.93606L15.1894 5.97933ZM15.1891 5.95767V5.9577H17.1891V5.95767H15.1891ZM15.1891 5.95765V5.95767H17.1891V5.95765H15.1891ZM15.1891 5.95763V5.95765H17.1891V5.95763H15.1891ZM15.1891 5.95761V5.95763H17.1891V5.95761H15.1891ZM15.0301 4.33149C15.1591 4.80701 15.1751 5.32059 15.1894 5.97924L17.1889 5.93598C17.1756 5.32033 17.1641 4.55905 16.9604 3.80807L15.0301 4.33149ZM14.6437 3.46624C14.8173 3.73881 14.9488 4.0312 15.0301 4.33134L16.9605 3.80822C16.823 3.30083 16.6057 2.82376 16.3306 2.39179L14.6437 3.46624ZM13.908 2.6695C14.1902 2.8738 14.44 3.14663 14.6439 3.46648L16.3304 2.39156C16.0083 1.88604 15.5913 1.41898 15.0806 1.04936L13.908 2.6695ZM12.2875 2.15692C12.8811 2.16339 13.4582 2.34367 13.9076 2.66922L15.081 1.04964C14.2659 0.459046 13.2775 0.167595 12.3093 0.157037L12.2875 2.15692ZM11.1077 2.4206C11.4378 2.24241 11.8479 2.15213 12.2875 2.15692L12.3093 0.157036C11.5972 0.149288 10.8398 0.292464 10.1578 0.660557L11.1077 2.4206ZM10.2767 3.28774C10.4592 2.91939 10.7559 2.61017 11.1072 2.42085L10.1583 0.660306C9.4322 1.05165 8.84585 1.67079 8.48464 2.39982L10.2767 3.28774ZM9.98536 4.65527C10.0033 4.124 10.0913 3.66197 10.2767 3.28774L8.48464 2.39982C8.12635 3.12298 8.00973 3.89811 7.98649 4.58794L9.98536 4.65527ZM10.0155 5.82119C9.99255 5.39609 9.97304 5.02208 9.98536 4.65517L7.98649 4.58804C7.97074 5.05695 7.99624 5.51837 8.01836 5.9288L10.0155 5.82119ZM10.0427 6.38523C10.0355 6.19303 10.0252 6.00225 10.0155 5.82119L8.01836 5.9288C8.02827 6.11265 8.03763 6.2868 8.04405 6.45958L10.0427 6.38523ZM10.0585 7.06112C10.0548 6.84411 10.051 6.61594 10.0427 6.3864L8.04401 6.45841C8.05148 6.6657 8.05505 6.87477 8.05878 7.09497L10.0585 7.06112ZM10.0586 7.07805V7.07804H8.05863V7.07805H10.0586ZM10.0586 7.07806V7.07805H8.05863V7.07806H10.0586ZM10.0586 7.07806V7.07806H8.05863V7.07806H10.0586ZM10.0586 7.07807V7.07806H8.05863V7.07807H10.0586ZM10.1026 8.21262C10.0721 7.84619 10.0655 7.47298 10.0585 7.06115L8.05878 7.095C8.06556 7.49577 8.07263 7.93507 8.10946 8.37824L10.1026 8.21262ZM9.69292 9.10509L9.69381 9.10445L8.51824 7.48641L8.51736 7.48705L9.69292 9.10509ZM10.1116 8.32151C10.1079 8.28163 10.1045 8.24512 10.1014 8.20909L8.10893 8.38305C8.11266 8.4258 8.1166 8.46806 8.12023 8.50697L10.1116 8.32151ZM10.1159 8.41424V8.41424H8.11592V8.41424H10.1159ZM10.1159 8.41425V8.41424H8.11592V8.41425H10.1159ZM10.1118 8.32373L10.1118 8.32371L8.12002 8.50479L8.12003 8.5048L10.1118 8.32373ZM10.1159 8.41427V8.41427H8.11592V8.41427H10.1159ZM10.1159 8.41428V8.41427H8.11592V8.41428H10.1159ZM10.1159 8.41428V8.41428H8.11592V8.41428H10.1159ZM10.1453 8.90258C10.1462 8.68424 10.1259 8.47464 10.1116 8.32156L8.12023 8.50701C8.136 8.67637 8.14574 8.78938 8.14532 8.8946L10.1453 8.90258ZM10.1405 9.10069C10.1424 9.04787 10.145 8.97625 10.1453 8.90224L8.14532 8.89494C8.14518 8.93148 8.14386 8.97094 8.14177 9.02925L10.1405 9.10069ZM10.1411 9.06499V9.06497H8.14114V9.06499H10.1411ZM10.1411 9.06501V9.06499H8.14114V9.06501H10.1411ZM10.1411 9.06503V9.06501H8.14114V9.06503H10.1411ZM10.1411 9.06504V9.06503H8.14114V9.06504H10.1411ZM10.1411 9.06505V9.06504H8.14114V9.06505H10.1411ZM10.1411 9.06505V9.06505H8.14114V9.06505H10.1411ZM10.1411 9.06506V9.06505H8.14114V9.06506H10.1411ZM10.1411 9.06506V9.06506H8.14114V9.06506H10.1411ZM10.1371 9.21518C10.1376 9.18242 10.1388 9.14778 10.1405 9.10078L8.14177 9.02935C8.14022 9.07278 8.13819 9.12861 8.13735 9.18607L10.1371 9.21518ZM10.058 9.5914L10.0662 9.57089L8.20832 8.83037L8.20014 8.85088L10.058 9.5914ZM9.71395 10.2772C9.83592 10.0718 9.95598 9.84474 10.0567 9.59472L8.20148 8.84755C8.14934 8.97699 8.08072 9.11052 7.99446 9.25573L9.71395 10.2772ZM8.32006 12.0375L9.63556 10.3905L8.07285 9.14235L6.75736 10.7893L8.32006 12.0375ZM8.29234 12.0719L8.31698 12.0414L6.76045 10.7855L6.73581 10.816L8.29234 12.0719ZM7.69221 12.9412C7.80965 12.6789 8.00164 12.4321 8.29228 12.072L6.73587 10.8159C6.4747 11.1396 6.10829 11.5847 5.86688 12.1238L7.69221 12.9412ZM7.49222 13.5762C7.56643 13.2943 7.6182 13.1065 7.69223 12.9412L5.86686 12.1238C5.71465 12.4637 5.6252 12.8122 5.55815 13.0669L7.49222 13.5762ZM7.39687 13.9253C7.43249 13.8032 7.4643 13.6822 7.49222 13.5762L5.55815 13.0669C5.52909 13.1772 5.50391 13.2726 5.47696 13.365L7.39687 13.9253ZM6.86163 15.304C7.06415 14.875 7.25414 14.4145 7.3969 13.9252L5.47693 13.3651C5.37258 13.7228 5.22708 14.0815 5.05299 14.4503L6.86163 15.304ZM6.28177 16.4358C6.47244 16.079 6.67549 15.6982 6.86157 15.3041L5.05305 14.4502C4.89128 14.7928 4.71112 15.1315 4.51779 15.4933L6.28177 16.4358ZM6.05632 16.949C6.07337 16.8461 6.1286 16.7226 6.28185 16.4357L4.51771 15.4935C4.39172 15.7294 4.16304 16.1403 4.08321 16.6222L6.05632 16.949ZM6.08046 17.2301C6.04793 17.105 6.04606 17.011 6.05634 16.9489L4.08318 16.6223C4.01699 17.0223 4.05946 17.4052 4.14486 17.7335L6.08046 17.2301ZM6.14958 17.4344C6.11959 17.3606 6.09684 17.293 6.08046 17.2301L4.14486 17.7335C4.1869 17.8951 4.23959 18.0469 4.297 18.188L6.14958 17.4344ZM5.94664 18.5452C5.99236 18.4633 6.01971 18.4174 6.04389 18.3827L4.4027 17.2397C4.31718 17.3625 4.24856 17.4839 4.20058 17.5698L5.94664 18.5452ZM5.92679 18.5808C5.93375 18.5683 5.94022 18.5567 5.94665 18.5451L4.20057 17.5698C4.1932 17.583 4.18591 17.5961 4.17911 17.6084L5.92679 18.5808ZM5.67221 18.9929C5.78534 18.8376 5.87299 18.6775 5.92679 18.5808L4.1791 17.6084C4.11522 17.7232 4.08494 17.7751 4.05566 17.8153L5.67221 18.9929ZM5.0672 19.5482C5.3483 19.3877 5.54286 19.1704 5.67221 18.9929L4.05566 17.8153C4.04938 17.8239 4.04446 17.83 4.04102 17.834C4.03758 17.838 4.03612 17.8394 4.03683 17.8387C4.03801 17.8376 4.05036 17.8258 4.07518 17.8116L5.0672 19.5482ZM4.24525 19.7905C4.47204 19.772 4.7725 19.7166 5.06721 19.5482L4.07517 17.8116C4.10068 17.797 4.11733 17.7926 4.118 17.7924C4.11849 17.7923 4.1159 17.793 4.10971 17.794C4.10351 17.795 4.09457 17.7962 4.08253 17.7972L4.24525 19.7905ZM3.79068 19.7964C3.89663 19.7993 4.0667 19.8051 4.24525 19.7905L4.08253 17.7972C4.03144 17.8013 3.97114 17.8006 3.84674 17.7972L3.79068 19.7964ZM3.71573 19.7944C3.7392 19.7949 3.76317 19.7956 3.79065 19.7964L3.84677 17.7972C3.8203 17.7964 3.79032 17.7956 3.75985 17.7949L3.71573 19.7944ZM3.518 19.8006C3.53735 19.7966 3.58283 19.7915 3.71576 19.7944L3.75982 17.7949C3.60853 17.7916 3.36737 17.7889 3.1086 17.843L3.518 19.8006ZM3.62974 19.7282C3.5927 19.7639 3.5596 19.7827 3.54125 19.7915C3.52335 19.8 3.51465 19.8013 3.518 19.8006L3.1086 17.843C2.8459 17.8979 2.51862 18.0216 2.24235 18.2877L3.62974 19.7282ZM3.71227 19.6043C3.71227 19.6043 3.71185 19.6065 3.71044 19.6109C3.70902 19.6153 3.70624 19.6229 3.70119 19.6332C3.6913 19.6535 3.66998 19.6895 3.62946 19.7285L2.24262 18.2874C1.94226 18.5765 1.80493 18.9343 1.74882 19.2237L3.71227 19.6043ZM3.71338 19.8071C3.70409 19.6703 3.70881 19.6222 3.71227 19.6043L1.74882 19.2237C1.69363 19.5084 1.70639 19.7719 1.71798 19.9426L3.71338 19.8071ZM3.7551 20.2322C3.73729 20.0727 3.72239 19.9379 3.71332 19.8062L1.71804 19.9435C1.73052 20.1247 1.75043 20.3017 1.76745 20.4541L3.7551 20.2322ZM3.81123 20.8555C3.80003 20.6318 3.77543 20.4143 3.7551 20.2322L1.76745 20.4541C1.78891 20.6464 1.8061 20.8031 1.81374 20.9556L3.81123 20.8555ZM3.60712 22.2954C3.8116 21.7839 3.83181 21.2662 3.81123 20.8555L1.81374 20.9556C1.82771 21.2345 1.8018 21.4234 1.75001 21.553L3.60712 22.2954ZM3.44548 22.6417C3.48626 22.5614 3.55144 22.4346 3.60707 22.2955L1.75007 21.5529C1.73332 21.5948 1.71006 21.642 1.66243 21.7357L3.44548 22.6417ZM3.35209 22.8397C3.36649 22.7999 3.38911 22.7526 3.44548 22.6417L1.66243 21.7357C1.61547 21.8282 1.53481 21.9842 1.47162 22.1586L3.35209 22.8397ZM3.34958 22.8223C3.3493 22.8428 3.3469 22.855 3.34645 22.8571C3.34605 22.859 3.34707 22.8536 3.35209 22.8397L1.47162 22.1586C1.4108 22.3266 1.35319 22.5447 1.34977 22.7949L3.34958 22.8223ZM3.28667 22.6063C3.34328 22.7027 3.35011 22.7835 3.34958 22.8223L1.34977 22.7949C1.34634 23.0452 1.39849 23.3406 1.5621 23.6192L3.28667 22.6063ZM3.14721 22.4603C3.14766 22.4605 3.15105 22.462 3.15695 22.4656C3.16282 22.4691 3.17253 22.4754 3.18486 22.4853C3.20907 22.5047 3.24952 22.5431 3.28656 22.6062L1.56221 23.6194C1.77212 23.9766 2.08702 24.1757 2.32207 24.2821L3.14721 22.4603ZM3.32467 22.5138C3.1989 22.48 3.16615 22.4689 3.1472 22.4603L2.32209 24.2821C2.51444 24.3693 2.70686 24.4187 2.80543 24.4452L3.32467 22.5138ZM3.38965 22.5314C3.36679 22.5251 3.34429 22.519 3.32468 22.5138L2.80542 24.4452C2.82588 24.4507 2.84342 24.4554 2.86049 24.4601L3.38965 22.5314ZM3.95391 22.7052C3.78538 22.6503 3.59109 22.5868 3.39026 22.5315L2.85988 24.4599C3.00833 24.5007 3.15843 24.5495 3.33436 24.6068L3.95391 22.7052ZM4.29442 22.8133C4.18581 22.7807 4.07616 22.745 3.95392 22.7052L3.33435 24.6068C3.45299 24.6454 3.58425 24.6882 3.71829 24.7286L4.29442 22.8133ZM5.40084 23.088C5.00017 22.9984 4.64066 22.9175 4.2945 22.8134L3.7182 24.7285C4.14517 24.857 4.57557 24.9528 4.96431 25.0398L5.40084 23.088ZM7.27623 23.6173C6.63457 23.3618 5.97203 23.2157 5.40084 23.088L4.96431 25.0398C5.56204 25.1735 6.06731 25.2886 6.53621 25.4754L7.27623 23.6173ZM7.59403 23.7505C7.49856 23.7094 7.38876 23.6622 7.2764 23.6174L6.53605 25.4753C6.61934 25.5085 6.70447 25.545 6.8042 25.5879L7.59403 23.7505ZM8.34037 23.9929C8.17238 23.9866 7.98482 23.9184 7.59403 23.7505L6.80421 25.5879C7.12934 25.7277 7.66128 25.9688 8.26518 25.9915L8.34037 23.9929ZM8.67127 23.9054C8.56935 23.9668 8.45004 23.997 8.34019 23.9929L8.26536 25.9915C8.77346 26.0105 9.27658 25.8759 9.70424 25.6179L8.67127 23.9054ZM8.92369 23.6326C8.86442 23.7474 8.77369 23.8436 8.67127 23.9053L9.70423 25.618C10.1314 25.3603 10.4759 24.9854 10.7005 24.5507L8.92369 23.6326ZM8.97113 23.5158C8.95832 23.5575 8.94234 23.5966 8.92377 23.6325L10.7005 24.5508C10.7754 24.4059 10.836 24.2558 10.8829 24.1032L8.97113 23.5158ZM9.86881 22.7999C9.81858 22.8103 9.76835 22.8208 9.71811 22.8316L10.136 24.7874C10.1817 24.7777 10.2276 24.768 10.2735 24.7585L9.86881 22.7999Z" fill="white" mask="url(#path-1-outside-1)"/>
<path d="M17.0942 9.49508C17.3557 10.0647 17.6477 10.62 17.9072 11.1906C18.4065 12.2888 18.7858 13.4483 18.9433 14.6443C19.1009 15.8402 19.0324 17.0752 18.6588 18.2219C18.2364 19.5164 17.4345 20.668 16.452 21.6105C15.2897 22.7255 13.7977 23.5851 12.1882 23.6486C11.1395 23.6899 10.0955 23.3901 9.16683 22.9012C8.38637 22.4905 7.67387 21.9431 7.10542 21.2688C6.53697 20.5946 6.11488 19.7917 5.91943 18.9316C5.67874 17.8725 5.78768 16.7483 6.15192 15.7251C6.41245 14.9934 6.79862 14.3122 7.07353 13.5858C7.37398 12.7921 7.54172 11.9445 7.93978 11.195C8.30049 10.5153 8.84163 9.93484 9.12907 9.22114C9.30075 8.79488 9.37522 8.33704 9.48608 7.89102C9.59695 7.445 9.75215 6.99576 10.0541 6.64928C10.418 6.23177 10.9653 6.00547 11.5154 5.94192C12.0654 5.87838 12.6222 5.96417 13.1621 6.08733C13.5919 6.18534 14.0164 6.30705 14.4318 6.45478C14.7863 6.58091 15.1376 6.72776 15.4442 6.94596C15.8619 7.2432 16.18 7.66174 16.4335 8.10745C16.687 8.55315 16.881 9.0293 17.095 9.49516L17.0942 9.49508Z" fill="#081120"/>
<path d="M11.1637 23.6303C10.7955 23.6388 10.4311 23.7047 10.0712 23.7792C9.72638 23.8505 9.38318 23.9298 9.04256 24.0193C8.46784 24.1701 7.8924 24.3508 7.29832 24.3634C7.14198 24.3666 6.98452 24.3582 6.83213 24.3229C6.67973 24.2877 6.53224 24.2249 6.40997 24.1274C6.22319 23.9784 6.10445 23.7538 6.06051 23.5191C6.01656 23.2843 6.04339 23.04 6.11152 22.811C6.24785 22.3531 6.54019 21.9611 6.77959 21.5477C6.9156 21.3127 7.03562 21.0684 7.18271 20.8401C7.32981 20.6119 7.50695 20.3977 7.73381 20.2485C8.04295 20.0453 8.42848 19.9765 8.79665 20.0127C9.16483 20.0489 9.51766 20.1846 9.84238 20.362C10.3008 20.6124 10.7194 20.9569 10.9844 21.4063C11.1704 21.7221 11.2777 22.0832 11.495 22.3782C11.6121 22.5371 11.7601 22.6744 11.8566 22.846C11.9052 22.9318 11.9409 23.0264 11.9492 23.1248C11.9575 23.2232 11.9371 23.3255 11.8817 23.4072C11.8451 23.4612 11.7944 23.5049 11.7377 23.5372C11.6809 23.5694 11.6184 23.5906 11.5545 23.6038C11.426 23.6305 11.295 23.6263 11.1645 23.6295L11.1637 23.6303ZM9.10603 8.29543C9.05429 7.67283 9.06586 7.04677 9.04336 6.42241C9.02103 5.82206 8.96576 5.22203 8.98592 4.62161C9.00649 4.01106 9.10884 3.39247 9.38069 2.84378C9.65255 2.29509 10.0941 1.83091 10.6327 1.54058C11.1388 1.26744 11.7226 1.15071 12.2984 1.15698C13.0793 1.16549 13.862 1.40136 14.4943 1.85943C14.8907 2.14639 15.2241 2.51633 15.4872 2.92902C15.7115 3.28129 15.8859 3.66602 15.9953 4.06978C16.2197 4.89724 16.1664 5.76872 16.2101 6.62413C16.2515 7.43488 16.3812 8.24369 16.337 9.05428C16.3274 9.23102 16.3084 9.41049 16.2299 9.56843C16.1535 9.72227 16.0236 9.84598 15.8745 9.9313C15.7253 10.0166 15.5574 10.0651 15.3876 10.0913C15.048 10.1437 14.7008 10.1092 14.3587 10.1409C13.8622 10.1869 13.3886 10.3711 12.8959 10.4473C12.3095 10.5381 11.7104 10.4738 11.1167 10.45C10.8789 10.4405 10.6403 10.4376 10.4042 10.4079C10.1682 10.3783 9.93268 10.3212 9.72268 10.2092C9.59414 10.1403 9.4742 10.0505 9.37764 9.94006C9.28108 9.8296 9.20733 9.69905 9.17061 9.55629C9.11542 9.34316 9.14451 9.11879 9.14531 8.89859C9.14611 8.69727 9.12265 8.49667 9.10514 8.29607L9.10603 8.29543Z" fill="#081120"/>
<path d="M10.0396 8.0555C9.95558 8.16074 9.90079 8.28743 9.8677 8.41813C9.8346 8.54884 9.82255 8.68388 9.81732 8.81852C9.80704 9.08789 9.82343 9.36239 9.75225 9.62236C9.67593 9.90032 9.50514 10.141 9.33788 10.3757C9.04827 10.7822 8.75545 11.1992 8.61269 11.6773C8.52617 11.967 8.49733 12.2737 8.5285 12.5743C8.20435 13.0504 7.92358 13.556 7.69117 14.083C7.33881 14.8817 7.097 15.732 7.01193 16.6007C6.90781 17.6645 7.0439 18.7587 7.46398 19.7416C7.76764 20.4522 8.22058 21.1028 8.80445 21.6091C9.10129 21.8666 9.43107 22.0863 9.78455 22.2596C11.0067 22.8603 12.517 22.8613 13.7188 22.2211C14.3469 21.8864 14.8771 21.397 15.3882 20.9018C15.696 20.6036 16.0023 20.2983 16.2371 19.9397C16.6891 19.2494 16.8466 18.4104 16.9444 17.5912C17.1156 16.1585 17.121 14.6453 16.493 13.3464C16.2761 12.8983 15.9891 12.4877 15.6429 12.13C15.5509 11.505 15.3693 10.8931 15.1053 10.3191C14.9149 9.90498 14.6821 9.51077 14.5052 9.09078C14.4326 8.9183 14.3687 8.74172 14.2889 8.57286C14.2091 8.40399 14.1089 8.24147 13.9736 8.11213C13.8352 7.97958 13.6627 7.88575 13.4807 7.82566C13.2987 7.76557 13.1071 7.73833 12.9159 7.72869C12.5331 7.70941 12.1495 7.75946 11.7667 7.74428C11.4618 7.73223 11.1579 7.67872 10.8533 7.69672C10.7009 7.70572 10.5488 7.73287 10.4074 7.79031C10.266 7.84775 10.1357 7.93628 10.0406 8.05542L10.0396 8.0555Z" fill="white"/>
<path d="M10.1622 4.7255C10.0192 4.73329 9.88221 4.79941 9.77753 4.89718C9.67285 4.99495 9.59919 5.12308 9.55372 5.25901C9.46294 5.53087 9.48342 5.82554 9.50391 6.11057C9.52263 6.36941 9.54167 6.63315 9.63863 6.87391C9.68707 6.99426 9.75512 7.10689 9.8459 7.2004C9.93668 7.29391 10.0509 7.36444 10.1767 7.39593C10.2948 7.4255 10.4208 7.41939 10.5369 7.38292C10.6529 7.34645 10.7589 7.28009 10.8458 7.1951C10.9728 7.07098 11.0582 6.90862 11.1072 6.73799C11.1562 6.56735 11.1701 6.38837 11.1676 6.21099C11.1644 5.98894 11.1354 5.76593 11.0659 5.55513C10.9963 5.34433 10.8854 5.14517 10.7306 4.98587C10.6557 4.90875 10.5701 4.84086 10.4736 4.79331C10.377 4.74575 10.2693 4.71899 10.1619 4.72478L10.1622 4.7255Z" fill="white"/>
<path d="M12.6929 4.7255C12.4696 4.87814 12.2824 5.09303 12.1909 5.3481C12.0755 5.6696 12.1197 6.02934 12.231 6.35229C12.3451 6.68303 12.5358 6.99819 12.8239 7.19678C12.9679 7.29607 13.1346 7.36412 13.3083 7.38476C13.482 7.40541 13.6626 7.37713 13.8176 7.2964C14.0067 7.1979 14.1509 7.02542 14.2404 6.83206C14.3299 6.63869 14.3681 6.42476 14.38 6.21187C14.3961 5.94073 14.3687 5.6651 14.2796 5.40851C14.1828 5.12975 14.0064 4.87267 13.7596 4.71224C13.6358 4.63207 13.4951 4.57696 13.349 4.55679C13.203 4.53663 13.0514 4.55173 12.9139 4.60516C12.8356 4.63568 12.7624 4.67802 12.693 4.72566L12.6929 4.7255Z" fill="white"/>
<path d="M10.9746 6.73823C10.9746 6.73815 10.9747 6.73806 10.9748 6.73798L10.9748 6.73792C11.0558 6.64692 11.1222 6.54792 11.1809 6.45932C11.1845 6.45386 11.1881 6.44844 11.1916 6.44306C11.248 6.35785 11.2977 6.28278 11.3545 6.21431L11.2102 6.0946C11.2785 6.01241 11.3571 5.93754 11.4498 5.88436C11.5425 5.83118 11.65 5.80081 11.7564 5.80997L11.7402 5.99677C11.8077 6.00262 11.8808 6.03785 11.9441 6.09729C12.0076 6.15687 12.0599 6.23778 12.1061 6.33336L12.2749 6.25181C12.2869 6.27679 12.2982 6.30217 12.3096 6.32756C12.3449 6.40653 12.3803 6.4856 12.434 6.55307M10.9746 6.73823L12.1058 6.3328C12.1136 6.34903 12.1221 6.36821 12.1315 6.38939C12.1677 6.47062 12.217 6.58142 12.2871 6.66966M10.9746 6.73823L10.968 6.74559L10.968 6.74556C10.9307 6.78685 10.8914 6.82564 10.8566 6.85995C10.8515 6.86494 10.8466 6.86983 10.8417 6.87462C10.7995 6.91638 10.7638 6.95262 10.7329 6.99039L10.5878 6.8716C10.5502 6.91771 10.5167 6.96768 10.4929 7.02231C10.4691 7.07694 10.4552 7.13639 10.4572 7.19584C10.4593 7.25818 10.479 7.31963 10.5113 7.37306M10.9746 6.73823L11.7311 7.34059M12.434 6.55307L12.2871 6.66966M12.434 6.55307L12.2872 6.66972C12.2871 6.6697 12.2871 6.66968 12.2871 6.66966M12.434 6.55307C12.4906 6.6244 12.5644 6.67874 12.6381 6.733C12.6626 6.7511 12.6872 6.76919 12.7111 6.78789C12.759 6.82525 12.8049 6.86582 12.8427 6.91322C12.8805 6.96061 12.9102 7.01572 12.9222 7.07525M12.2871 6.66966L12.7383 7.11178M12.9222 7.07525L12.7382 7.11105C12.7382 7.11129 12.7383 7.11154 12.7383 7.11178M12.9222 7.07525L12.7385 7.11245C12.7384 7.11223 12.7384 7.11201 12.7383 7.11178M12.9222 7.07525C12.9341 7.13617 12.9289 7.19918 12.9074 7.25737C12.8863 7.31521 12.8506 7.36759 12.8062 7.41033C12.7173 7.49589 12.5962 7.54208 12.474 7.55935C12.334 7.57916 12.1931 7.56368 12.0518 7.54818C11.9467 7.53663 11.8414 7.52508 11.7362 7.52802M12.7383 7.11178C12.7434 7.1387 12.7411 7.16651 12.7316 7.19221L12.7312 7.19326C12.7209 7.22153 12.7021 7.25023 12.6762 7.27521L12.6761 7.27527C12.6239 7.32555 12.5439 7.36011 12.4478 7.3737C12.3505 7.38746 12.2478 7.3805 12.1257 7.36759C12.1092 7.36584 12.0921 7.36395 12.0746 7.36202C11.9701 7.35049 11.8503 7.33726 11.7311 7.34059M11.7362 7.52802L11.7311 7.34059M11.7362 7.52802L11.731 7.3406C11.731 7.3406 11.7311 7.34059 11.7311 7.34059M11.7362 7.52802C11.6225 7.53114 11.5099 7.55118 11.3974 7.5712C11.2632 7.5951 11.1291 7.61896 10.9933 7.61398C10.8685 7.6094 10.742 7.57896 10.6395 7.5077C10.5878 7.47229 10.5441 7.42642 10.5113 7.37306M10.5113 7.37306L10.6717 7.27606C10.6716 7.27585 10.6715 7.27564 10.6714 7.27544C10.6712 7.27522 10.6711 7.275 10.671 7.27478L10.5113 7.37306Z" fill="white" stroke="#081120" stroke-width="0.375"/>
<path d="M13.2102 5.39997C13.1262 5.406 13.0444 5.43468 12.9732 5.48031C12.902 5.52594 12.8412 5.58595 12.7935 5.65544C12.6981 5.79426 12.6561 5.96449 12.6494 6.13263C12.6444 6.25892 12.6583 6.38689 12.7002 6.50619C12.7421 6.62549 12.8127 6.73595 12.9101 6.81653C13.0097 6.89903 13.1363 6.9486 13.2656 6.9547C13.3949 6.96081 13.5259 6.92361 13.6319 6.84971C13.7165 6.79082 13.7847 6.70976 13.8333 6.6189C13.8819 6.52804 13.9113 6.42746 13.9245 6.32528C13.9481 6.14476 13.9215 5.95629 13.838 5.7945C13.7545 5.6327 13.6131 5.49943 13.4422 5.43652C13.3683 5.40921 13.2887 5.39507 13.2102 5.40069V5.39997Z" fill="#081120"/>
<path d="M9.81676 5.91045C9.78688 6.09089 9.78576 6.28016 9.84777 6.45216C9.88794 6.56575 9.95623 6.66882 10.0383 6.75743C10.0922 6.81543 10.153 6.86813 10.2244 6.90228C10.2957 6.93642 10.3783 6.95096 10.4549 6.93176C10.5256 6.91408 10.5877 6.86829 10.6333 6.8115C10.6789 6.7547 10.7095 6.68674 10.7311 6.61709C10.7952 6.41143 10.785 6.18633 10.7213 5.98051C10.675 5.83052 10.5983 5.68584 10.4782 5.58469C10.4209 5.53649 10.3538 5.49873 10.2809 5.4813C10.2081 5.46387 10.1291 5.46805 10.061 5.49898C9.98531 5.53336 9.92666 5.59883 9.88826 5.6725C9.84986 5.74617 9.83018 5.82835 9.8166 5.91029L9.81676 5.91045Z" fill="#081120"/>
<path d="M9.65175 8.22988L9.70361 8.15839C9.70009 8.15584 9.69689 8.1534 9.69398 8.15109C9.69777 8.14505 9.70166 8.13907 9.70564 8.13315L9.70579 8.13293C9.70645 8.13195 9.70708 8.13102 9.70768 8.13013C9.71467 8.13052 9.72412 8.13103 9.73358 8.13127L9.73358 8.13127L9.73427 8.13129C9.83452 8.13342 9.92751 8.10623 10.0051 8.06861C10.0829 8.03092 10.1489 7.9812 10.2041 7.93333C10.2444 7.89842 10.2842 7.85968 10.3191 7.82571C10.3303 7.81487 10.3409 7.80452 10.3509 7.79494C10.3955 7.75215 10.4341 7.71768 10.4739 7.6901L10.3673 7.53588M9.65175 8.22988L9.66229 8.10396L9.66224 8.10369L9.64997 8.04339L9.63117 7.95095C9.63414 7.9497 9.63717 7.94858 9.64026 7.9476C9.66449 7.9399 9.69064 7.94137 9.71611 7.94281C9.72358 7.94323 9.73098 7.94365 9.73827 7.94383C9.80229 7.94519 9.86584 7.92776 9.92336 7.89988C9.98088 7.87201 10.0329 7.83361 10.0813 7.79167C10.1171 7.76063 10.1512 7.72749 10.1852 7.69437C10.2431 7.63802 10.301 7.58173 10.3673 7.53588M9.65175 8.22988L9.65131 8.23048M9.65175 8.22988L9.65131 8.23048M10.3673 7.53588C10.4753 7.46125 10.6025 7.41715 10.732 7.39506C10.8615 7.37296 10.9937 7.37168 11.125 7.37698C11.2345 7.38134 11.344 7.39023 11.4534 7.39913C11.6467 7.41484 11.8399 7.43055 12.0335 7.42117M10.3673 7.53588L10.4739 7.69016C10.5541 7.63476 10.6537 7.59862 10.7635 7.57989C10.8742 7.56101 10.9915 7.55924 11.1174 7.56433L11.1176 7.56433C11.223 7.56852 11.3265 7.57694 11.4344 7.58572C11.4772 7.58919 11.5207 7.59273 11.5652 7.59608C11.7185 7.6076 11.8791 7.61637 12.0425 7.60845L12.0335 7.42117M12.0335 7.42117C12.1598 7.41505 12.2853 7.3983 12.4108 7.38155C12.5491 7.36309 12.6874 7.34464 12.8267 7.34043M12.0335 7.42117L12.0425 7.60845M9.5073 8.22099L9.5601 8.18943L9.48111 8.15387C9.48595 8.17744 9.49499 8.20021 9.5073 8.22099ZM9.5073 8.22099L9.56037 8.18955L9.65131 8.23048M9.5073 8.22099L9.65131 8.23048M12.8267 7.34043L12.0425 7.60845M12.8267 7.34043L12.8323 7.52784C12.7104 7.53153 12.5874 7.54717 12.4548 7.56485C12.4477 7.56579 12.4406 7.56673 12.4335 7.56768C12.3098 7.5842 12.1771 7.60193 12.0425 7.60845M12.8267 7.34043L12.8322 7.52785C12.9148 7.52542 12.997 7.5284 13.0864 7.53163C13.1043 7.53228 13.1225 7.53294 13.141 7.53356C13.2487 7.53721 13.3656 7.53962 13.4846 7.52876L13.4846 7.52875C13.5467 7.52307 13.6119 7.51328 13.6702 7.50454C13.6926 7.50117 13.714 7.49795 13.7338 7.49519C13.8107 7.48445 13.8767 7.47814 13.9392 7.48126L13.9392 7.48126C14.0015 7.48436 14.0546 7.49688 14.0966 7.51834C14.1386 7.53977 14.1672 7.56974 14.1808 7.59847C14.1981 7.63523 14.2027 7.69212 14.1884 7.77317C14.182 7.80982 14.1731 7.84627 14.1624 7.88981C14.1613 7.89445 14.1602 7.89917 14.159 7.90398C14.1475 7.95132 14.1343 8.00676 14.126 8.06502M12.0425 7.60845L14.126 8.06502M14.126 8.06502C14.126 8.06497 14.1261 8.06493 14.1261 8.06488L14.3117 8.09132L14.126 8.06502ZM14.126 8.06502C14.1222 8.09228 14.1195 8.11903 14.1174 8.14154L14.1171 8.14418C14.1149 8.16682 14.1131 8.18529 14.1108 8.20317C14.1058 8.24019 14.0998 8.26141 14.0926 8.27604L14.092 8.27739C14.0772 8.30817 14.04 8.3439 13.9739 8.37503C13.9414 8.39034 13.9053 8.40347 13.8622 8.41782C13.8514 8.42141 13.8397 8.42524 13.8273 8.42926C13.7943 8.44004 13.7569 8.45222 13.7219 8.46508L13.7218 8.46512C13.4919 8.54982 13.2952 8.68453 13.1179 8.81758C13.0686 8.85459 13.0214 8.89098 12.9752 8.92651C12.8493 9.02348 12.7318 9.114 12.6037 9.19299C12.4252 9.30294 12.2289 9.3871 12.024 9.44747C11.802 9.51279 11.5793 9.54675 11.3661 9.52529L11.366 9.52529C11.1848 9.50708 11.0109 9.44777 10.869 9.3482C10.7048 9.23291 10.5875 9.07483 10.4507 8.89031C10.4104 8.83596 10.3684 8.7793 10.323 8.72078L10.323 8.72074C10.1819 8.53894 10.0133 8.35339 9.79868 8.21849L9.79844 8.21834C9.78284 8.20857 9.76993 8.20073 9.75859 8.19385C9.73705 8.18078 9.72123 8.17118 9.70361 8.15839L9.65175 8.22988L14.126 8.06502ZM9.69707 8.12629C9.697 8.12631 9.69694 8.12633 9.69688 8.12635L9.69707 8.12629ZM9.69707 8.12629C9.69706 8.12629 9.69705 8.12629 9.69705 8.1263L9.69707 8.12629Z" fill="white" stroke="#081120" stroke-width="0.375"/>
<path d="M10.3281 7.20105L10.2192 7.27442C10.0794 7.36861 9.95359 7.48332 9.84716 7.61379L10.3281 7.20105ZM10.3281 7.20105L10.3203 7.16943M10.3281 7.20105L10.3203 7.16943M10.3203 7.16943C10.5444 6.93002 10.8274 6.74546 11.1372 6.63793L11.1372 6.63792C11.4435 6.53154 11.772 6.50474 12.0638 6.59317L12.0638 6.59318C12.1961 6.63324 12.3242 6.69722 12.4627 6.77141L12.4627 6.77142C12.501 6.79195 12.5403 6.81333 12.5802 6.83507C12.676 6.88724 12.7756 6.94148 12.8752 6.99096L10.3203 7.16943ZM14.288 7.36169C14.2506 7.29822 14.1861 7.2554 14.1189 7.22552C14.0408 7.19079 13.9574 7.17107 13.874 7.15138C13.8591 7.14784 13.8441 7.14431 13.8292 7.14068L13.7852 7.32295C13.8023 7.32711 13.8187 7.33101 13.8344 7.33474C13.9179 7.35457 13.9819 7.3698 14.0426 7.39682L14.0427 7.39686C14.083 7.41477 14.1061 7.43226 14.1185 7.44613M14.288 7.36169L14.1452 7.44482L14.1378 7.44915C14.1409 7.44553 14.1433 7.44373 14.1445 7.44303M14.288 7.36169C14.3064 7.39342 14.3179 7.42973 14.3177 7.46652L14.1375 7.45026M14.288 7.36169L14.1455 7.44555L14.1375 7.45026M14.1445 7.44303C14.1449 7.44276 14.1451 7.44265 14.1451 7.44266C14.1451 7.44266 14.1449 7.44278 14.1445 7.44297L14.1445 7.44303ZM14.1445 7.44303L14.1445 7.44297C14.143 7.44354 14.1371 7.44546 14.125 7.44595L14.1244 7.44597C14.1224 7.44606 14.1204 7.44611 14.1185 7.44613M14.1185 7.44613C14.121 7.44901 14.1231 7.45174 14.1248 7.45428C14.125 7.45456 14.1252 7.45484 14.1253 7.45512C14.1257 7.45569 14.1261 7.45625 14.1264 7.4568L14.1375 7.45026M14.1185 7.44613C14.0967 7.44635 14.075 7.44258 14.0361 7.43579C14.0247 7.43381 14.0118 7.43157 13.997 7.42909L13.9969 7.42907C13.9182 7.41596 13.8036 7.40232 13.6879 7.43954L13.6879 7.43955C13.6107 7.46438 13.5481 7.50685 13.5002 7.54633C13.4645 7.57579 13.4297 7.61001 13.4024 7.63679C13.3952 7.64384 13.3886 7.65037 13.3826 7.65616M14.1375 7.45026L9.84714 7.61381C9.78519 7.68977 9.74021 7.75911 9.71679 7.82898L9.71677 7.82906C9.70267 7.87105 9.6964 7.90745 9.68805 7.95592C9.68333 7.9833 9.67795 8.01453 9.67012 8.0528M14.1375 7.45026L14.1523 7.46236L14.1536 7.46581M14.1375 7.45026L14.1302 7.46626L14.1302 7.46754C14.1302 7.46716 14.1302 7.46678 14.1302 7.4664C14.1302 7.4664 14.1302 7.46639 14.1302 7.46639C14.1302 7.46616 14.1302 7.46593 14.1302 7.46571C14.1306 7.46059 14.1325 7.45568 14.1357 7.45165L14.1534 7.46581L14.1537 7.46607M13.3826 7.65616C13.288 7.74742 13.1823 7.8303 13.0686 7.91519C12.8186 8.10184 12.5695 8.26818 12.2992 8.37478L12.2991 8.37481C12.1227 8.44443 11.9338 8.48981 11.7348 8.52954L11.7347 8.52955C11.484 8.57964 11.2423 8.61556 11.0051 8.60639C10.7705 8.59731 10.5451 8.54219 10.3616 8.42761M13.3826 7.65616L13.5126 7.79089L13.3826 7.6562C13.3826 7.65619 13.3826 7.65617 13.3826 7.65616ZM10.3616 8.42761L10.0812 8.22415L10.0812 8.2241L10.0774 8.22147C9.97098 8.14825 9.83296 8.07127 9.67084 8.05288L9.64972 8.23919L9.67112 8.05292C9.67079 8.05288 9.67045 8.05284 9.67012 8.0528M10.3616 8.42761C10.36 8.4266 10.3584 8.4256 10.3568 8.42458L10.2566 8.58303L10.3667 8.43125L10.3616 8.42761ZM9.67012 8.0528C9.67008 8.053 9.67004 8.05321 9.67 8.05341L9.66987 8.05402L9.66987 8.05402C9.66178 8.09288 9.66016 8.10156 9.66016 8.10897H9.62479H9.62478H9.59727H9.59367H9.59339H9.47266M9.67012 8.0528C9.66772 8.05253 9.66545 8.05227 9.6633 8.05204C9.66116 8.0518 9.65915 8.05159 9.65724 8.05139C9.64176 8.04977 9.63353 8.04923 9.62787 8.04886C9.62099 8.0484 9.61791 8.0482 9.61021 8.04661C9.60966 8.04649 9.6094 8.04642 9.6094 8.04642C9.6094 8.04641 9.60968 8.04649 9.6102 8.04666C9.61107 8.04695 9.61261 8.04751 9.61468 8.04849C9.61942 8.05072 9.62848 8.05582 9.63814 8.0658C9.63814 8.06581 9.63815 8.06582 9.63816 8.06582C9.63816 8.06582 9.63816 8.06583 9.63816 8.06583C9.63822 8.06589 9.63828 8.06595 9.63834 8.06601C9.64973 8.07789 9.65536 8.08975 9.6581 8.09828C9.65988 8.10381 9.66013 8.10733 9.66015 8.10801L9.62724 8.10818H9.62724L9.5974 8.10833L9.59431 8.10835L9.59403 8.10835L9.47266 8.10897M9.47266 8.10897C9.47274 8.12471 9.47474 8.14054 9.47956 8.15556L9.53901 7.76939C9.52044 7.82471 9.51039 7.88228 9.50033 7.93987C9.4959 7.96523 9.49147 7.9906 9.48631 8.01578C9.4857 8.01872 9.48508 8.02166 9.48446 8.02461C9.47857 8.05254 9.47266 8.08062 9.47266 8.10897ZM14.1536 7.46581L14.1537 7.46607M14.1536 7.46581L14.1537 7.46607M14.1536 7.46581L14.1523 7.46236L14.1565 7.46582L14.1584 7.46738L14.2822 7.56871L14.1554 7.4674L14.1537 7.46607M14.1537 7.46607L14.1543 7.46741L14.1537 7.46607ZM12.8753 6.99098C13.1647 7.13471 13.4702 7.2469 13.785 7.3229L12.8753 6.99098ZM14.1302 7.46571L14.1302 7.46588L14.1302 7.46571Z" fill="white" stroke="#081120" stroke-width="0.375"/>
<path d="M17.4618 13.007C17.9507 13.4003 18.2608 13.994 18.3568 14.614C18.4316 15.0976 18.3829 15.5937 18.274 16.0706C18.1651 16.5476 17.9967 17.0086 17.8296 17.4685C17.7629 17.6519 17.6961 17.837 17.6696 18.0302C17.6431 18.2235 17.6599 18.4282 17.7531 18.5997C17.86 18.7962 18.0594 18.9315 18.2738 18.9952C18.4855 19.0581 18.7141 19.0567 18.9284 19.0034C19.1428 18.95 19.3427 18.8457 19.5171 18.7101C19.9602 18.3661 20.2276 17.8305 20.3311 17.2792C20.4345 16.7279 20.387 16.1585 20.2909 15.6058C20.1597 14.8523 19.9389 14.1156 19.6579 13.404C19.4512 12.8806 19.2093 12.366 18.8714 11.9162C18.5406 11.4759 18.1237 11.1053 17.7997 10.6601C17.5745 10.3508 17.3942 10.0054 17.1244 9.73416C16.9894 9.59856 16.832 9.48255 16.6536 9.41322C16.4753 9.34389 16.275 9.32357 16.0909 9.37546C15.8483 9.44375 15.649 9.63495 15.5444 9.86407C15.4397 10.0932 15.4204 10.356 15.4615 10.6048C15.5145 10.9257 15.6612 11.2236 15.8267 11.5037C16.0136 11.82 16.2301 12.1245 16.5124 12.3596C16.807 12.605 17.1633 12.7669 17.462 13.0071L17.4618 13.007Z" fill="#081120"/>
<path d="M22.1756 21.5022C22.1916 21.4212 22.1778 21.3332 22.1372 21.2611L22.1372 21.2611C22.1054 21.2044 22.0546 21.1509 21.988 21.0982C21.9388 21.0593 21.8894 21.0264 21.8333 20.9891C21.809 20.9729 21.7834 20.9559 21.7561 20.9372M22.1756 21.5022L20.324 18.6676C20.3689 18.7814 20.3943 18.906 20.4054 19.0364L20.4054 19.0364C20.4079 19.066 20.4097 19.1007 20.4118 19.1384C20.4167 19.2306 20.4226 19.3409 20.4413 19.4384L20.4413 19.4384C20.4889 19.686 20.6169 19.903 20.765 20.0803C20.9106 20.2546 21.0834 20.4007 21.2403 20.5334L21.2454 20.5377L21.2459 20.5381C21.4059 20.6725 21.574 20.8129 21.7561 20.9372M22.1756 21.5022C22.1296 21.616 22.0653 21.7226 21.986 21.8166L21.986 21.8167C21.8019 22.0352 21.5404 22.1859 21.2492 22.3344M22.1756 21.5022L21.2492 22.3344M21.7561 20.9372L21.8619 20.7824L21.7562 20.9372C21.7561 20.9372 21.7561 20.9372 21.7561 20.9372ZM21.2492 22.3344C21.1199 22.4003 20.9868 22.4652 20.8521 22.5309C20.4836 22.7106 20.1026 22.8965 19.7522 23.125M21.2492 22.3344L16.3159 24.6563C16.6506 24.8021 17.0157 24.8686 17.3619 24.8166C17.6465 24.7739 17.9213 24.6508 18.1628 24.4765M19.7522 23.125C19.7522 23.125 19.7522 23.125 19.7522 23.125L19.8546 23.282L19.7522 23.125ZM19.7522 23.125C19.4272 23.337 19.1291 23.5846 18.8526 23.8488L18.8526 23.8488C18.7943 23.9045 18.7384 23.9595 18.6835 24.0134C18.5106 24.1832 18.3491 24.3419 18.1628 24.4765M18.1628 24.4765C18.1629 24.4765 18.1629 24.4764 18.1629 24.4764L18.2727 24.6285L18.1628 24.4765ZM15.7815 22.1112L15.7815 22.1113C15.7777 22.1324 15.774 22.1535 15.7702 22.1745C15.6881 22.6364 15.6088 23.0824 15.6094 23.5302L15.7815 22.1112ZM15.7815 22.1112C15.8522 21.7114 15.9207 21.3057 15.9648 20.8956L15.7815 22.1112ZM20.2137 18.4837L20.2136 18.4836C20.1556 18.4245 20.0695 18.3812 19.9599 18.3466L20.2137 18.4837ZM20.2137 18.4837C20.2576 18.5282 20.2934 18.5902 20.324 18.6676L20.2137 18.4837ZM16.2926 18.0444C16.2037 18.0493 16.1329 18.0743 16.0881 18.1129L16.2926 18.0444ZM16.2926 18.0444C16.3806 18.0396 16.4703 18.0527 16.5828 18.0691M16.2926 18.0444L16.5828 18.0691M16.5828 18.0691C16.5871 18.0698 16.5914 18.0704 16.5958 18.071L16.5828 18.0691ZM15.7605 24.2287C15.6431 24.0399 15.6098 23.7967 15.6094 23.5302L16.3158 24.6563C16.0793 24.5532 15.8768 24.4158 15.7605 24.2287L15.7605 24.2287ZM17.6153 18.2778C17.6923 18.302 17.7736 18.3276 17.8563 18.3499L16.5958 18.071C16.6462 18.0784 16.6958 18.0854 16.7448 18.0923C16.9627 18.1229 17.1682 18.1517 17.3697 18.2048L17.3697 18.2048C17.4469 18.2251 17.5238 18.2491 17.6052 18.2746L17.6153 18.2778ZM19.2354 18.3418C19.3825 18.3103 19.5141 18.2879 19.6432 18.291L17.8564 18.3499C18.1462 18.4282 18.457 18.4678 18.7678 18.4316L18.7678 18.4316C18.8977 18.4164 19.028 18.3875 19.1468 18.3612C19.1771 18.3545 19.2067 18.3479 19.2354 18.3418ZM15.9648 20.8956C16.0452 20.149 16.0445 19.3968 15.9912 18.6524C15.9905 18.6422 15.9898 18.6321 15.9892 18.6222C15.9814 18.5055 15.9753 18.4131 15.9889 18.3234C16.0033 18.2283 16.0397 18.1546 16.0881 18.1129L15.9648 20.8956ZM19.6432 18.291C19.7478 18.2935 19.8542 18.3134 19.9598 18.3466L19.6432 18.291Z" fill="white" stroke="#081120" stroke-width="0.375"/>
<path d="M19.9587 17.8174C19.9262 17.7287 19.8689 17.6502 19.7989 17.5869C19.7288 17.5235 19.6462 17.475 19.5592 17.4381C19.3853 17.3642 19.1961 17.3368 19.0104 17.3018L18.4859 17.1992C18.3036 17.1682 18.1149 17.1485 17.9344 17.1892C17.7765 17.2248 17.6304 17.3065 17.5109 17.4157C17.3914 17.525 17.298 17.6612 17.2309 17.8094C17.1127 18.0689 17.0755 18.3609 17.0981 18.6451C17.1149 18.8566 17.1683 19.0746 17.3077 19.2348C17.4202 19.3641 17.5798 19.4449 17.7443 19.4935C18.0275 19.5772 18.3361 19.5728 18.6167 19.481C19.0834 19.3233 19.487 19.0197 19.7679 18.6151C19.8595 18.4825 19.9376 18.3381 19.973 18.181C20 18.0605 20.001 17.9336 19.9587 17.8183V17.8174Z" fill="#081120"/>
<path d="M8.89815 9.71143L7.53871 11.4134C7.25489 11.7653 6.96432 12.1199 6.77954 12.5325C6.6208 12.887 6.54577 13.2721 6.43691 13.6451C6.31336 14.0687 6.14562 14.4782 5.95731 14.8772C5.78338 15.2455 5.59178 15.6052 5.39978 15.9646C5.26016 16.226 5.11821 16.4932 5.06976 16.7856C5.03152 17.0167 5.0537 17.2551 5.11266 17.4818C5.17163 17.7085 5.2653 17.9244 5.37279 18.133C5.82805 19.0227 6.51114 19.7897 7.32028 20.3764C7.68741 20.6426 8.08082 20.8728 8.49334 21.0613C8.71683 21.1633 8.95238 21.2544 9.19804 21.2587C9.32096 21.2608 9.445 21.2406 9.55747 21.1912C9.66994 21.1418 9.77035 21.0623 9.83727 20.9593C9.91946 20.8325 9.94733 20.6751 9.93086 20.5249C9.9144 20.3748 9.85575 20.2314 9.77718 20.1023C9.58438 19.7872 9.28191 19.5593 8.99022 19.3333C8.36039 18.8453 7.75104 18.3307 7.16805 17.7876C7.00336 17.6342 6.83883 17.4761 6.72379 17.2828C6.6118 17.0945 6.55123 16.88 6.51026 16.6648C6.39779 16.0743 6.42671 15.4531 6.62755 14.8867C6.70612 14.6652 6.80991 14.4535 6.91017 14.2408C7.08369 13.8721 7.24814 13.4964 7.47653 13.1589C7.76076 12.7388 8.14067 12.3829 8.37228 11.9316C8.56781 11.5508 8.64702 11.1224 8.7227 10.701L8.89815 9.71143Z" fill="#081120"/>
<path d="M6.96543 18.205C7.34076 18.7219 7.70211 19.2495 8.02947 19.7981C8.0974 19.9118 8.16392 20.0266 8.23044 20.1413C8.42402 20.4752 8.61761 20.8092 8.846 21.1198L6.96543 18.205ZM6.96543 18.205L6.81371 18.3152C6.81371 18.3152 6.81372 18.3152 6.81372 18.3152L6.96543 18.205ZM5.61065 17.4715L5.61059 17.4716L5.61057 17.4716C5.6106 17.4716 5.61063 17.4716 5.61065 17.4715ZM5.61065 17.4715L5.61057 17.4714C5.61055 17.4714 5.61052 17.4714 5.61049 17.4714L5.61065 17.4715ZM2.42439 23.1127L2.58606 23.0177C2.58606 23.0177 2.58605 23.0177 2.58604 23.0177L2.42439 23.1127ZM8.30982 24.8048C8.30981 24.8048 8.3098 24.8048 8.30979 24.8048L8.30278 24.9922L8.30982 24.8048ZM9.76197 22.8595C9.76198 22.8595 9.76198 22.8595 9.76198 22.8595L9.94283 22.81L9.76197 22.8595Z" fill="white" stroke="#081120" stroke-width="0.375"/>
</svg>
