<svg width="34" height="26" viewBox="0 0 34 26" fill="none" xmlns="http://www.w3.org/2000/svg">
<path opacity="0.1" d="M15.5498 18.3087C15.5498 14.045 12.2894 11.0354 7.77492 11.0354H6.5209V10.0322C6.5209 7.44051 8.02572 5.68489 10.7846 5.68489H14.2958V0H11.2026C3.42765 0 0 4.76527 0 11.2026V17.9743C0 22.9068 3.26045 26 7.77492 26C12.2894 26 15.5498 22.9068 15.5498 18.3087ZM33.1061 18.3087C33.1061 14.045 29.8457 11.0354 25.3312 11.0354H24.0772V10.0322C24.0772 7.44051 25.582 5.68489 28.3408 5.68489H31.8521V0H28.7588C20.9839 0 17.5563 4.76527 17.5563 11.2026V17.9743C17.5563 22.9068 20.8167 26 25.3312 26C29.8457 26 33.1061 22.9068 33.1061 18.3087Z" fill="#02070F"/>
</svg>
