<svg width="25" height="24" viewBox="0 0 25 24" fill="none" xmlns="http://www.w3.org/2000/svg">
<path d="M11.8371 4.69704L7.90937 2.42366L3.9816 0.150419C3.81125 0.0518609 3.61801 -1.50541e-05 3.42132 3.27697e-09C3.22464 1.50607e-05 3.03142 0.0519196 2.86109 0.150504C2.69075 0.249088 2.5493 0.390879 2.45095 0.561625C2.35259 0.73237 2.30081 0.926055 2.30078 1.12322V10.2168C2.30077 10.414 2.35253 10.6077 2.45088 10.7784C2.54922 10.9492 2.69067 11.091 2.86102 11.1896C3.03137 11.2882 3.2246 11.3401 3.42131 11.3401C3.61801 11.3401 3.81125 11.2882 3.9816 11.1896L7.90937 8.91633L11.8371 6.64295C12.0076 6.54439 12.1491 6.40258 12.2475 6.23178C12.3459 6.06099 12.3977 5.86723 12.3977 5.67C12.3977 5.47276 12.3459 5.279 12.2475 5.10821C12.1491 4.93741 12.0076 4.7956 11.8371 4.69704Z" fill="#01ACFD"/>
<path d="M11.8371 17.357L7.90936 15.0838L3.98144 12.8106C3.81112 12.7119 3.6179 12.66 3.42122 12.66C3.22453 12.66 3.0313 12.7119 2.86096 12.8105C2.69063 12.909 2.5492 13.0508 2.45086 13.2216C2.35252 13.3923 2.30076 13.586 2.30078 13.7832V22.8768C2.30078 23.0739 2.35254 23.2676 2.45088 23.4384C2.54921 23.6091 2.69066 23.7509 2.86098 23.8495C3.03131 23.9481 3.22452 24 3.4212 24C3.61788 24 3.8111 23.9481 3.98144 23.8496L7.90936 21.5763L11.8371 19.3031C12.0076 19.2045 12.1491 19.0627 12.2475 18.8919C12.3459 18.7211 12.3977 18.5273 12.3977 18.3301C12.3977 18.1328 12.3459 17.939 12.2475 17.7682C12.1491 17.5974 12.0076 17.4556 11.8371 17.357Z" fill="#01ACFD"/>
<path d="M23.0383 11.0272L19.1105 8.75378L15.1828 6.48054C15.0124 6.38194 14.8192 6.33002 14.6225 6.33002C14.4258 6.33001 14.2326 6.38191 14.0622 6.4805C13.8919 6.5791 13.7504 6.72091 13.652 6.89168C13.5537 7.06245 13.5019 7.25616 13.502 7.45335V16.5469C13.502 16.7441 13.5538 16.9377 13.6521 17.1085C13.7505 17.2792 13.8919 17.421 14.0623 17.5196C14.2326 17.6182 14.4258 17.6701 14.6225 17.6701C14.8192 17.6701 15.0124 17.6183 15.1828 17.5197L19.1105 15.2463L23.0383 12.9731C23.2087 12.8745 23.3503 12.7327 23.4487 12.5619C23.5471 12.3911 23.5989 12.1974 23.5989 12.0001C23.5989 11.8029 23.5471 11.6091 23.4487 11.4383C23.3503 11.2675 23.2087 11.1257 23.0383 11.0272Z" fill="#01ACFD"/>
</svg>
