<?xml version="1.0" encoding="utf-8"?>
<!-- Generator: Adobe Illustrator 25.2.0, SVG Export Plug-In . SVG Version: 6.00 Build 0)  -->
<svg version="1.1" id="Layer_1" xmlns="http://www.w3.org/2000/svg" xmlns:xlink="http://www.w3.org/1999/xlink" x="0px" y="0px"
	 viewBox="0 0 302 74" style="enable-background:new 0 0 302 74;" xml:space="preserve">
<style type="text/css">
	.st0{fill:#29313E;}
	.st1{opacity:0.75;fill:#FFFFFF;enable-background:new    ;}
	.st2{fill:#FFFFFF;}
	.st3{opacity:0.8;}
</style>
<path class="st0" d="M5,14C5,6.3,11.3,0,19,0h269c7.7,0,14,6.3,14,14v46c0,7.7-6.3,14-14,14H3.2c-1.2,0-1.8-1.4-0.9-2.3l0,0
	C4,70,5,67.6,5,65.1V14z"/>
<path class="st1" d="M20.6,52.7h-0.8V60h0.8V52.7z M24.4,60.1c1.1,0,1.9-0.6,2.2-1.4l-0.8-0.2c-0.2,0.6-0.7,0.9-1.4,0.9
	c-1,0-1.7-0.6-1.7-1.8h4v-0.4c0-2-1.2-2.7-2.3-2.7c-1.5,0-2.5,1.2-2.5,2.8C21.9,59,22.9,60.1,24.4,60.1z M22.7,56.8
	c0.1-0.8,0.7-1.6,1.6-1.6c0.9,0,1.5,0.7,1.5,1.6H22.7z M31.8,55.8c-0.3-0.8-0.9-1.3-1.9-1.3c-1.2,0-2,0.7-2,1.6
	c0,0.8,0.4,1.3,1.4,1.5l0.9,0.2c0.6,0.1,0.8,0.4,0.8,0.8c0,0.5-0.5,0.9-1.3,0.9c-0.7,0-1.1-0.3-1.3-0.9l-0.8,0.2
	c0.2,0.9,1,1.4,2.1,1.4c1.3,0,2.1-0.7,2.1-1.6c0-0.8-0.5-1.2-1.4-1.5l-0.8-0.2c-0.6-0.2-0.9-0.4-0.9-0.8c0-0.5,0.5-0.8,1.2-0.8
	c0.7,0,1,0.4,1.2,0.8L31.8,55.8z M37,55.8c-0.3-0.8-0.9-1.3-1.9-1.3c-1.2,0-2,0.7-2,1.6c0,0.8,0.4,1.3,1.4,1.5l0.9,0.2
	c0.6,0.1,0.8,0.4,0.8,0.8c0,0.5-0.5,0.9-1.3,0.9c-0.7,0-1.1-0.3-1.3-0.9l-0.8,0.2c0.2,0.9,1,1.4,2.1,1.4c1.3,0,2.1-0.7,2.1-1.6
	c0-0.8-0.5-1.2-1.4-1.5l-0.8-0.2C34.2,56.6,34,56.4,34,56c0-0.5,0.5-0.8,1.2-0.8c0.7,0,1,0.4,1.2,0.8L37,55.8z M43.6,54.5h-1.2v-1.3
	h-0.8v1.3h-0.8v0.7h0.8v3.4c0,1,0.8,1.4,1.5,1.4c0.3,0,0.5-0.1,0.6-0.1l-0.2-0.8c-0.1,0-0.2,0-0.4,0c-0.4,0-0.7-0.1-0.7-0.8v-3.2
	h1.2V54.5z M45.8,56.7c0-1,0.6-1.5,1.4-1.5c0.8,0,1.3,0.5,1.3,1.4V60h0.8v-3.5c0-1.4-0.7-2.1-1.9-2.1c-0.9,0-1.3,0.4-1.6,0.9h-0.1
	v-2.7H45V60h0.8V56.7z M52.5,60.1c1,0,1.4-0.5,1.6-0.9h0V60H55v-3.6c0-1.7-1.3-1.9-2-1.9c-0.8,0-1.8,0.3-2.2,1.3l0.8,0.3
	c0.2-0.4,0.6-0.8,1.4-0.8c0.8,0,1.2,0.4,1.2,1.1v0c0,0.4-0.4,0.4-1.4,0.5c-1,0.1-2.1,0.4-2.1,1.6C50.6,59.5,51.4,60.1,52.5,60.1z
	 M52.6,59.4c-0.7,0-1.2-0.3-1.2-0.9c0-0.6,0.6-0.8,1.2-0.9c0.4,0,1.3-0.1,1.4-0.3V58C54.1,58.7,53.6,59.4,52.6,59.4z M57.4,56.7
	c0-1,0.6-1.5,1.4-1.5c0.8,0,1.2,0.5,1.2,1.4V60h0.8v-3.5c0-1.4-0.7-2.1-1.8-2.1c-0.8,0-1.3,0.4-1.6,0.9h-0.1v-0.9h-0.8V60h0.8V56.7z
	 M65.2,60H66v-3.4c0-0.8,0.6-1.4,1.2-1.4c0.6,0,1.1,0.4,1.1,1V60h0.9v-3.6c0-0.7,0.4-1.2,1.2-1.2c0.6,0,1.1,0.3,1.1,1.1V60h0.8v-3.7
	c0-1.3-0.7-1.9-1.7-1.9c-0.8,0-1.4,0.4-1.6,0.9H69c-0.3-0.6-0.7-0.9-1.5-0.9c-0.7,0-1.2,0.3-1.5,0.9H66v-0.9h-0.8V60z M73.9,60h0.8
	v-5.5h-0.8V60z M74.3,53.6c0.3,0,0.6-0.3,0.6-0.6s-0.3-0.6-0.6-0.6s-0.6,0.3-0.6,0.6S74,53.6,74.3,53.6z M77.1,56.7
	c0-1,0.6-1.5,1.4-1.5c0.8,0,1.2,0.5,1.2,1.4V60h0.8v-3.5c0-1.4-0.7-2.1-1.8-2.1c-0.8,0-1.3,0.4-1.6,0.9h-0.1v-0.9h-0.8V60h0.8V56.7z
	 M85.5,57.8c0,1-0.8,1.5-1.4,1.5c-0.7,0-1.2-0.5-1.2-1.3v-3.4h-0.8V58c0,1.4,0.7,2.1,1.8,2.1c0.8,0,1.4-0.4,1.6-1h0.1V60h0.8v-5.5
	h-0.8V57.8z M90.3,54.5h-1.2v-1.3h-0.8v1.3h-0.8v0.7h0.8v3.4c0,1,0.8,1.4,1.5,1.4c0.3,0,0.5-0.1,0.6-0.1l-0.2-0.8
	c-0.1,0-0.2,0-0.4,0c-0.4,0-0.7-0.1-0.7-0.8v-3.2h1.2V54.5z M93.8,60.1c1.1,0,1.9-0.6,2.2-1.4l-0.8-0.2c-0.2,0.6-0.7,0.9-1.4,0.9
	c-1,0-1.7-0.6-1.7-1.8h4v-0.4c0-2-1.2-2.7-2.3-2.7c-1.5,0-2.5,1.2-2.5,2.8C91.2,59,92.2,60.1,93.8,60.1z M92.1,56.8
	c0.1-0.8,0.7-1.6,1.6-1.6c0.9,0,1.5,0.7,1.5,1.6H92.1z M101.7,60.1c1,0,1.4-0.5,1.6-0.9h0V60h0.8v-3.6c0-1.7-1.3-1.9-2-1.9
	c-0.8,0-1.8,0.3-2.2,1.3l0.8,0.3c0.2-0.4,0.6-0.8,1.4-0.8c0.8,0,1.2,0.4,1.2,1.1v0c0,0.4-0.4,0.4-1.4,0.5c-1,0.1-2.1,0.4-2.1,1.6
	C99.9,59.5,100.7,60.1,101.7,60.1z M101.8,59.4c-0.7,0-1.2-0.3-1.2-0.9c0-0.6,0.6-0.8,1.2-0.9c0.4,0,1.3-0.1,1.4-0.3V58
	C103.4,58.7,102.8,59.4,101.8,59.4z M107.9,62.2c1.3,0,2.4-0.6,2.4-2v-5.6h-0.8v0.9h-0.1c-0.2-0.3-0.5-0.9-1.6-0.9
	c-1.4,0-2.3,1.1-2.3,2.8c0,1.7,1,2.7,2.3,2.7c1.1,0,1.4-0.6,1.6-0.9h0.1v1.1c0,0.9-0.6,1.3-1.5,1.3c-1,0-1.3-0.5-1.6-0.8l-0.7,0.5
	C106.1,61.6,106.7,62.2,107.9,62.2z M107.9,59.2c-1.1,0-1.6-0.8-1.6-1.9c0-1.1,0.5-2,1.6-2c1,0,1.6,0.8,1.6,2
	C109.5,58.4,108.9,59.2,107.9,59.2z M114.1,60.1c1.5,0,2.5-1.1,2.5-2.8c0-1.7-1-2.8-2.5-2.8c-1.5,0-2.5,1.1-2.5,2.8
	C111.6,59,112.6,60.1,114.1,60.1z M114.1,59.4c-1.1,0-1.6-1-1.6-2.1c0-1.1,0.5-2.1,1.6-2.1s1.6,1,1.6,2.1
	C115.7,58.4,115.2,59.4,114.1,59.4z"/>
<g>
	<path class="st2" d="M20.3,13.4h1v5.4c0,2.1-1.1,2.8-2.4,2.8c-0.4,0-0.9-0.1-1.1-0.2l0.2-0.9c0.2,0.1,0.5,0.2,0.9,0.2
		c0.9,0,1.5-0.4,1.5-2V13.4z"/>
	<path class="st2" d="M26.3,21.5l-0.1-0.7h0c-0.3,0.5-0.9,0.9-1.8,0.9c-1.2,0-1.8-0.8-1.8-1.7c0-1.4,1.2-2.2,3.5-2.2v-0.1
		c0-0.5-0.1-1.3-1.3-1.3c-0.5,0-1.1,0.2-1.5,0.4l-0.2-0.7c0.5-0.3,1.2-0.5,1.9-0.5c1.8,0,2.2,1.2,2.2,2.4v2.2c0,0.5,0,1,0.1,1.4
		H26.3z M26.1,18.5c-1.2,0-2.5,0.2-2.5,1.3c0,0.7,0.5,1,1,1c0.8,0,1.2-0.5,1.4-1c0-0.1,0.1-0.2,0.1-0.3V18.5z"/>
	<path class="st2" d="M29.2,15.7l1.3,3.4c0.1,0.4,0.3,0.8,0.4,1.2h0c0.1-0.3,0.2-0.8,0.4-1.2l1.2-3.4h1.1l-1.6,4.1
		c-0.8,2-1.3,3-2,3.6c-0.5,0.5-1,0.6-1.3,0.7l-0.3-0.9c0.3-0.1,0.6-0.3,0.9-0.5c0.3-0.2,0.6-0.6,0.9-1.2c0-0.1,0.1-0.2,0.1-0.3
		c0-0.1,0-0.1-0.1-0.3L28,15.7H29.2z"/>
</g>
<g class="st3">
	<path class="st2" d="M19.7,33.1v3.4h3.9v-3.4h1.1v8.1h-1.1v-3.8h-3.9v3.8h-1v-8.1H19.7z"/>
	<path class="st2" d="M27.1,38.5c0,1.4,0.9,2,2,2c0.8,0,1.2-0.1,1.6-0.3l0.2,0.8c-0.4,0.2-1,0.4-1.9,0.4c-1.8,0-2.9-1.2-2.9-2.9
		c0-1.8,1-3.1,2.7-3.1c1.9,0,2.4,1.7,2.4,2.7c0,0.2,0,0.4,0,0.5H27.1z M30.2,37.7c0-0.7-0.3-1.7-1.5-1.7c-1.1,0-1.5,1-1.6,1.7H30.2z
		"/>
	<path class="st2" d="M32.9,35.4l1.3,3.4c0.1,0.4,0.3,0.8,0.4,1.2h0c0.1-0.3,0.2-0.8,0.4-1.2l1.2-3.4h1.1l-1.6,4.1
		c-0.8,2-1.3,3-2,3.6c-0.5,0.5-1,0.6-1.3,0.7L32,43c0.3-0.1,0.6-0.3,0.9-0.5c0.3-0.2,0.6-0.6,0.9-1.2c0-0.1,0.1-0.2,0.1-0.3
		c0-0.1,0-0.1-0.1-0.3l-2.1-5.3H32.9z"/>
	<path class="st2" d="M37.9,40.6c0-0.4,0.3-0.7,0.7-0.7c0.4,0,0.7,0.3,0.7,0.7c0,0.4-0.3,0.7-0.7,0.7C38.2,41.3,37.9,41,37.9,40.6z
		 M38.2,38.9l-0.2-5.8h1.2L39,38.9H38.2z"/>
	<path class="st2" d="M44.5,34h-2.5v-0.9h6V34h-2.5v7.2h-1.1V34z"/>
	<path class="st2" d="M48.8,32.7h1.1v3.6h0c0.2-0.3,0.4-0.6,0.8-0.7c0.3-0.2,0.7-0.3,1.1-0.3c0.8,0,2,0.5,2,2.5v3.5h-1.1v-3.3
		c0-0.9-0.3-1.7-1.3-1.7c-0.7,0-1.2,0.5-1.4,1.1c-0.1,0.1-0.1,0.3-0.1,0.5v3.5h-1.1V32.7z"/>
	<path class="st2" d="M58.7,41.2l-0.1-0.7h0c-0.3,0.5-0.9,0.9-1.8,0.9c-1.2,0-1.8-0.8-1.8-1.7c0-1.4,1.2-2.2,3.5-2.2v-0.1
		c0-0.5-0.1-1.3-1.3-1.3c-0.5,0-1.1,0.2-1.5,0.4l-0.2-0.7c0.5-0.3,1.2-0.5,1.9-0.5c1.8,0,2.2,1.2,2.2,2.4v2.2c0,0.5,0,1,0.1,1.4
		H58.7z M58.5,38.2c-1.2,0-2.5,0.2-2.5,1.3c0,0.7,0.5,1,1,1c0.8,0,1.2-0.5,1.4-1c0-0.1,0.1-0.2,0.1-0.3V38.2z"/>
	<path class="st2" d="M61.3,37c0-0.6,0-1.1,0-1.6h0.9l0.1,1h0c0.3-0.6,1-1.1,1.9-1.1c0.8,0,2.1,0.5,2.1,2.5v3.5h-1.1v-3.3
		c0-0.9-0.3-1.7-1.3-1.7c-0.7,0-1.2,0.5-1.4,1.1c0,0.1-0.1,0.3-0.1,0.5v3.5h-1.1V37z"/>
	<path class="st2" d="M69,38.1L69,38.1c0.2-0.2,0.4-0.5,0.5-0.7l1.7-2h1.3l-2.2,2.4l2.6,3.4h-1.3l-2-2.8L69,39v2.2h-1v-8.5h1V38.1z"
		/>
	<path class="st2" d="M73.4,40.1c0.3,0.2,0.9,0.4,1.4,0.4c0.8,0,1.1-0.4,1.1-0.9c0-0.5-0.3-0.8-1.1-1.1c-1-0.4-1.5-0.9-1.5-1.6
		c0-0.9,0.8-1.7,2-1.7c0.6,0,1.1,0.2,1.4,0.4l-0.3,0.8c-0.2-0.1-0.6-0.3-1.2-0.3c-0.6,0-1,0.4-1,0.8c0,0.5,0.3,0.7,1.1,1
		c1,0.4,1.5,0.9,1.5,1.8c0,1-0.8,1.7-2.2,1.7c-0.6,0-1.2-0.2-1.6-0.4L73.4,40.1z"/>
	<path class="st2" d="M81,41.2v-5h-0.8v-0.8H81v-0.3c0-0.8,0.2-1.6,0.7-2c0.4-0.4,0.9-0.5,1.4-0.5c0.4,0,0.7,0.1,0.9,0.2l-0.1,0.8
		c-0.2-0.1-0.4-0.1-0.7-0.1c-0.9,0-1.1,0.8-1.1,1.7v0.3h1.4v0.8H82v5H81z"/>
	<path class="st2" d="M89.5,38.3c0,2.1-1.5,3.1-2.9,3.1c-1.6,0-2.8-1.2-2.8-3c0-1.9,1.3-3.1,2.9-3.1C88.3,35.3,89.5,36.5,89.5,38.3z
		 M84.9,38.3c0,1.3,0.7,2.2,1.8,2.2c1,0,1.8-0.9,1.8-2.3c0-1-0.5-2.2-1.7-2.2C85.4,36.1,84.9,37.2,84.9,38.3z"/>
	<path class="st2" d="M90.8,37.2c0-0.7,0-1.3,0-1.8h0.9l0,1.1h0c0.3-0.8,0.9-1.3,1.6-1.3c0.1,0,0.2,0,0.3,0v1c-0.1,0-0.2,0-0.4,0
		c-0.7,0-1.3,0.6-1.4,1.4c0,0.1,0,0.3,0,0.5v3.1h-1V37.2z"/>
	<path class="st2" d="M97.3,32.7h1.1v8.5h-1.1V32.7z"/>
	<path class="st2" d="M100.7,38.5c0,1.4,0.9,2,2,2c0.8,0,1.2-0.1,1.6-0.3l0.2,0.8c-0.4,0.2-1,0.4-1.9,0.4c-1.8,0-2.9-1.2-2.9-2.9
		c0-1.8,1-3.1,2.7-3.1c1.9,0,2.4,1.7,2.4,2.7c0,0.2,0,0.4,0,0.5H100.7z M103.8,37.7c0-0.7-0.3-1.7-1.5-1.7c-1.1,0-1.5,1-1.6,1.7
		H103.8z"/>
	<path class="st2" d="M107.4,33.7v1.7h1.5v0.8h-1.5v3.1c0,0.7,0.2,1.1,0.8,1.1c0.3,0,0.5,0,0.6-0.1l0,0.8c-0.2,0.1-0.5,0.1-0.9,0.1
		c-0.5,0-0.9-0.2-1.1-0.4c-0.3-0.3-0.4-0.8-0.4-1.5v-3.2h-0.9v-0.8h0.9V34L107.4,33.7z"/>
	<path class="st2" d="M111.3,33.7v1.7h1.5v0.8h-1.5v3.1c0,0.7,0.2,1.1,0.8,1.1c0.3,0,0.5,0,0.6-0.1l0,0.8c-0.2,0.1-0.5,0.1-0.9,0.1
		c-0.5,0-0.9-0.2-1.1-0.4c-0.3-0.3-0.4-0.8-0.4-1.5v-3.2h-0.9v-0.8h0.9V34L111.3,33.7z"/>
	<path class="st2" d="M115.2,33.8c0,0.4-0.3,0.6-0.7,0.6c-0.4,0-0.6-0.3-0.6-0.6c0-0.4,0.3-0.7,0.7-0.7
		C115,33.1,115.2,33.4,115.2,33.8z M114,41.2v-5.8h1.1v5.8H114z"/>
	<path class="st2" d="M116.9,37c0-0.6,0-1.1,0-1.6h0.9l0.1,1h0c0.3-0.6,1-1.1,1.9-1.1c0.8,0,2.1,0.5,2.1,2.5v3.5h-1.1v-3.3
		c0-0.9-0.3-1.7-1.3-1.7c-0.7,0-1.2,0.5-1.4,1.1c0,0.1-0.1,0.3-0.1,0.5v3.5h-1.1V37z"/>
	<path class="st2" d="M128.5,35.4c0,0.4,0,0.9,0,1.6v3.4c0,1.3-0.3,2.1-0.8,2.7c-0.6,0.5-1.4,0.7-2.1,0.7c-0.7,0-1.5-0.2-1.9-0.5
		l0.3-0.8c0.4,0.2,1,0.5,1.7,0.5c1.1,0,1.9-0.6,1.9-2v-0.6h0c-0.3,0.5-0.9,1-1.8,1c-1.4,0-2.5-1.2-2.5-2.8c0-2,1.3-3.1,2.6-3.1
		c1,0,1.6,0.5,1.8,1h0l0-0.9H128.5z M127.4,37.7c0-0.2,0-0.3-0.1-0.5c-0.2-0.6-0.7-1.1-1.5-1.1c-1,0-1.7,0.9-1.7,2.2
		c0,1.1,0.6,2.1,1.7,2.1c0.6,0,1.2-0.4,1.5-1.1c0.1-0.2,0.1-0.4,0.1-0.6V37.7z"/>
	<path class="st2" d="M132.8,37c0-0.6,0-1.1,0-1.6h0.9l0,0.9h0c0.3-0.6,0.9-1.1,1.8-1.1c0.8,0,1.4,0.5,1.6,1.2h0
		c0.2-0.3,0.4-0.6,0.6-0.8c0.3-0.3,0.7-0.4,1.3-0.4c0.8,0,1.9,0.5,1.9,2.5v3.4h-1v-3.3c0-1.1-0.4-1.8-1.3-1.8c-0.6,0-1.1,0.4-1.2,1
		c0,0.1-0.1,0.3-0.1,0.5v3.6h-1v-3.5c0-0.9-0.4-1.6-1.2-1.6c-0.7,0-1.1,0.5-1.3,1.1c-0.1,0.2-0.1,0.3-0.1,0.5v3.5h-1V37z"/>
	<path class="st2" d="M143.4,38.5c0,1.4,0.9,2,2,2c0.8,0,1.2-0.1,1.6-0.3l0.2,0.8c-0.4,0.2-1,0.4-1.9,0.4c-1.8,0-2.9-1.2-2.9-2.9
		c0-1.8,1-3.1,2.7-3.1c1.9,0,2.4,1.7,2.4,2.7c0,0.2,0,0.4,0,0.5H143.4z M146.5,37.7c0-0.7-0.3-1.7-1.5-1.7c-1.1,0-1.5,1-1.6,1.7
		H146.5z"/>
	<path class="st2" d="M152.4,38.1L152.4,38.1c0.2-0.2,0.4-0.5,0.5-0.7l1.7-2h1.3l-2.2,2.4l2.6,3.4h-1.3l-2-2.8l-0.5,0.6v2.2h-1v-8.5
		h1V38.1z"/>
	<path class="st2" d="M157.2,37c0-0.6,0-1.1,0-1.6h0.9l0.1,1h0c0.3-0.6,1-1.1,1.9-1.1c0.8,0,2.1,0.5,2.1,2.5v3.5H161v-3.3
		c0-0.9-0.3-1.7-1.3-1.7c-0.7,0-1.2,0.5-1.4,1.1c0,0.1-0.1,0.3-0.1,0.5v3.5h-1.1V37z"/>
	<path class="st2" d="M169.1,38.3c0,2.1-1.5,3.1-2.9,3.1c-1.6,0-2.8-1.2-2.8-3c0-1.9,1.3-3.1,2.9-3.1
		C167.9,35.3,169.1,36.5,169.1,38.3z M164.5,38.3c0,1.3,0.7,2.2,1.8,2.2c1,0,1.8-0.9,1.8-2.3c0-1-0.5-2.2-1.7-2.2
		C165,36.1,164.5,37.2,164.5,38.3z"/>
	<path class="st2" d="M170.7,35.4l0.8,3c0.2,0.6,0.3,1.2,0.4,1.8h0c0.1-0.6,0.3-1.2,0.5-1.8l0.9-3h0.9l0.9,2.9
		c0.2,0.7,0.4,1.3,0.5,1.9h0c0.1-0.6,0.3-1.2,0.4-1.9l0.8-2.9h1l-1.9,5.8h-1l-0.9-2.8c-0.2-0.6-0.4-1.2-0.5-1.9h0
		c-0.1,0.7-0.3,1.3-0.5,1.9l-0.9,2.8h-1l-1.8-5.8H170.7z"/>
	<path class="st2" d="M178,42.7c0.3-0.7,0.6-2,0.7-2.9l1.2-0.1c-0.3,1-0.8,2.4-1.1,2.9L178,42.7z"/>
	<path class="st2" d="M183.7,32.7h1.1v8.5h-1.1V32.7z"/>
	<path class="st2" d="M187.1,38.5c0,1.4,0.9,2,2,2c0.8,0,1.2-0.1,1.6-0.3l0.2,0.8c-0.4,0.2-1,0.4-1.9,0.4c-1.8,0-2.9-1.2-2.9-2.9
		c0-1.8,1-3.1,2.7-3.1c1.9,0,2.4,1.7,2.4,2.7c0,0.2,0,0.4,0,0.5H187.1z M190.2,37.7c0-0.7-0.3-1.7-1.5-1.7c-1.1,0-1.5,1-1.6,1.7
		H190.2z"/>
	<path class="st2" d="M193.8,33.7v1.7h1.5v0.8h-1.5v3.1c0,0.7,0.2,1.1,0.8,1.1c0.3,0,0.5,0,0.6-0.1l0,0.8c-0.2,0.1-0.5,0.1-0.9,0.1
		c-0.5,0-0.9-0.2-1.1-0.4c-0.3-0.3-0.4-0.8-0.4-1.5v-3.2h-0.9v-0.8h0.9V34L193.8,33.7z"/>
	<path class="st2" d="M198.1,33c-0.3,1-0.8,2.3-1.1,2.8l-0.7,0.1c0.3-0.7,0.6-2,0.7-2.8L198.1,33z"/>
	<path class="st2" d="M198.3,40.1c0.3,0.2,0.9,0.4,1.4,0.4c0.8,0,1.1-0.4,1.1-0.9c0-0.5-0.3-0.8-1.1-1.1c-1-0.4-1.5-0.9-1.5-1.6
		c0-0.9,0.8-1.7,2-1.7c0.6,0,1.1,0.2,1.4,0.4l-0.3,0.8c-0.2-0.1-0.6-0.3-1.2-0.3c-0.6,0-1,0.4-1,0.8c0,0.5,0.3,0.7,1.1,1
		c1,0.4,1.5,0.9,1.5,1.8c0,1-0.8,1.7-2.2,1.7c-0.6,0-1.2-0.2-1.6-0.4L198.3,40.1z"/>
	<path class="st2" d="M205.7,37.3c0-0.7,0-1.3,0-1.9h0.9l0,1h0c0.4-0.7,1.1-1.1,2.1-1.1c1.4,0,2.5,1.2,2.5,3c0,2.1-1.3,3.1-2.6,3.1
		c-0.8,0-1.4-0.3-1.8-0.9h0v3.2h-1V37.3z M206.7,38.8c0,0.2,0,0.3,0,0.4c0.2,0.7,0.8,1.2,1.6,1.2c1.1,0,1.8-0.9,1.8-2.2
		c0-1.2-0.6-2.2-1.7-2.2c-0.7,0-1.4,0.5-1.6,1.3c0,0.1-0.1,0.3-0.1,0.4V38.8z"/>
	<path class="st2" d="M217.4,39.6c0,0.6,0,1.1,0,1.6h-0.9l-0.1-0.9h0c-0.3,0.5-0.9,1.1-1.9,1.1c-0.9,0-2-0.5-2-2.5v-3.4h1.1v3.2
		c0,1.1,0.3,1.8,1.3,1.8c0.7,0,1.2-0.5,1.4-1c0.1-0.2,0.1-0.3,0.1-0.5v-3.6h1.1V39.6z"/>
	<path class="st2" d="M219.1,37.2c0-0.7,0-1.3,0-1.8h0.9l0,1.1h0c0.3-0.8,0.9-1.3,1.6-1.3c0.1,0,0.2,0,0.3,0v1c-0.1,0-0.2,0-0.4,0
		c-0.7,0-1.3,0.6-1.4,1.4c0,0.1,0,0.3,0,0.5v3.1h-1V37.2z"/>
	<path class="st2" d="M227.1,41c-0.3,0.1-0.9,0.3-1.7,0.3c-1.8,0-2.9-1.2-2.9-3c0-1.8,1.2-3.1,3.1-3.1c0.6,0,1.2,0.2,1.5,0.3
		l-0.2,0.8c-0.3-0.1-0.6-0.3-1.2-0.3c-1.3,0-2.1,1-2.1,2.2c0,1.3,0.9,2.2,2,2.2c0.6,0,1-0.2,1.3-0.3L227.1,41z"/>
	<path class="st2" d="M228.3,32.7h1.1v3.6h0c0.2-0.3,0.4-0.6,0.8-0.7c0.3-0.2,0.7-0.3,1.1-0.3c0.8,0,2,0.5,2,2.5v3.5h-1.1v-3.3
		c0-0.9-0.3-1.7-1.3-1.7c-0.7,0-1.2,0.5-1.4,1.1c-0.1,0.1-0.1,0.3-0.1,0.5v3.5h-1.1V32.7z"/>
	<path class="st2" d="M238.2,41.2l-0.1-0.7h0c-0.3,0.5-0.9,0.9-1.8,0.9c-1.2,0-1.8-0.8-1.8-1.7c0-1.4,1.2-2.2,3.5-2.2v-0.1
		c0-0.5-0.1-1.3-1.3-1.3c-0.5,0-1.1,0.2-1.5,0.4l-0.2-0.7c0.5-0.3,1.2-0.5,1.9-0.5c1.8,0,2.2,1.2,2.2,2.4v2.2c0,0.5,0,1,0.1,1.4
		H238.2z M238,38.2c-1.2,0-2.5,0.2-2.5,1.3c0,0.7,0.5,1,1,1c0.8,0,1.2-0.5,1.4-1c0-0.1,0.1-0.2,0.1-0.3V38.2z"/>
	<path class="st2" d="M240.6,40.1c0.3,0.2,0.9,0.4,1.4,0.4c0.8,0,1.1-0.4,1.1-0.9c0-0.5-0.3-0.8-1.1-1.1c-1-0.4-1.5-0.9-1.5-1.6
		c0-0.9,0.8-1.7,2-1.7c0.6,0,1.1,0.2,1.4,0.4l-0.3,0.8c-0.2-0.1-0.6-0.3-1.2-0.3c-0.6,0-1,0.4-1,0.8c0,0.5,0.3,0.7,1.1,1
		c1,0.4,1.5,0.9,1.5,1.8c0,1-0.8,1.7-2.2,1.7c-0.6,0-1.2-0.2-1.6-0.4L240.6,40.1z"/>
	<path class="st2" d="M246.1,38.5c0,1.4,0.9,2,2,2c0.8,0,1.2-0.1,1.6-0.3l0.2,0.8c-0.4,0.2-1,0.4-1.9,0.4c-1.8,0-2.9-1.2-2.9-2.9
		c0-1.8,1-3.1,2.7-3.1c1.9,0,2.4,1.7,2.4,2.7c0,0.2,0,0.4,0,0.5H246.1z M249.2,37.7c0-0.7-0.3-1.7-1.5-1.7c-1.1,0-1.5,1-1.6,1.7
		H249.2z"/>
	<path class="st2" d="M255.2,33.8c0,0.4-0.3,0.6-0.7,0.6c-0.4,0-0.6-0.3-0.6-0.6c0-0.4,0.3-0.7,0.7-0.7
		C255,33.1,255.2,33.4,255.2,33.8z M254.1,41.2v-5.8h1.1v5.8H254.1z"/>
	<path class="st2" d="M258.2,33.7v1.7h1.5v0.8h-1.5v3.1c0,0.7,0.2,1.1,0.8,1.1c0.3,0,0.5,0,0.6-0.1l0,0.8c-0.2,0.1-0.5,0.1-0.9,0.1
		c-0.5,0-0.9-0.2-1.1-0.4c-0.3-0.3-0.4-0.8-0.4-1.5v-3.2h-0.9v-0.8h0.9V34L258.2,33.7z"/>
	<path class="st2" d="M260.7,40.6c0-0.4,0.3-0.7,0.7-0.7c0.4,0,0.7,0.3,0.7,0.7c0,0.4-0.3,0.7-0.7,0.7
		C260.9,41.3,260.7,41,260.7,40.6z M261,38.9l-0.2-5.8h1.2l-0.2,5.8H261z"/>
</g>
</svg>
