<svg width="24" height="24" viewBox="0 0 24 24" fill="none" xmlns="http://www.w3.org/2000/svg">
<path d="M20.317 4.36993C18.7873 3.66805 17.147 3.15093 15.4319 2.85476C15.4007 2.84904 15.3695 2.86333 15.3534 2.8919C15.1424 3.26711 14.9087 3.75661 14.7451 4.14135C12.9004 3.86519 11.0652 3.86519 9.25832 4.14135C9.09465 3.74806 8.85248 3.26711 8.64057 2.8919C8.62449 2.86428 8.59328 2.85 8.56205 2.85476C6.84791 3.14999 5.20756 3.6671 3.67693 4.36993C3.66368 4.37564 3.65233 4.38517 3.64479 4.39755C0.533392 9.04591 -0.31895 13.58 0.0991801 18.0579C0.101072 18.0798 0.11337 18.1008 0.130398 18.1141C2.18321 19.6216 4.17171 20.5368 6.12328 21.1435C6.15451 21.153 6.18761 21.1416 6.20748 21.1158C6.66913 20.4854 7.08064 19.8207 7.43348 19.1216C7.4543 19.0807 7.43442 19.0321 7.39186 19.0159C6.73913 18.7683 6.1176 18.4664 5.51973 18.1236C5.47244 18.096 5.46865 18.0284 5.51216 17.996C5.63797 17.9017 5.76382 17.8036 5.88396 17.7046C5.90569 17.6865 5.93598 17.6827 5.96153 17.6941C9.88928 19.4874 14.1415 19.4874 18.023 17.6941C18.0485 17.6817 18.0788 17.6855 18.1015 17.7036C18.2216 17.8027 18.3475 17.9017 18.4742 17.996C18.5177 18.0284 18.5149 18.096 18.4676 18.1236C17.8697 18.4731 17.2482 18.7683 16.5945 19.015C16.552 19.0312 16.533 19.0807 16.5538 19.1216C16.9143 19.8197 17.3258 20.4844 17.7789 21.1149C17.7978 21.1416 17.8319 21.153 17.8631 21.1435C19.8241 20.5368 21.8126 19.6216 23.8654 18.1141C23.8834 18.1008 23.8948 18.0808 23.8967 18.0589C24.3971 12.8819 23.0585 8.38499 20.3482 4.39849C20.3416 4.38517 20.3303 4.37564 20.317 4.36993ZM8.02002 15.3313C6.8375 15.3313 5.86313 14.2457 5.86313 12.9124C5.86313 11.5791 6.8186 10.4935 8.02002 10.4935C9.23087 10.4935 10.1958 11.5887 10.1769 12.9124C10.1769 14.2457 9.22141 15.3313 8.02002 15.3313ZM15.9947 15.3313C14.8123 15.3313 13.8379 14.2457 13.8379 12.9124C13.8379 11.5791 14.7933 10.4935 15.9947 10.4935C17.2056 10.4935 18.1705 11.5887 18.1516 12.9124C18.1516 14.2457 17.2056 15.3313 15.9947 15.3313Z" fill="white"/>
</svg>
