<svg width="24" height="24" viewBox="0 0 24 24" fill="none" xmlns="http://www.w3.org/2000/svg">
<path fill-rule="evenodd" clip-rule="evenodd" d="M16.9395 0C17.0939 1.40647 16.5286 2.81846 15.6902 3.83333C14.8518 4.84544 13.4757 5.63693 12.1326 5.53213C11.9479 4.15324 12.629 2.71643 13.404 1.82014C14.2699 0.805275 15.7316 0.0496403 16.9395 0ZM21.2905 8.19365C21.0606 8.33488 18.6825 9.79578 18.7093 12.752C18.7424 16.3771 21.8873 17.5864 21.9303 17.6029L21.9304 17.6029C21.9293 17.6065 21.9273 17.6129 21.9245 17.6219C21.8615 17.8264 21.3771 19.3977 20.2702 21.0171C19.2692 22.4787 18.2322 23.9348 16.5969 23.9679C15.8128 23.9827 15.2881 23.7554 14.7423 23.5189C14.1707 23.2713 13.5762 23.0137 12.6367 23.0137C11.6528 23.0137 11.0314 23.2788 10.4324 23.5343C9.91322 23.7558 9.41091 23.9701 8.70405 23.9983C7.12384 24.0589 5.9242 22.418 4.91484 20.9619C2.85202 17.9808 1.27732 12.5396 3.39254 8.87176C4.44326 7.0461 6.32132 5.89335 8.35933 5.86301C9.23807 5.84581 10.0884 6.18322 10.833 6.47865C11.4017 6.7043 11.9087 6.90546 12.3195 6.90546C12.6881 6.90546 13.1821 6.71061 13.7578 6.48349C14.6638 6.12608 15.7724 5.68875 16.914 5.8051C17.6972 5.83819 19.8924 6.11949 21.3044 8.18507C21.3014 8.18696 21.2968 8.18982 21.2905 8.19365Z" fill="#01ACFD"/>
</svg>
