<svg width="240" height="60" viewBox="0 0 240 60" fill="none" xmlns="http://www.w3.org/2000/svg">
<path d="M70.0469 29.9693C70.0469 34.9773 73.5405 38.2935 78.1987 38.2935C82.2404 38.2935 85.4372 35.9248 86.0537 32.0221H82.4916C82.012 34.0299 80.368 35.1578 78.1987 35.1578C75.2303 35.1578 73.5634 33.1275 73.5634 29.9693C73.5634 26.811 75.2303 24.7807 78.1987 24.7807C80.368 24.7807 82.012 25.9087 82.4916 27.9164H86.0537C85.4372 24.0137 82.2404 21.645 78.1987 21.645C73.5405 21.645 70.0469 24.9612 70.0469 29.9693Z" fill="white"/>
<path d="M93.1853 38.271C97.0215 38.271 99.4648 35.4511 99.4648 32.0898C99.4648 28.7285 97.0215 25.9087 93.1853 25.9087C89.3492 25.9087 86.9059 28.7285 86.9059 32.0898C86.9059 35.4511 89.3492 38.271 93.1853 38.271ZM90.1484 32.0898C90.1484 29.9693 91.4728 28.7285 93.1853 28.7285C94.8979 28.7285 96.2223 29.9693 96.2223 32.0898C96.2223 34.2103 94.8979 35.4511 93.1853 35.4511C91.4728 35.4511 90.1484 34.2103 90.1484 32.0898Z" fill="white"/>
<path d="M109.289 27.4427C108.673 26.6305 107.44 25.9087 105.75 25.9087C102.279 25.9087 100.247 28.6609 100.247 32.0898C100.247 35.5188 102.279 38.271 105.75 38.271C107.44 38.271 108.787 37.6393 109.541 36.5565V38.0002H112.532V21.0811H109.289V27.4427ZM109.381 32.0898C109.381 34.0073 108.239 35.4511 106.435 35.4511C104.631 35.4511 103.489 34.0073 103.489 32.0898C103.489 30.1723 104.631 28.7285 106.435 28.7285C108.239 28.7285 109.381 30.1723 109.381 32.0898Z" fill="white"/>
<path d="M125.953 33.0147C125.953 33.0147 125.999 32.5861 125.999 32.0672C125.999 28.5706 123.601 25.9087 120.062 25.9087C116.523 25.9087 114.056 28.5706 114.056 32.0672C114.056 35.6992 116.545 38.271 120.085 38.271C122.848 38.271 125.04 36.6242 125.748 34.2329H122.482C122.094 35.0901 121.158 35.5188 120.176 35.5188C118.555 35.5188 117.504 34.639 117.276 33.0147H125.953ZM120.039 28.4804C121.546 28.4804 122.528 29.3827 122.756 30.7137H117.322C117.596 29.3602 118.555 28.4804 120.039 28.4804Z" fill="white"/>
<path d="M133.259 35.3834C131.158 35.3834 130.199 34.2329 130.107 32.9245H126.819C126.911 35.5639 128.578 38.3161 133.076 38.3161C136.935 38.3161 139.492 36.2858 139.492 33.4208C139.492 27.0592 130.724 29.5858 130.724 26.3824C130.724 25.3447 131.729 24.5777 133.304 24.5777C135.04 24.5777 136.044 25.5928 136.113 26.9915H139.378C139.287 24.104 137.14 21.645 133.35 21.645C129.605 21.645 127.436 23.8784 127.436 26.5854C127.436 32.8568 136.113 30.3753 136.113 33.5336C136.113 34.7066 135.04 35.3834 133.259 35.3834Z" fill="white"/>
<path d="M149.854 26.1794V27.6231C149.1 26.5403 147.753 25.9087 146.063 25.9087C142.592 25.9087 140.56 28.6609 140.56 32.0898C140.56 35.5188 142.592 38.271 146.063 38.271C147.753 38.271 149.1 37.6393 149.854 36.5565V38.0002H152.845V26.1794H149.854ZM149.694 32.0898C149.694 34.0073 148.552 35.4511 146.748 35.4511C144.944 35.4511 143.803 34.0073 143.803 32.0898C143.803 30.1723 144.944 28.7285 146.748 28.7285C148.552 28.7285 149.694 30.1723 149.694 32.0898Z" fill="white"/>
<path d="M158.114 26.1794H155.123V38.0002H158.366V31.2326C158.366 29.6534 159.233 28.6609 160.809 28.6609C162.247 28.6609 162.841 29.6083 162.841 30.9844V38.0002H166.084V30.6235C166.084 27.8036 164.554 25.9087 161.677 25.9087C159.896 25.9087 158.662 26.608 158.114 27.6231V26.1794Z" fill="white"/>
<path d="M176.552 27.4427C175.936 26.6305 174.703 25.9087 173.013 25.9087C169.542 25.9087 167.51 28.6609 167.51 32.0898C167.51 35.5188 169.542 38.271 173.013 38.271C174.703 38.271 176.05 37.6393 176.804 36.5565V38.0002H179.795V21.0811H176.552V27.4427ZM176.644 32.0898C176.644 34.0073 175.502 35.4511 173.698 35.4511C171.894 35.4511 170.753 34.0073 170.753 32.0898C170.753 30.1723 171.894 28.7285 173.698 28.7285C175.502 28.7285 176.644 30.1723 176.644 32.0898Z" fill="white"/>
<path d="M185.315 27.4427V21.0811H182.073V38.0002H185.064V36.5565C185.818 37.6393 187.165 38.271 188.855 38.271C192.326 38.271 194.358 35.5188 194.358 32.0898C194.358 28.6609 192.326 25.9087 188.855 25.9087C187.165 25.9087 185.932 26.6305 185.315 27.4427ZM185.224 32.0898C185.224 30.1723 186.366 28.7285 188.17 28.7285C189.974 28.7285 191.115 30.1723 191.115 32.0898C191.115 34.0073 189.974 35.4511 188.17 35.4511C186.366 35.4511 185.224 34.0073 185.224 32.0898Z" fill="white"/>
<path d="M201.408 38.271C205.244 38.271 207.688 35.4511 207.688 32.0898C207.688 28.7285 205.244 25.9087 201.408 25.9087C197.572 25.9087 195.129 28.7285 195.129 32.0898C195.129 35.4511 197.572 38.271 201.408 38.271ZM198.371 32.0898C198.371 29.9693 199.696 28.7285 201.408 28.7285C203.121 28.7285 204.445 29.9693 204.445 32.0898C204.445 34.2103 203.121 35.4511 201.408 35.4511C199.696 35.4511 198.371 34.2103 198.371 32.0898Z" fill="white"/>
<path d="M219.849 26.1794H215.945L213.57 29.5632L211.195 26.1794H207.291L211.743 31.9996L207.154 38.0002H211.058L213.57 34.4134L216.082 38.0002H219.986L215.397 31.9996L219.849 26.1794Z" fill="white"/>
<g clip-path="url(#clip0)">
<path fill-rule="evenodd" clip-rule="evenodd" d="M43.5527 30.7281V52.5833C43.9379 52.5833 44.191 52.5007 44.5368 52.3056L62.2505 42.3057C62.9498 41.9097 63.235 41.2965 63.235 40.5V20.2222C63.235 19.8227 63.1498 19.5837 62.9534 19.25L44.1193 29.7634C43.769 29.9612 43.5527 30.3294 43.5527 30.7281V30.7281ZM53.3936 43.2778C53.3936 43.8333 53.1828 44.1111 52.6907 44.389L46.7861 47.7223C46.3645 47.9999 45.8021 47.8612 45.8021 47.3055V32.4444C45.8021 32.0468 46.1562 31.5317 46.5049 31.3333L60.0012 23.6945C60.3761 23.4813 60.704 23.8227 60.704 24.25V32.1668C60.704 32.577 60.5082 32.9458 60.1416 33.139L54.0966 36.3334C53.73 36.5265 53.3936 36.8951 53.3936 37.3056V43.2778Z" fill="white"/>
<path fill-rule="evenodd" clip-rule="evenodd" d="M23.8691 40.5V20.2223C23.8691 19.4248 24.293 18.6735 24.9938 18.2778L42.1451 8.69452C42.5146 8.50105 43.1291 8.41675 43.551 8.41675C43.9728 8.41675 44.6233 8.51994 44.9568 8.69453L61.9675 18.2778C62.304 18.4743 62.7613 18.9269 62.9516 19.2501L44.1132 29.8057C43.7629 30.0035 43.551 30.3791 43.551 30.7779V52.5835C43.1658 52.5835 42.7721 52.5007 42.4263 52.3057L25.1344 42.4446C24.4336 42.0488 23.8691 41.2975 23.8691 40.5V40.5ZM26.3997 24.2501V32.1668C26.3997 32.7222 26.5403 33.0001 27.1026 33.2779L33.0071 36.6112C33.5695 36.889 33.71 37.3056 33.71 37.7223V43.2779C33.71 43.8333 33.8506 44.1112 34.413 44.389L40.3175 47.7223C40.8798 48.0001 41.3016 47.8612 41.3016 47.3056V32.4446C41.3016 32.0279 41.161 31.6111 40.5988 31.3335L27.3837 23.8334C26.962 23.5556 26.3997 23.6945 26.3997 24.2501V24.2501ZM49.4555 14.8056L44.2538 17.7223C43.8322 18.0001 43.2697 18.0001 42.8481 17.7223L37.6464 14.8056C37.304 14.6144 36.8647 14.6154 36.5217 14.8056L30.0549 18.4167C29.4925 18.6945 29.4925 19.2501 30.0549 19.5279L42.9885 26.889C43.3347 27.0847 43.7672 27.0847 44.1132 26.889L57.047 19.5279C57.4688 19.2501 57.6094 18.6945 57.047 18.4167L50.5802 14.8056C50.2372 14.6154 49.7979 14.6144 49.4555 14.8056V14.8056Z" fill="white"/>
</g>
<defs>
<clipPath id="clip0">
<rect width="39.108" height="45" fill="white" transform="translate(24 8)"/>
</clipPath>
</defs>
</svg>
