<svg width="48" height="48" viewBox="0 0 48 48" fill="none" xmlns="http://www.w3.org/2000/svg">
<circle cx="24" cy="24" r="24" fill="#081120"/>
<path fill-rule="evenodd" clip-rule="evenodd" d="M27.9395 11C28.0939 12.4065 27.5286 13.8185 26.6902 14.8333C25.8518 15.8454 24.4757 16.6369 23.1326 16.5321C22.9479 15.1532 23.629 13.7164 24.404 12.8201C25.2699 11.8053 26.7316 11.0496 27.9395 11ZM32.2905 19.1937C32.0606 19.3349 29.6825 20.7958 29.7093 23.752C29.7424 27.3771 32.8873 28.5864 32.9303 28.6029L32.9304 28.6029C32.9293 28.6065 32.9273 28.6129 32.9245 28.6219C32.8615 28.8264 32.3771 30.3977 31.2702 32.0171C30.2692 33.4787 29.2322 34.9348 27.5969 34.9679C26.8128 34.9827 26.2881 34.7554 25.7423 34.5189C25.1707 34.2713 24.5762 34.0137 23.6367 34.0137C22.6528 34.0137 22.0314 34.2788 21.4324 34.5343C20.9132 34.7558 20.4109 34.9701 19.7041 34.9983C18.1238 35.0589 16.9242 33.418 15.9148 31.9619C13.852 28.9808 12.2773 23.5396 14.3925 19.8718C15.4433 18.0461 17.3213 16.8933 19.3593 16.863C20.2381 16.8458 21.0884 17.1832 21.833 17.4787C22.4017 17.7043 22.9087 17.9055 23.3195 17.9055C23.6881 17.9055 24.1821 17.7106 24.7578 17.4835C25.6638 17.1261 26.7724 16.6887 27.914 16.8051C28.6972 16.8382 30.8924 17.1195 32.3044 19.1851C32.3014 19.187 32.2968 19.1898 32.2905 19.1937Z" fill="white"/>
</svg>
