<svg width="25" height="24" viewBox="0 0 25 24" fill="none" xmlns="http://www.w3.org/2000/svg">
<path d="M19.6371 8.72727L21.0007 5.72727L24.0007 4.36364L21.0007 3L19.6371 0L18.2734 3L15.2734 4.36364L18.2734 5.72727L19.6371 8.72727Z" fill="white"/>
<path d="M19.6371 15.2727L18.2734 18.2727L15.2734 19.6363L18.2734 21L19.6371 24L21.0007 21L24.0007 19.6363L21.0007 18.2727L19.6371 15.2727Z" fill="white"/>
<path d="M11.4545 9.27271L8.72727 3.27271L6 9.27271L0 12L6 14.7273L8.72727 20.7273L11.4545 14.7273L17.4545 12L11.4545 9.27271ZM9.80727 13.08L8.72727 15.4582L7.64727 13.08L5.26909 12L7.64727 10.92L8.72727 8.5418L9.80727 10.92L12.1855 12L9.80727 13.08Z" fill="white"/>
</svg>
