<svg width="24" height="26" viewBox="0 0 24 26" fill="none" xmlns="http://www.w3.org/2000/svg">
<mask id="path-1-outside-1" maskUnits="userSpaceOnUse" x="0.849609" y="0.156738" width="22" height="26" fill="black">
<rect fill="white" x="0.849609" y="0.156738" width="22" height="26"/>
<path fill-rule="evenodd" clip-rule="evenodd" d="M9.57118 23.7792C9.93108 23.7047 10.2955 23.6388 10.6637 23.6303L10.6645 23.6295C10.6897 23.6289 10.7149 23.6286 10.7401 23.6282H10.7401H10.7402C10.8042 23.6274 10.8683 23.6265 10.932 23.6211C11.1828 23.6487 11.4354 23.6585 11.6882 23.6486C12.9047 23.6006 14.0541 23.0978 15.0447 22.3737C14.9785 22.7566 14.9214 23.1422 14.9219 23.5304C14.9223 23.8065 14.9555 24.0933 15.1013 24.3277C15.2464 24.5612 15.4889 24.7184 15.741 24.8282C16.1009 24.9849 16.5018 25.0603 16.8898 25.002C17.2087 24.9541 17.5111 24.8173 17.7727 24.6285C17.9714 24.4848 18.1467 24.3126 18.3219 24.1404C18.3751 24.0881 18.4283 24.0358 18.4822 23.9843C18.7524 23.7261 19.0415 23.4863 19.3546 23.282C19.6944 23.0604 20.0595 22.8823 20.4246 22.7043L20.4246 22.7043C20.5616 22.6374 20.6987 22.5706 20.8344 22.5014C21.1259 22.3528 21.4186 22.1877 21.6294 21.9375C21.7249 21.8241 21.8018 21.695 21.8556 21.5568L21.8556 21.5569C21.8862 21.4269 21.8662 21.2857 21.8007 21.1692C21.7525 21.0834 21.6815 21.0122 21.6043 20.9511C21.5487 20.9072 21.4898 20.8679 21.4308 20.8287C21.4078 20.8133 21.3847 20.798 21.3619 20.7824C21.1886 20.6641 21.0271 20.5295 20.8665 20.3945C20.7061 20.2589 20.5439 20.1217 20.4089 19.9601C20.2738 19.7985 20.1652 19.6098 20.1254 19.403C20.1092 19.3183 20.1047 19.2322 20.1001 19.146V19.146C20.0979 19.1041 20.0957 19.0623 20.0922 19.0206C20.08 18.8765 20.0515 18.7333 19.9984 18.5988C19.9628 18.5084 19.9154 18.4213 19.8474 18.3522C19.758 18.2612 19.6379 18.2062 19.5162 18.1678L19.4992 18.1625C19.663 17.8938 19.7729 17.5889 19.8311 17.2791C19.9345 16.7278 19.887 16.1584 19.7909 15.6057C19.6597 14.8521 19.4389 14.1155 19.1579 13.4038C18.9512 12.8805 18.7093 12.3659 18.3714 11.916C18.212 11.7039 18.0326 11.508 17.8533 11.312C17.6604 11.1013 17.4676 10.8907 17.2997 10.66C17.225 10.5574 17.1553 10.4509 17.0856 10.3444L17.0856 10.3444L17.0855 10.3443L17.0855 10.3443C16.9955 10.2067 16.9055 10.0693 16.805 9.94052C16.7334 9.79266 16.6627 9.64436 16.5942 9.49508L16.595 9.49516C16.5411 9.37781 16.4884 9.25981 16.4358 9.14181L16.4358 9.1418L16.4358 9.14179L16.4358 9.14178L16.4358 9.14177C16.2794 8.79132 16.1231 8.44086 15.9335 8.10745C15.8941 8.03819 15.8532 7.96959 15.8105 7.90199C15.7989 7.7493 15.7855 7.5966 15.772 7.44388L15.772 7.44381L15.772 7.44374L15.772 7.44367L15.772 7.4436L15.772 7.44354C15.748 7.17053 15.724 6.89744 15.7101 6.62413C15.6988 6.40271 15.694 6.18022 15.6891 5.9577V5.95767V5.95765V5.95763V5.95761C15.6754 5.32046 15.6616 4.68303 15.4953 4.06978C15.3859 3.66602 15.2115 3.28129 14.9872 2.92902C14.7241 2.51633 14.3907 2.14639 13.9943 1.85943C13.362 1.40136 12.5793 1.16549 11.7984 1.15698C11.2226 1.15071 10.6388 1.26744 10.1327 1.54058C9.59407 1.83091 9.15255 2.29509 8.88069 2.84378C8.60884 3.39247 8.50649 4.01106 8.48592 4.62161C8.47189 5.03952 8.4944 5.45723 8.51691 5.875C8.52674 6.05745 8.53657 6.23991 8.54336 6.42241C8.55123 6.64082 8.55493 6.85944 8.55863 7.07804V7.07805V7.07806V7.07806V7.07807C8.56551 7.48438 8.57239 7.89063 8.60603 8.29543L8.60514 8.29607C8.60858 8.33546 8.61225 8.37485 8.61592 8.41424V8.41424V8.41425L8.61592 8.41427V8.41427V8.41428V8.41428C8.63093 8.5755 8.64595 8.73681 8.64531 8.89859C8.64511 8.95387 8.64312 9.00941 8.64114 9.06497V9.06499V9.06501V9.06503V9.06504V9.06505V9.06505V9.06506V9.06506C8.63952 9.11028 8.6379 9.15551 8.63725 9.20063L8.62907 9.22114C8.55266 9.41086 8.45832 9.59118 8.3542 9.76645L7.03871 11.4134L7.01407 11.444C6.73817 11.7858 6.45897 12.1318 6.27954 12.5325C6.16643 12.7851 6.09582 13.0533 6.02518 13.3215C5.99669 13.4297 5.9682 13.5379 5.93691 13.6451C5.81336 14.0687 5.64562 14.4782 5.45731 14.8772C5.28338 15.2455 5.09178 15.6052 4.89978 15.9646C4.76016 16.226 4.61821 16.4932 4.56976 16.7856C4.53152 17.0167 4.5537 17.2551 4.61266 17.4818C4.64187 17.5941 4.67959 17.7037 4.72329 17.8112C4.66845 17.8899 4.62046 17.9736 4.57361 18.0575C4.56671 18.0698 4.55983 18.0822 4.55295 18.0946C4.49411 18.2003 4.43514 18.3063 4.36393 18.4041C4.2844 18.5132 4.18848 18.6129 4.07119 18.6799C3.94772 18.7505 3.8056 18.7823 3.66389 18.7938C3.54907 18.8032 3.43388 18.8 3.31871 18.7968C3.29173 18.796 3.26476 18.7952 3.23779 18.7947C3.09568 18.7915 2.95236 18.7927 2.8133 18.8218C2.67424 18.8509 2.53839 18.9094 2.43604 19.0079C2.32502 19.1148 2.25987 19.2628 2.23054 19.414C2.20122 19.5653 2.20524 19.7211 2.21568 19.8748C2.22645 20.0313 2.24386 20.1872 2.26127 20.3432C2.28217 20.5303 2.30307 20.7175 2.31249 20.9055C2.32976 21.2503 2.3067 21.6037 2.17857 21.9242C2.14238 22.0147 2.09816 22.1017 2.05396 22.1887C2.00229 22.2904 1.95065 22.3921 1.91185 22.4992C1.87586 22.5985 1.85112 22.7029 1.84967 22.8086C1.84823 22.9143 1.87088 23.0217 1.92439 23.1128C1.99364 23.2306 2.11012 23.3148 2.23464 23.3712C2.34029 23.4191 2.45288 23.4493 2.56505 23.4795C2.58508 23.4849 2.60511 23.4902 2.62507 23.4957C2.79971 23.5438 2.9719 23.5999 3.14414 23.656C3.26457 23.6952 3.38503 23.7345 3.50635 23.771C3.89292 23.8873 4.28787 23.9756 4.68258 24.0639C5.26703 24.1946 5.85094 24.3252 6.40622 24.5464C6.50405 24.5853 6.60152 24.6272 6.69912 24.6692C7.05708 24.8231 7.41683 24.9777 7.80278 24.9922C8.11175 25.0038 8.42297 24.9214 8.68775 24.7617C8.95254 24.6019 9.17017 24.3664 9.31212 24.0917C9.35886 24.0012 9.39718 23.9067 9.42703 23.8095C9.47505 23.7992 9.5231 23.7892 9.57118 23.7792Z"/>
</mask>
<path fill-rule="evenodd" clip-rule="evenodd" d="M9.57118 23.7792C9.93108 23.7047 10.2955 23.6388 10.6637 23.6303L10.6645 23.6295C10.6897 23.6289 10.7149 23.6286 10.7401 23.6282H10.7401H10.7402C10.8042 23.6274 10.8683 23.6265 10.932 23.6211C11.1828 23.6487 11.4354 23.6585 11.6882 23.6486C12.9047 23.6006 14.0541 23.0978 15.0447 22.3737C14.9785 22.7566 14.9214 23.1422 14.9219 23.5304C14.9223 23.8065 14.9555 24.0933 15.1013 24.3277C15.2464 24.5612 15.4889 24.7184 15.741 24.8282C16.1009 24.9849 16.5018 25.0603 16.8898 25.002C17.2087 24.9541 17.5111 24.8173 17.7727 24.6285C17.9714 24.4848 18.1467 24.3126 18.3219 24.1404C18.3751 24.0881 18.4283 24.0358 18.4822 23.9843C18.7524 23.7261 19.0415 23.4863 19.3546 23.282C19.6944 23.0604 20.0595 22.8823 20.4246 22.7043L20.4246 22.7043C20.5616 22.6374 20.6987 22.5706 20.8344 22.5014C21.1259 22.3528 21.4186 22.1877 21.6294 21.9375C21.7249 21.8241 21.8018 21.695 21.8556 21.5568L21.8556 21.5569C21.8862 21.4269 21.8662 21.2857 21.8007 21.1692C21.7525 21.0834 21.6815 21.0122 21.6043 20.9511C21.5487 20.9072 21.4898 20.8679 21.4308 20.8287C21.4078 20.8133 21.3847 20.798 21.3619 20.7824C21.1886 20.6641 21.0271 20.5295 20.8665 20.3945C20.7061 20.2589 20.5439 20.1217 20.4089 19.9601C20.2738 19.7985 20.1652 19.6098 20.1254 19.403C20.1092 19.3183 20.1047 19.2322 20.1001 19.146V19.146C20.0979 19.1041 20.0957 19.0623 20.0922 19.0206C20.08 18.8765 20.0515 18.7333 19.9984 18.5988C19.9628 18.5084 19.9154 18.4213 19.8474 18.3522C19.758 18.2612 19.6379 18.2062 19.5162 18.1678L19.4992 18.1625C19.663 17.8938 19.7729 17.5889 19.8311 17.2791C19.9345 16.7278 19.887 16.1584 19.7909 15.6057C19.6597 14.8521 19.4389 14.1155 19.1579 13.4038C18.9512 12.8805 18.7093 12.3659 18.3714 11.916C18.212 11.7039 18.0326 11.508 17.8533 11.312C17.6604 11.1013 17.4676 10.8907 17.2997 10.66C17.225 10.5574 17.1553 10.4509 17.0856 10.3444L17.0856 10.3444L17.0855 10.3443L17.0855 10.3443C16.9955 10.2067 16.9055 10.0693 16.805 9.94052C16.7334 9.79266 16.6627 9.64436 16.5942 9.49508L16.595 9.49516C16.5411 9.37781 16.4884 9.25981 16.4358 9.14181L16.4358 9.1418L16.4358 9.14179L16.4358 9.14178L16.4358 9.14177C16.2794 8.79132 16.1231 8.44086 15.9335 8.10745C15.8941 8.03819 15.8532 7.96959 15.8105 7.90199C15.7989 7.7493 15.7855 7.5966 15.772 7.44388L15.772 7.44381L15.772 7.44374L15.772 7.44367L15.772 7.4436L15.772 7.44354C15.748 7.17053 15.724 6.89744 15.7101 6.62413C15.6988 6.40271 15.694 6.18022 15.6891 5.9577V5.95767V5.95765V5.95763V5.95761C15.6754 5.32046 15.6616 4.68303 15.4953 4.06978C15.3859 3.66602 15.2115 3.28129 14.9872 2.92902C14.7241 2.51633 14.3907 2.14639 13.9943 1.85943C13.362 1.40136 12.5793 1.16549 11.7984 1.15698C11.2226 1.15071 10.6388 1.26744 10.1327 1.54058C9.59407 1.83091 9.15255 2.29509 8.88069 2.84378C8.60884 3.39247 8.50649 4.01106 8.48592 4.62161C8.47189 5.03952 8.4944 5.45723 8.51691 5.875C8.52674 6.05745 8.53657 6.23991 8.54336 6.42241C8.55123 6.64082 8.55493 6.85944 8.55863 7.07804V7.07805V7.07806V7.07806V7.07807C8.56551 7.48438 8.57239 7.89063 8.60603 8.29543L8.60514 8.29607C8.60858 8.33546 8.61225 8.37485 8.61592 8.41424V8.41424V8.41425L8.61592 8.41427V8.41427V8.41428V8.41428C8.63093 8.5755 8.64595 8.73681 8.64531 8.89859C8.64511 8.95387 8.64312 9.00941 8.64114 9.06497V9.06499V9.06501V9.06503V9.06504V9.06505V9.06505V9.06506V9.06506C8.63952 9.11028 8.6379 9.15551 8.63725 9.20063L8.62907 9.22114C8.55266 9.41086 8.45832 9.59118 8.3542 9.76645L7.03871 11.4134L7.01407 11.444C6.73817 11.7858 6.45897 12.1318 6.27954 12.5325C6.16643 12.7851 6.09582 13.0533 6.02518 13.3215C5.99669 13.4297 5.9682 13.5379 5.93691 13.6451C5.81336 14.0687 5.64562 14.4782 5.45731 14.8772C5.28338 15.2455 5.09178 15.6052 4.89978 15.9646C4.76016 16.226 4.61821 16.4932 4.56976 16.7856C4.53152 17.0167 4.5537 17.2551 4.61266 17.4818C4.64187 17.5941 4.67959 17.7037 4.72329 17.8112C4.66845 17.8899 4.62046 17.9736 4.57361 18.0575C4.56671 18.0698 4.55983 18.0822 4.55295 18.0946C4.49411 18.2003 4.43514 18.3063 4.36393 18.4041C4.2844 18.5132 4.18848 18.6129 4.07119 18.6799C3.94772 18.7505 3.8056 18.7823 3.66389 18.7938C3.54907 18.8032 3.43388 18.8 3.31871 18.7968C3.29173 18.796 3.26476 18.7952 3.23779 18.7947C3.09568 18.7915 2.95236 18.7927 2.8133 18.8218C2.67424 18.8509 2.53839 18.9094 2.43604 19.0079C2.32502 19.1148 2.25987 19.2628 2.23054 19.414C2.20122 19.5653 2.20524 19.7211 2.21568 19.8748C2.22645 20.0313 2.24386 20.1872 2.26127 20.3432C2.28217 20.5303 2.30307 20.7175 2.31249 20.9055C2.32976 21.2503 2.3067 21.6037 2.17857 21.9242C2.14238 22.0147 2.09816 22.1017 2.05396 22.1887C2.00229 22.2904 1.95065 22.3921 1.91185 22.4992C1.87586 22.5985 1.85112 22.7029 1.84967 22.8086C1.84823 22.9143 1.87088 23.0217 1.92439 23.1128C1.99364 23.2306 2.11012 23.3148 2.23464 23.3712C2.34029 23.4191 2.45288 23.4493 2.56505 23.4795C2.58508 23.4849 2.60511 23.4902 2.62507 23.4957C2.79971 23.5438 2.9719 23.5999 3.14414 23.656C3.26457 23.6952 3.38503 23.7345 3.50635 23.771C3.89292 23.8873 4.28787 23.9756 4.68258 24.0639C5.26703 24.1946 5.85094 24.3252 6.40622 24.5464C6.50405 24.5853 6.60152 24.6272 6.69912 24.6692C7.05708 24.8231 7.41683 24.9777 7.80278 24.9922C8.11175 25.0038 8.42297 24.9214 8.68775 24.7617C8.95254 24.6019 9.17017 24.3664 9.31212 24.0917C9.35886 24.0012 9.39718 23.9067 9.42703 23.8095C9.47505 23.7992 9.5231 23.7892 9.57118 23.7792Z" fill="white"/>
<path d="M10.6637 23.6303L10.6753 24.1301L10.8754 24.1255L11.0171 23.9841L10.6637 23.6303ZM9.57118 23.7792L9.67236 24.2689L9.6726 24.2688L9.57118 23.7792ZM10.6645 23.6295L10.6521 23.1297L10.4525 23.1346L10.3111 23.2758L10.6645 23.6295ZM10.7401 23.6282V23.1282L10.7333 23.1283L10.7401 23.6282ZM10.7402 23.6282V24.1283L10.747 24.1282L10.7402 23.6282ZM10.932 23.6211L10.9866 23.1241L10.9383 23.1188L10.8898 23.1229L10.932 23.6211ZM11.6882 23.6486L11.7079 24.1482L11.7079 24.1482L11.6882 23.6486ZM15.0447 22.3737L15.5374 22.4589L15.7482 21.2401L14.7497 21.97L15.0447 22.3737ZM14.9219 23.5304L14.4219 23.5311L14.4219 23.5312L14.9219 23.5304ZM15.1013 24.3277L15.5259 24.0637L15.5259 24.0637L15.1013 24.3277ZM15.741 24.8282L15.5413 25.2866L15.5413 25.2866L15.741 24.8282ZM16.8898 25.002L16.964 25.4965L16.964 25.4965L16.8898 25.002ZM17.7727 24.6285L18.0653 25.0339L18.0655 25.0337L17.7727 24.6285ZM18.3219 24.1404L18.6724 24.497V24.497L18.3219 24.1404ZM18.4822 23.9843L18.1367 23.6229L18.1367 23.6229L18.4822 23.9843ZM19.3546 23.282L19.6277 23.7009L19.6278 23.7008L19.3546 23.282ZM20.4246 22.7043L20.6437 23.1537L20.6482 23.1515L20.4246 22.7043ZM20.4246 22.7043L20.2054 22.2549L20.201 22.2571L20.4246 22.7043ZM20.8344 22.5014L21.0614 22.9469L21.0615 22.9469L20.8344 22.5014ZM21.6294 21.9375L21.2471 21.6153L21.247 21.6153L21.6294 21.9375ZM21.8556 21.5568L22.3215 21.7383L21.4938 21.2118L21.8556 21.5568ZM21.8556 21.5569L21.3689 21.4423L20.9468 23.2345L22.2174 21.902L21.8556 21.5569ZM21.8007 21.1692L21.3648 21.4141L21.3648 21.4142L21.8007 21.1692ZM21.6043 20.9511L21.9144 20.5589L21.9144 20.5589L21.6043 20.9511ZM21.4308 20.8287L21.1537 21.2449L21.1537 21.2449L21.4308 20.8287ZM21.3619 20.7824L21.6441 20.3697L21.6439 20.3695L21.3619 20.7824ZM20.8665 20.3945L20.5436 20.7763L20.5449 20.7774L20.8665 20.3945ZM20.4089 19.9601L20.7926 19.6395L20.7926 19.6395L20.4089 19.9601ZM20.1254 19.403L19.6344 19.4973V19.4974L20.1254 19.403ZM20.1001 19.146H19.6001V19.1591L19.6008 19.1722L20.1001 19.146ZM20.1001 19.146H20.6001V19.1329L20.5994 19.1198L20.1001 19.146ZM20.0922 19.0206L19.594 19.0628L19.594 19.0629L20.0922 19.0206ZM19.9984 18.5988L20.4636 18.4154L20.4635 18.4153L19.9984 18.5988ZM19.8474 18.3522L19.4907 18.7026L19.491 18.7028L19.8474 18.3522ZM19.5162 18.1678L19.6666 17.691L19.6637 17.6901L19.5162 18.1678ZM19.4992 18.1625L19.0722 17.9023L18.7379 18.4508L19.3516 18.6403L19.4992 18.1625ZM19.8311 17.2791L20.3225 17.3713L19.8311 17.2791ZM19.7909 15.6057L20.2835 15.52L20.2835 15.5199L19.7909 15.6057ZM19.1579 13.4038L19.6229 13.2202L19.6229 13.2202L19.1579 13.4038ZM18.3714 11.916L18.7712 11.6158L18.7711 11.6157L18.3714 11.916ZM17.8533 11.312L18.2221 10.9744V10.9744L17.8533 11.312ZM17.2997 10.66L17.704 10.3658L17.7039 10.3657L17.2997 10.66ZM17.0856 10.3444L16.6568 10.6016L16.6619 10.61L16.6672 10.6182L17.0856 10.3444ZM17.0855 10.3443L17.5143 10.0871L17.5092 10.0787L17.5039 10.0705L17.0855 10.3443ZM16.805 9.94052L16.355 10.1584L16.3781 10.2063L16.4109 10.2482L16.805 9.94052ZM16.5942 9.49508L16.6443 8.9976L15.7753 8.90997L16.1398 9.70375L16.5942 9.49508ZM16.595 9.49516L16.5448 9.99264L17.414 10.0803L17.0493 9.28644L16.595 9.49516ZM16.4358 9.14181L16.8924 8.93812L16.8879 8.92806L16.883 8.91821L16.4358 9.14181ZM16.4358 9.14177L15.9791 9.34546L15.9836 9.35552L15.9886 9.36537L16.4358 9.14177ZM15.9335 8.10745L15.4989 8.35461L15.4989 8.35461L15.9335 8.10745ZM15.8105 7.90199L15.312 7.94003L15.3214 8.06379L15.3876 8.16876L15.8105 7.90199ZM15.772 7.44388L15.2737 7.48457L15.274 7.48764L15.772 7.44388ZM15.772 7.4436L16.2704 7.40292L16.2701 7.40029L15.772 7.4436ZM15.772 7.44354L16.2701 7.40022L16.2701 7.39978L15.772 7.44354ZM15.7101 6.62413L16.2094 6.59865L16.2094 6.59862L15.7101 6.62413ZM15.6891 5.9577H15.189L15.1893 5.96851L15.6891 5.9577ZM15.6891 5.95761H16.1893L16.189 5.94679L15.6891 5.95761ZM15.4953 4.06978L15.0127 4.20056L15.0127 4.20064L15.4953 4.06978ZM14.9872 2.92902L15.4089 2.66041L15.4088 2.66029L14.9872 2.92902ZM13.9943 1.85943L13.7009 2.26433L13.7011 2.26446L13.9943 1.85943ZM11.7984 1.15698L11.8038 0.657007L11.8038 0.657007L11.7984 1.15698ZM10.1327 1.54058L10.37 1.98072L10.3702 1.98059L10.1327 1.54058ZM8.48592 4.62161L7.98621 4.60477L7.98621 4.60482L8.48592 4.62161ZM8.51691 5.875L9.01619 5.84809V5.84809L8.51691 5.875ZM8.54336 6.42241L9.04304 6.40441L9.04302 6.40382L8.54336 6.42241ZM8.55863 7.07804H9.0587L9.05856 7.06958L8.55863 7.07804ZM8.55863 7.07807H8.05856L8.0587 7.08653L8.55863 7.07807ZM8.60603 8.29543L8.89992 8.69994L9.12762 8.53451L9.10431 8.25402L8.60603 8.29543ZM8.60514 8.29607L8.31125 7.89156L8.08244 8.0578L8.10704 8.33956L8.60514 8.29607ZM8.61592 8.41424H9.11592V8.39101L9.11376 8.36787L8.61592 8.41424ZM8.61592 8.41425H8.11592V8.43693L8.11797 8.45952L8.61592 8.41425ZM8.61592 8.41427H9.11592V8.39159L9.11387 8.369L8.61592 8.41427ZM8.61592 8.41428H8.11592V8.43751L8.11807 8.46065L8.61592 8.41428ZM8.64531 8.89859L8.14531 8.89659L8.14531 8.89676L8.64531 8.89859ZM8.64114 9.06497L8.14145 9.04711L8.14114 9.05604V9.06497H8.64114ZM8.64114 9.06506L9.14082 9.08292L9.14114 9.07399V9.06506H8.64114ZM8.63725 9.20063L9.10171 9.38576L9.13585 9.3001L9.13719 9.2079L8.63725 9.20063ZM8.62907 9.22114L9.09287 9.40793L9.09354 9.40627L8.62907 9.22114ZM8.3542 9.76645L8.74488 10.0785L8.76644 10.0515L8.78408 10.0218L8.3542 9.76645ZM7.03871 11.4134L7.42785 11.7274L7.42939 11.7255L7.03871 11.4134ZM7.01407 11.444L7.40318 11.758L7.40321 11.7579L7.01407 11.444ZM6.27954 12.5325L5.82321 12.3281L5.8232 12.3282L6.27954 12.5325ZM6.02518 13.3215L6.5087 13.4488V13.4488L6.02518 13.3215ZM5.93691 13.6451L5.45693 13.5051L5.45692 13.5051L5.93691 13.6451ZM5.45731 14.8772L5.90944 15.0907L5.90947 15.0906L5.45731 14.8772ZM4.89978 15.9646L4.45878 15.7289L4.45875 15.729L4.89978 15.9646ZM4.56976 16.7856L4.07649 16.7039L4.07647 16.704L4.56976 16.7856ZM4.61266 17.4818L4.12876 17.6077L4.61266 17.4818ZM4.72329 17.8112L5.13359 18.0969L5.28872 17.8742L5.18644 17.6228L4.72329 17.8112ZM4.57361 18.0575L4.13709 17.8137L4.13709 17.8137L4.57361 18.0575ZM4.55295 18.0946L4.11603 17.8515L4.11603 17.8515L4.55295 18.0946ZM4.36393 18.4041L4.76807 18.6985L4.36393 18.4041ZM4.07119 18.6799L3.82319 18.2458L3.82318 18.2458L4.07119 18.6799ZM3.66389 18.7938L3.70457 19.2922H3.70457L3.66389 18.7938ZM3.31871 18.7968L3.30468 19.2966H3.3047L3.31871 18.7968ZM3.23779 18.7947L3.24882 18.2948H3.24881L3.23779 18.7947ZM2.8133 18.8218L2.71095 18.3324H2.71095L2.8133 18.8218ZM2.43604 19.0079L2.78275 19.3682L2.78289 19.3681L2.43604 19.0079ZM2.23054 19.414L2.72141 19.5092L2.23054 19.414ZM2.21568 19.8748L1.71683 19.9087L1.71686 19.9092L2.21568 19.8748ZM2.26127 20.3432L1.76436 20.3986H1.76436L2.26127 20.3432ZM2.31249 20.9055L1.81311 20.9306H1.81311L2.31249 20.9055ZM2.17857 21.9242L2.64282 22.1099L2.64285 22.1098L2.17857 21.9242ZM2.05396 22.1887L2.49972 22.4152L2.49972 22.4152L2.05396 22.1887ZM1.91185 22.4992L2.38197 22.6694H2.38197L1.91185 22.4992ZM1.84967 22.8086L2.34963 22.8155L1.84967 22.8086ZM1.92439 23.1128L1.49324 23.366L1.4933 23.3661L1.92439 23.1128ZM2.23464 23.3712L2.02836 23.8267L2.02836 23.8267L2.23464 23.3712ZM2.56505 23.4795L2.69486 22.9966H2.69486L2.56505 23.4795ZM2.62507 23.4957L2.75767 23.0136L2.75736 23.0135L2.62507 23.4957ZM3.14414 23.656L3.29903 23.1806L3.29903 23.1806L3.14414 23.656ZM3.50635 23.771L3.65043 23.2922L3.65039 23.2921L3.50635 23.771ZM4.68258 24.0639L4.57344 24.5518H4.57345L4.68258 24.0639ZM6.40622 24.5464L6.59131 24.0819L6.59123 24.0818L6.40622 24.5464ZM6.69912 24.6692L6.50166 25.1285L6.50166 25.1285L6.69912 24.6692ZM7.80278 24.9922L7.78398 25.4919L7.78407 25.4919L7.80278 24.9922ZM8.68775 24.7617L8.42951 24.3335L8.42951 24.3335L8.68775 24.7617ZM9.31212 24.0917L8.86794 23.8621L8.86791 23.8621L9.31212 24.0917ZM9.42703 23.8095L9.32257 23.3205L9.03535 23.3819L8.94908 23.6627L9.42703 23.8095ZM10.6522 23.1304C10.2358 23.14 9.83395 23.2142 9.46976 23.2896L9.6726 24.2688C10.0282 24.1952 10.3552 24.1375 10.6753 24.1301L10.6522 23.1304ZM10.3111 23.2758L10.3104 23.2765L11.0171 23.9841L11.0178 23.9833L10.3111 23.2758ZM10.7333 23.1283C10.7085 23.1286 10.6805 23.129 10.6521 23.1297L10.6768 24.1294C10.6988 24.1289 10.7213 24.1285 10.747 24.1282L10.7333 23.1283ZM10.7401 23.1282H10.7401V24.1282H10.7401V23.1282ZM10.7402 23.1282H10.7401V24.1282H10.7402V23.1282ZM10.8898 23.1229C10.8467 23.1265 10.8004 23.1274 10.7333 23.1283L10.747 24.1282C10.8081 24.1274 10.8899 24.1264 10.9742 24.1193L10.8898 23.1229ZM11.6686 23.149C11.4418 23.1579 11.2141 23.1491 10.9866 23.1241L10.8773 24.1181C11.1515 24.1482 11.429 24.1592 11.7079 24.1482L11.6686 23.149ZM14.7497 21.97C13.815 22.6533 12.7594 23.106 11.6685 23.149L11.7079 24.1482C13.05 24.0953 14.2932 23.5424 15.3398 22.7773L14.7497 21.97ZM15.4219 23.5298C15.4214 23.1874 15.4719 22.8378 15.5374 22.4589L14.552 22.2885C14.4851 22.6755 14.4213 23.0969 14.4219 23.5311L15.4219 23.5298ZM15.5259 24.0637C15.4558 23.9509 15.4222 23.7804 15.4219 23.5297L14.4219 23.5312C14.4223 23.8325 14.4553 24.2357 14.6766 24.5917L15.5259 24.0637ZM15.9407 24.3698C15.73 24.278 15.5941 24.1733 15.5259 24.0637L14.6766 24.5917C14.8988 24.9491 15.2477 25.1587 15.5413 25.2866L15.9407 24.3698ZM16.8156 24.5076C16.539 24.5491 16.2335 24.4973 15.9406 24.3698L15.5413 25.2866C15.9683 25.4725 16.4645 25.5715 16.964 25.4965L16.8156 24.5076ZM17.48 24.223C17.2718 24.3733 17.0429 24.4734 16.8155 24.5076L16.964 25.4965C17.3745 25.4349 17.7504 25.2612 18.0653 25.0339L17.48 24.223ZM17.9714 23.7838C17.7917 23.9605 17.6428 24.1054 17.4798 24.2232L18.0655 25.0337C18.3001 24.8643 18.5018 24.6646 18.6724 24.497L17.9714 23.7838ZM18.1367 23.6229C18.0799 23.6772 18.0242 23.7319 17.9714 23.7838L18.6724 24.497C18.726 24.4443 18.7768 24.3944 18.8277 24.3458L18.1367 23.6229ZM19.0815 22.8632C18.7366 23.0881 18.4235 23.3488 18.1367 23.6229L18.8276 24.3458C19.0813 24.1034 19.3463 23.8844 19.6277 23.7009L19.0815 22.8632ZM20.2054 22.2549C19.845 22.4306 19.4517 22.6218 19.0815 22.8633L19.6278 23.7008C19.9372 23.499 20.2739 23.334 20.6437 23.1537L20.2054 22.2549ZM20.201 22.2571L20.2009 22.2571L20.6482 23.1515L20.6482 23.1515L20.201 22.2571ZM20.6074 22.0559C20.4762 22.1228 20.3431 22.1877 20.2054 22.2549L20.6438 23.1537C20.7802 23.0871 20.9211 23.0184 21.0614 22.9469L20.6074 22.0559ZM21.247 21.6153C21.1075 21.781 20.8978 21.9078 20.6073 22.056L21.0615 22.9469C21.3539 22.7978 21.7297 22.5945 22.0118 22.2596L21.247 21.6153ZM21.3897 21.3754C21.356 21.462 21.3075 21.5436 21.2471 21.6153L22.0118 22.2597C22.1424 22.1046 22.2476 21.9281 22.3215 21.7383L21.3897 21.3754ZM22.2174 21.902L22.2175 21.9019L21.4938 21.2118L21.4937 21.2119L22.2174 21.902ZM21.3648 21.4142C21.369 21.4216 21.3707 21.4345 21.3689 21.4423L22.3422 21.6715C22.4016 21.4194 22.3634 21.1498 22.2366 20.9242L21.3648 21.4142ZM21.2941 21.3433C21.3432 21.3821 21.3603 21.4061 21.3648 21.4141L22.2366 20.9243C22.1447 20.7608 22.0197 20.6422 21.9144 20.5589L21.2941 21.3433ZM21.1537 21.2449C21.2156 21.2861 21.2573 21.3142 21.2941 21.3433L21.9144 20.5589C21.8402 20.5002 21.764 20.4498 21.7078 20.4125L21.1537 21.2449ZM21.0797 21.1951C21.1055 21.2128 21.1311 21.2299 21.1537 21.2449L21.7079 20.4125C21.6844 20.3968 21.6639 20.3832 21.6441 20.3697L21.0797 21.1951ZM20.5449 20.7774C20.7038 20.9109 20.8832 21.061 21.0799 21.1953L21.6439 20.3695C21.494 20.2672 21.3505 20.1481 21.1881 20.0117L20.5449 20.7774ZM20.0252 20.2807C20.1926 20.4811 20.3889 20.6455 20.5436 20.7763L21.1893 20.0128C21.0233 19.8724 20.8952 19.7623 20.7926 19.6395L20.0252 20.2807ZM19.6344 19.4974C19.6951 19.813 19.8553 20.0774 20.0252 20.2807L20.7926 19.6395C20.6924 19.5196 20.6353 19.4066 20.6165 19.3086L19.6344 19.4974ZM19.6008 19.1722C19.605 19.2526 19.6106 19.3732 19.6344 19.4973L20.6165 19.3086C20.6078 19.2634 20.6043 19.2118 20.5994 19.1198L19.6008 19.1722ZM19.6001 19.146V19.146H20.6001V19.146H19.6001ZM19.594 19.0629C19.5967 19.0952 19.5986 19.129 19.6008 19.1722L20.5994 19.1198C20.5973 19.0792 20.5947 19.0293 20.5904 18.9782L19.594 19.0629ZM19.5333 18.7822C19.5645 18.8615 19.5849 18.9551 19.594 19.0628L20.5904 18.9783C20.5751 18.7979 20.5384 18.6051 20.4636 18.4154L19.5333 18.7822ZM19.491 18.7028C19.4946 18.7065 19.5113 18.7265 19.5333 18.7824L20.4635 18.4153C20.4143 18.2904 20.3362 18.136 20.2039 18.0015L19.491 18.7028ZM19.3657 18.6446C19.4074 18.6578 19.4378 18.6704 19.4597 18.682C19.4811 18.6934 19.4892 18.701 19.4907 18.7026L20.2041 18.0018C20.0311 17.8256 19.8204 17.7395 19.6666 17.691L19.3657 18.6446ZM19.3516 18.6403L19.3687 18.6455L19.6637 17.6901L19.6467 17.6848L19.3516 18.6403ZM19.3397 17.1868C19.2913 17.4445 19.201 17.6911 19.0722 17.9023L19.9261 18.4228C20.125 18.0965 20.2545 17.7334 20.3225 17.3713L19.3397 17.1868ZM19.2983 15.6913C19.3901 16.2196 19.4271 16.7209 19.3397 17.1868L20.3225 17.3713C20.442 16.7347 20.3839 16.0972 20.2835 15.52L19.2983 15.6913ZM18.6928 13.5875C18.9635 14.2731 19.1739 14.9768 19.2983 15.6914L20.2835 15.5199C20.1455 14.7275 19.9142 13.9579 19.6229 13.2202L18.6928 13.5875ZM17.9716 12.2163C18.2701 12.6138 18.4926 13.0804 18.6928 13.5875L19.6229 13.2202C19.4098 12.6805 19.1484 12.1181 18.7712 11.6158L17.9716 12.2163ZM17.4845 11.6497C17.6666 11.8486 17.8293 12.0269 17.9716 12.2164L18.7711 11.6157C18.5948 11.381 18.3987 11.1673 18.2221 10.9744L17.4845 11.6497ZM16.8954 10.9542C17.0826 11.2114 17.2948 11.4425 17.4845 11.6497L18.2221 10.9744C18.026 10.7602 17.8526 10.57 17.704 10.3658L16.8954 10.9542ZM16.6672 10.6182C16.7358 10.7229 16.8123 10.84 16.8955 10.9543L17.7039 10.3657C17.6378 10.2748 17.5748 10.1788 17.5039 10.0705L16.6672 10.6182ZM16.6568 10.6016L16.6568 10.6016L17.5143 10.0871L17.5143 10.0871L16.6568 10.6016ZM16.6568 10.6016L16.6568 10.6016L17.5143 10.0871L17.5143 10.0871L16.6568 10.6016ZM16.6568 10.6016L16.6568 10.6016L17.5143 10.0871L17.5143 10.0871L16.6568 10.6016ZM16.4109 10.2482C16.4964 10.3578 16.5752 10.4776 16.6672 10.6182L17.5039 10.0705C17.4158 9.9359 17.3146 9.78074 17.1991 9.63282L16.4109 10.2482ZM16.1398 9.70375C16.2103 9.85717 16.2825 10.0088 16.355 10.1584L17.255 9.72261C17.1843 9.57657 17.1152 9.43155 17.0486 9.28641L16.1398 9.70375ZM16.6451 8.99768L16.6443 8.9976L16.544 9.99256L16.5448 9.99264L16.6451 8.99768ZM15.9792 9.34551C16.0316 9.46309 16.0854 9.58361 16.1406 9.70389L17.0493 9.28644C16.9968 9.17202 16.9452 9.05654 16.8924 8.93812L15.9792 9.34551ZM15.9886 9.36541L15.9886 9.36542L16.883 8.91821L16.883 8.91819L15.9886 9.36541ZM15.9886 9.3654L15.9886 9.36541L16.883 8.91819L16.883 8.91818L15.9886 9.3654ZM15.9886 9.36539L15.9886 9.3654L16.883 8.91818L16.883 8.91817L15.9886 9.36539ZM15.9886 9.36537L15.9886 9.36539L16.883 8.91817L16.883 8.91816L15.9886 9.36537ZM15.4989 8.35461C15.6744 8.66329 15.8211 8.99127 15.9791 9.34546L16.8924 8.93807C16.7377 8.59137 16.5718 8.21843 16.3681 7.86028L15.4989 8.35461ZM15.3876 8.16876C15.4259 8.22943 15.4629 8.29146 15.4989 8.35461L16.3681 7.86028C16.3253 7.78491 16.2804 7.70974 16.2334 7.63522L15.3876 8.16876ZM15.274 7.48764C15.2874 7.64084 15.3006 7.79067 15.312 7.94003L16.3091 7.86395C16.2972 7.70792 16.2835 7.55237 16.2701 7.40013L15.274 7.48764ZM15.2737 7.48449L15.2737 7.48456L16.2704 7.4032L16.2704 7.40313L15.2737 7.48449ZM15.2737 7.48442L15.2737 7.48449L16.2704 7.40313L16.2704 7.40306L15.2737 7.48442ZM15.2737 7.48435L15.2737 7.48442L16.2704 7.40306L16.2704 7.40299L15.2737 7.48435ZM15.2737 7.48428L15.2737 7.48435L16.2704 7.40299L16.2704 7.40292L15.2737 7.48428ZM15.2739 7.48685L15.2739 7.48692L16.2701 7.40029L16.2701 7.40022L15.2739 7.48685ZM15.2107 6.64961C15.2252 6.9336 15.2501 7.21581 15.2739 7.48729L16.2701 7.39978C16.246 7.12524 16.2228 6.86128 16.2094 6.59865L15.2107 6.64961ZM15.1893 5.96851C15.1941 6.18979 15.199 6.41965 15.2107 6.64964L16.2094 6.59862C16.1986 6.38577 16.1939 6.17065 16.189 5.94688L15.1893 5.96851ZM15.1891 5.95767V5.9577H16.1891V5.95767H15.1891ZM15.1891 5.95765V5.95767H16.1891V5.95765H15.1891ZM15.1891 5.95763V5.95765H16.1891V5.95763H15.1891ZM15.1891 5.95761V5.95763H16.1891V5.95761H15.1891ZM15.0127 4.20064C15.1603 4.74502 15.1752 5.32052 15.1893 5.96843L16.189 5.94679C16.1755 5.3204 16.1628 4.62104 15.9778 3.93893L15.0127 4.20064ZM14.5654 3.19763C14.7644 3.51005 14.9173 3.84861 15.0127 4.20056L15.9779 3.939C15.8544 3.48342 15.6586 3.05253 15.4089 2.66041L14.5654 3.19763ZM13.7011 2.26446C14.0405 2.51009 14.3321 2.83148 14.5655 3.19775L15.4088 2.66029C15.1162 2.20119 14.741 1.78268 14.2875 1.4544L13.7011 2.26446ZM11.7929 1.65695C12.4802 1.66444 13.1601 1.87251 13.7009 2.26433L14.2876 1.45453C13.564 0.930201 12.6784 0.666544 11.8038 0.657007L11.7929 1.65695ZM10.3702 1.98059C10.7883 1.75493 11.2852 1.65142 11.793 1.65695L11.8038 0.657007C11.1599 0.65 10.4893 0.779951 9.89526 1.10057L10.3702 1.98059ZM9.32872 3.06576C9.55589 2.60724 9.92501 2.22054 10.37 1.98072L9.89549 1.10044C9.26314 1.44128 8.7492 1.98294 8.43267 2.6218L9.32872 3.06576ZM8.98564 4.63844C9.00487 4.06753 9.10008 3.52722 9.32872 3.06576L8.43267 2.6218C8.11759 3.25773 8.00811 3.95458 7.98621 4.60477L8.98564 4.63844ZM9.01619 5.84809C8.99348 5.42666 8.97246 5.0308 8.98564 4.63839L7.98621 4.60482C7.97131 5.04823 7.99532 5.4878 8.01763 5.9019L9.01619 5.84809ZM9.04302 6.40382C9.03605 6.21647 9.02598 6.02985 9.01619 5.84809L8.01763 5.9019C8.0275 6.08505 8.0371 6.26335 8.04371 6.44099L9.04302 6.40382ZM9.05856 7.06958C9.05487 6.85177 9.05111 6.62838 9.04304 6.40441L8.04369 6.44041C8.05136 6.65326 8.05499 6.8671 8.0587 7.0865L9.05856 7.06958ZM9.05863 7.07805V7.07804H8.05863V7.07805H9.05863ZM9.05863 7.07806V7.07805H8.05863V7.07806H9.05863ZM9.05863 7.07806V7.07806H8.05863V7.07806H9.05863ZM9.05863 7.07807V7.07806H8.05863V7.07807H9.05863ZM9.10431 8.25402C9.07226 7.86841 9.06549 7.47868 9.05856 7.06961L8.0587 7.08653C8.06554 7.49008 8.07251 7.91285 8.10774 8.33684L9.10431 8.25402ZM8.89903 8.70058L8.89992 8.69994L8.31213 7.89092L8.31125 7.89156L8.89903 8.70058ZM9.11376 8.36787C9.11007 8.32824 9.10654 8.29029 9.10325 8.25258L8.10704 8.33956C8.11062 8.38063 8.11443 8.42145 8.11807 8.46061L9.11376 8.36787ZM9.11592 8.41424V8.41424H8.11592V8.41424H9.11592ZM9.11592 8.41425V8.41424H8.11592V8.41425H9.11592ZM9.11387 8.369L9.11386 8.36898L8.11797 8.45952L8.11797 8.45953L9.11387 8.369ZM9.11592 8.41427V8.41427H8.11592V8.41427H9.11592ZM9.11592 8.41428V8.41427H8.11592V8.41428H9.11592ZM9.11592 8.41428V8.41428H8.11592V8.41428H9.11592ZM9.14531 8.90058C9.14606 8.71053 9.1284 8.52507 9.11376 8.36792L8.11807 8.46065C8.13347 8.62594 8.14585 8.7631 8.14531 8.89659L9.14531 8.90058ZM9.14082 9.08283C9.14275 9.02864 9.14507 8.96506 9.14531 8.90041L8.14531 8.89676C8.14514 8.94267 8.14349 8.99018 8.14145 9.04711L9.14082 9.08283ZM9.14114 9.06499V9.06497H8.14114V9.06499H9.14114ZM9.14114 9.06501V9.06499H8.14114V9.06501H9.14114ZM9.14114 9.06503V9.06501H8.14114V9.06503H9.14114ZM9.14114 9.06504V9.06503H8.14114V9.06504H9.14114ZM9.14114 9.06505V9.06504H8.14114V9.06505H9.14114ZM9.14114 9.06505V9.06505H8.14114V9.06505H9.14114ZM9.14114 9.06506V9.06505H8.14114V9.06506H9.14114ZM9.14114 9.06506V9.06506H8.14114V9.06506H9.14114ZM9.13719 9.2079C9.13776 9.16897 9.13917 9.12903 9.14082 9.08292L8.14145 9.0472C8.13987 9.09153 8.13805 9.14206 8.1373 9.19335L9.13719 9.2079ZM9.09354 9.40627L9.10171 9.38576L8.17278 9.0155L8.16461 9.03601L9.09354 9.40627ZM8.78408 10.0218C8.89712 9.83151 9.00432 9.6278 9.09287 9.40793L8.16527 9.03434C8.101 9.19393 8.01952 9.35085 7.92433 9.51109L8.78408 10.0218ZM7.42939 11.7255L8.74488 10.0785L7.96353 9.4544L6.64804 11.1014L7.42939 11.7255ZM7.40321 11.7579L7.42785 11.7274L6.64958 11.0994L6.62494 11.13L7.40321 11.7579ZM6.73588 12.7368C6.88431 12.4054 7.1199 12.109 7.40318 11.758L6.62497 11.1299C6.35644 11.4627 6.03363 11.8583 5.82321 12.3281L6.73588 12.7368ZM6.5087 13.4488C6.58112 13.1738 6.64231 12.9458 6.73588 12.7368L5.8232 12.3282C5.69054 12.6244 5.61051 12.9327 5.54166 13.1942L6.5087 13.4488ZM6.41689 13.7852C6.45034 13.6706 6.48049 13.556 6.5087 13.4488L5.54166 13.1942C5.51289 13.3035 5.48606 13.4053 5.45693 13.5051L6.41689 13.7852ZM5.90947 15.0906C6.10488 14.6766 6.28375 14.2416 6.4169 13.7852L5.45692 13.5051C5.34297 13.8957 5.18635 14.2798 5.00515 14.6637L5.90947 15.0906ZM5.34078 16.2002C5.53211 15.8421 5.72944 15.4719 5.90944 15.0907L5.00518 14.6637C4.83733 15.0191 4.65145 15.3684 4.45878 15.7289L5.34078 16.2002ZM5.06304 16.8673C5.09579 16.6696 5.19438 16.4743 5.34081 16.2001L4.45875 15.729C4.32594 15.9777 4.14062 16.3167 4.07649 16.7039L5.06304 16.8673ZM5.09656 17.3559C5.05081 17.18 5.03879 17.0138 5.06305 16.8673L4.07647 16.704C4.02426 17.0195 4.05658 17.3301 4.12876 17.6077L5.09656 17.3559ZM5.18644 17.6228C5.14959 17.5322 5.11935 17.4436 5.09656 17.3559L4.12876 17.6077C4.16439 17.7446 4.20959 17.8753 4.26015 17.9996L5.18644 17.6228ZM5.01013 18.3013C5.05641 18.2185 5.09408 18.1537 5.13359 18.0969L4.313 17.5254C4.24281 17.6262 4.18451 17.7288 4.13709 17.8137L5.01013 18.3013ZM4.98987 18.3377C4.99679 18.3252 5.00347 18.3132 5.01013 18.3013L4.13709 17.8137C4.12996 17.8264 4.12287 17.8392 4.11603 17.8515L4.98987 18.3377ZM4.76807 18.6985C4.86024 18.5719 4.93355 18.4389 4.98987 18.3377L4.11603 17.8515C4.05466 17.9618 4.01004 18.0407 3.9598 18.1097L4.76807 18.6985ZM4.3192 19.1141C4.51839 19.0003 4.66363 18.8418 4.76807 18.6985L3.9598 18.1097C3.90518 18.1846 3.85857 18.2256 3.82319 18.2458L4.3192 19.1141ZM3.70457 19.2922C3.88882 19.2771 4.11011 19.2335 4.3192 19.1141L3.82318 18.2458C3.78533 18.2674 3.72238 18.2874 3.62321 18.2955L3.70457 19.2922ZM3.3047 19.2966C3.41525 19.2997 3.55789 19.3042 3.70457 19.2922L3.62321 18.2955C3.54026 18.3023 3.45251 18.3003 3.33272 18.297L3.3047 19.2966ZM3.22676 19.2945C3.25198 19.2951 3.27745 19.2958 3.30468 19.2966L3.33274 18.297C3.30601 18.2962 3.27754 18.2954 3.24882 18.2948L3.22676 19.2945ZM2.91565 19.3112C2.99485 19.2947 3.08925 19.2915 3.22677 19.2945L3.24881 18.2948C3.1021 18.2915 2.90987 18.2908 2.71095 18.3324L2.91565 19.3112ZM2.78289 19.3681C2.79828 19.3533 2.83841 19.3274 2.91565 19.3112L2.71095 18.3324C2.51007 18.3744 2.27851 18.4655 2.0892 18.6478L2.78289 19.3681ZM2.72141 19.5092C2.73734 19.427 2.7664 19.3839 2.78275 19.3682L2.08933 18.6477C1.88364 18.8456 1.7824 19.0985 1.73968 19.3189L2.72141 19.5092ZM2.71453 19.841C2.70467 19.6957 2.70502 19.5937 2.72141 19.5092L1.73968 19.3189C1.69743 19.5369 1.70581 19.7465 1.71683 19.9087L2.71453 19.841ZM2.75819 20.2877C2.74058 20.13 2.72442 19.9846 2.7145 19.8405L1.71686 19.9092C1.72849 20.078 1.74715 20.2445 1.76436 20.3986L2.75819 20.2877ZM2.81186 20.8805C2.80155 20.6746 2.7788 20.4723 2.75819 20.2877L1.76436 20.3986C1.78554 20.5883 1.80458 20.7603 1.81311 20.9306L2.81186 20.8805ZM2.64285 22.1098C2.80915 21.6938 2.83078 21.2583 2.81186 20.8805L1.81311 20.9306C1.82874 21.2424 1.80425 21.5136 1.71429 21.7386L2.64285 22.1098ZM2.49972 22.4152C2.54221 22.3316 2.59691 22.2247 2.64282 22.1099L1.71432 21.7385C1.68785 21.8047 1.65411 21.8719 1.6082 21.9622L2.49972 22.4152ZM2.38197 22.6694C2.40857 22.596 2.4457 22.5215 2.49972 22.4152L1.6082 21.9622C1.55888 22.0593 1.49273 22.1881 1.44174 22.3289L2.38197 22.6694ZM2.34963 22.8155C2.35009 22.782 2.3584 22.7345 2.38197 22.6694L1.44174 22.3289C1.39333 22.4626 1.35216 22.6238 1.34972 22.8018L2.34963 22.8155ZM2.35553 22.8596C2.3566 22.8614 2.3549 22.8591 2.35299 22.851C2.35105 22.8428 2.34942 22.8308 2.34963 22.8155L1.34972 22.8018C1.34729 22.9798 1.38469 23.1811 1.49324 23.366L2.35553 22.8596ZM2.44093 22.9157C2.40948 22.9015 2.38671 22.8871 2.37182 22.8752C2.35726 22.8635 2.35426 22.8574 2.35547 22.8595L1.4933 23.3661C1.63288 23.6036 1.84857 23.7452 2.02836 23.8267L2.44093 22.9157ZM2.69486 22.9966C2.57589 22.9646 2.50322 22.944 2.44092 22.9157L2.02836 23.8267C2.17736 23.8942 2.32987 23.934 2.43524 23.9623L2.69486 22.9966ZM2.75736 23.0135C2.73595 23.0077 2.71468 23.002 2.69486 22.9966L2.43524 23.9623C2.45548 23.9678 2.47426 23.9728 2.49278 23.9779L2.75736 23.0135ZM3.29903 23.1806C3.12864 23.1251 2.9454 23.0653 2.75767 23.0136L2.49248 23.9778C2.65402 24.0223 2.81517 24.0747 2.98925 24.1314L3.29903 23.1806ZM3.65039 23.2921C3.53542 23.2576 3.42036 23.2201 3.29903 23.1806L2.98924 24.1314C3.10878 24.1703 3.23464 24.2113 3.36232 24.2498L3.65039 23.2921ZM4.79171 23.5759C4.39402 23.487 4.01679 23.4024 3.65043 23.2922L3.36228 24.2497C3.76904 24.3721 4.18172 24.4642 4.57344 24.5518L4.79171 23.5759ZM6.59123 24.0818C5.99275 23.8435 5.36953 23.7052 4.79171 23.5759L4.57345 24.5518C5.16454 24.684 5.70913 24.8069 6.22122 25.0109L6.59123 24.0818ZM6.89658 24.2098C6.80004 24.1683 6.69641 24.1238 6.59131 24.0819L6.22114 25.0108C6.3117 25.0469 6.403 25.0861 6.50166 25.1285L6.89658 24.2098ZM7.82157 24.4926C7.54461 24.4821 7.27095 24.3708 6.89657 24.2098L6.50166 25.1285C6.84321 25.2754 7.28906 25.4732 7.78398 25.4919L7.82157 24.4926ZM8.42951 24.3335C8.24616 24.4441 8.03089 24.5004 7.82148 24.4926L7.78407 25.4919C8.1926 25.5072 8.59977 25.3986 8.94599 25.1898L8.42951 24.3335ZM8.86791 23.8621C8.76729 24.0569 8.61312 24.2228 8.42951 24.3335L8.94599 25.1898C9.29196 24.9811 9.57304 24.6759 9.75633 24.3212L8.86791 23.8621ZM8.94908 23.6627C8.92775 23.7321 8.9006 23.7989 8.86794 23.8621L9.7563 24.3212C9.81712 24.2036 9.86661 24.0813 9.90498 23.9564L8.94908 23.6627ZM9.46999 23.2896C9.42084 23.2997 9.3717 23.31 9.32257 23.3205L9.53149 24.2985C9.5784 24.2884 9.62535 24.2786 9.67236 24.2689L9.46999 23.2896Z" fill="white" mask="url(#path-1-outside-1)"/>
<path d="M16.5942 9.49508C16.8557 10.0647 17.1477 10.62 17.4072 11.1906C17.9065 12.2888 18.2858 13.4483 18.4433 14.6443C18.6009 15.8402 18.5324 17.0752 18.1588 18.2219C17.7364 19.5164 16.9345 20.668 15.952 21.6105C14.7897 22.7255 13.2977 23.5851 11.6882 23.6486C10.6395 23.6899 9.59551 23.3901 8.66683 22.9012C7.88637 22.4905 7.17387 21.9431 6.60542 21.2688C6.03697 20.5946 5.61488 19.7917 5.41943 18.9316C5.17874 17.8725 5.28768 16.7483 5.65192 15.7251C5.91245 14.9934 6.29862 14.3122 6.57353 13.5858C6.87398 12.7921 7.04172 11.9445 7.43978 11.195C7.80049 10.5153 8.34163 9.93484 8.62907 9.22114C8.80075 8.79488 8.87522 8.33704 8.98608 7.89102C9.09695 7.445 9.25215 6.99576 9.55405 6.64928C9.91797 6.23177 10.4653 6.00547 11.0154 5.94192C11.5654 5.87838 12.1222 5.96417 12.6621 6.08733C13.0919 6.18534 13.5164 6.30705 13.9318 6.45478C14.2863 6.58091 14.6376 6.72776 14.9442 6.94596C15.3619 7.2432 15.68 7.66174 15.9335 8.10745C16.187 8.55315 16.381 9.0293 16.595 9.49516L16.5942 9.49508Z" fill="#01ACFD"/>
<path d="M10.6637 23.6303C10.2955 23.6388 9.93108 23.7047 9.57118 23.7792C9.22638 23.8505 8.88318 23.9298 8.54256 24.0193C7.96784 24.1701 7.3924 24.3508 6.79832 24.3634C6.64198 24.3666 6.48452 24.3582 6.33213 24.3229C6.17973 24.2877 6.03224 24.2249 5.90997 24.1274C5.72319 23.9784 5.60445 23.7538 5.56051 23.5191C5.51656 23.2843 5.54339 23.04 5.61152 22.811C5.74785 22.3531 6.04019 21.9611 6.27959 21.5477C6.4156 21.3127 6.53562 21.0684 6.68271 20.8401C6.82981 20.6119 7.00695 20.3977 7.23381 20.2485C7.54295 20.0453 7.92848 19.9765 8.29665 20.0127C8.66483 20.0489 9.01766 20.1846 9.34238 20.362C9.80077 20.6124 10.2194 20.9569 10.4844 21.4063C10.6704 21.7221 10.7777 22.0832 10.995 22.3782C11.1121 22.5371 11.2601 22.6744 11.3566 22.846C11.4052 22.9318 11.4409 23.0264 11.4492 23.1248C11.4575 23.2232 11.4371 23.3255 11.3817 23.4072C11.3451 23.4612 11.2944 23.5049 11.2377 23.5372C11.1809 23.5694 11.1184 23.5906 11.0545 23.6038C10.926 23.6305 10.795 23.6263 10.6645 23.6295L10.6637 23.6303ZM8.60603 8.29543C8.55429 7.67283 8.56586 7.04677 8.54336 6.42241C8.52103 5.82206 8.46576 5.22203 8.48592 4.62161C8.50649 4.01106 8.60884 3.39247 8.88069 2.84378C9.15255 2.29509 9.59407 1.83091 10.1327 1.54058C10.6388 1.26744 11.2226 1.15071 11.7984 1.15698C12.5793 1.16549 13.362 1.40136 13.9943 1.85943C14.3907 2.14639 14.7241 2.51633 14.9872 2.92902C15.2115 3.28129 15.3859 3.66602 15.4953 4.06978C15.7197 4.89724 15.6664 5.76872 15.7101 6.62413C15.7515 7.43488 15.8812 8.24369 15.837 9.05428C15.8274 9.23102 15.8084 9.41049 15.7299 9.56843C15.6535 9.72227 15.5236 9.84598 15.3745 9.9313C15.2253 10.0166 15.0574 10.0651 14.8876 10.0913C14.548 10.1437 14.2008 10.1092 13.8587 10.1409C13.3622 10.1869 12.8886 10.3711 12.3959 10.4473C11.8095 10.5381 11.2104 10.4738 10.6167 10.45C10.3789 10.4405 10.1403 10.4376 9.90425 10.4079C9.66822 10.3783 9.43268 10.3212 9.22268 10.2092C9.09414 10.1403 8.9742 10.0505 8.87764 9.94006C8.78108 9.8296 8.70733 9.69905 8.67061 9.55629C8.61542 9.34316 8.64451 9.11879 8.64531 8.89859C8.64611 8.69727 8.62265 8.49667 8.60514 8.29607L8.60603 8.29543Z" fill="#01ACFD"/>
<path d="M9.53961 8.0555C9.45558 8.16074 9.40079 8.28743 9.3677 8.41813C9.3346 8.54884 9.32255 8.68388 9.31732 8.81852C9.30704 9.08789 9.32343 9.36239 9.25225 9.62236C9.17593 9.90032 9.00514 10.141 8.83788 10.3757C8.54827 10.7822 8.25545 11.1992 8.11269 11.6773C8.02617 11.967 7.99733 12.2737 8.0285 12.5743C7.70435 13.0504 7.42358 13.556 7.19117 14.083C6.83881 14.8817 6.597 15.732 6.51193 16.6007C6.40781 17.6645 6.5439 18.7587 6.96398 19.7416C7.26764 20.4522 7.72058 21.1028 8.30445 21.6091C8.60129 21.8666 8.93107 22.0863 9.28455 22.2596C10.5067 22.8603 12.017 22.8613 13.2188 22.2211C13.8469 21.8864 14.3771 21.397 14.8882 20.9018C15.196 20.6036 15.5023 20.2983 15.7371 19.9397C16.1891 19.2494 16.3466 18.4104 16.4444 17.5912C16.6156 16.1585 16.621 14.6453 15.993 13.3464C15.7761 12.8983 15.4891 12.4877 15.1429 12.13C15.0509 11.505 14.8693 10.8931 14.6053 10.3191C14.4149 9.90498 14.1821 9.51077 14.0052 9.09078C13.9326 8.9183 13.8687 8.74172 13.7889 8.57286C13.7091 8.40399 13.6089 8.24147 13.4736 8.11213C13.3352 7.97958 13.1627 7.88575 12.9807 7.82566C12.7987 7.76557 12.6071 7.73833 12.4159 7.72869C12.0331 7.70941 11.6495 7.75946 11.2667 7.74428C10.9618 7.73223 10.6579 7.67872 10.3533 7.69672C10.2009 7.70572 10.0488 7.73287 9.90739 7.79031C9.766 7.84775 9.63569 7.93628 9.54058 8.05542L9.53961 8.0555Z" fill="#FDFDFB"/>
<path d="M9.66218 4.7255C9.51918 4.73329 9.38221 4.79941 9.27753 4.89718C9.17285 4.99495 9.09919 5.12308 9.05372 5.25901C8.96294 5.53087 8.98342 5.82554 9.00391 6.11057C9.02263 6.36941 9.04167 6.63315 9.13863 6.87391C9.18707 6.99426 9.25512 7.10689 9.3459 7.2004C9.43668 7.29391 9.55091 7.36444 9.67672 7.39593C9.79481 7.4255 9.92078 7.41939 10.0369 7.38292C10.1529 7.34645 10.2589 7.28009 10.3458 7.1951C10.4728 7.07098 10.5582 6.90862 10.6072 6.73799C10.6562 6.56735 10.6701 6.38837 10.6676 6.21099C10.6644 5.98894 10.6354 5.76593 10.5659 5.55513C10.4963 5.34433 10.3854 5.14517 10.2306 4.98587C10.1557 4.90875 10.0701 4.84086 9.97356 4.79331C9.87699 4.74575 9.76926 4.71899 9.66186 4.72478L9.66218 4.7255Z" fill="white"/>
<path d="M12.1929 4.7255C11.9696 4.87814 11.7824 5.09303 11.6909 5.3481C11.5755 5.6696 11.6197 6.02934 11.731 6.35229C11.8451 6.68303 12.0358 6.99819 12.3239 7.19678C12.4679 7.29607 12.6346 7.36412 12.8083 7.38476C12.982 7.40541 13.1626 7.37713 13.3176 7.2964C13.5067 7.1979 13.6509 7.02542 13.7404 6.83206C13.8299 6.63869 13.8681 6.42476 13.88 6.21187C13.8961 5.94073 13.8687 5.6651 13.7796 5.40851C13.6828 5.12975 13.5064 4.87267 13.2596 4.71224C13.1358 4.63207 12.9951 4.57696 12.849 4.55679C12.703 4.53663 12.5514 4.55173 12.4139 4.60516C12.3356 4.63568 12.2624 4.67802 12.193 4.72566L12.1929 4.7255Z" fill="white"/>
<path d="M10.4746 6.73823C10.4746 6.73815 10.4747 6.73806 10.4748 6.73798L10.4748 6.73792C10.5558 6.64692 10.6222 6.54792 10.6809 6.45932C10.6845 6.45386 10.6881 6.44844 10.6916 6.44306C10.748 6.35785 10.7977 6.28278 10.8545 6.21431L10.7102 6.0946C10.7785 6.01241 10.8571 5.93754 10.9498 5.88436C11.0425 5.83118 11.15 5.80081 11.2564 5.80997L11.2402 5.99677C11.3077 6.00262 11.3808 6.03785 11.4441 6.09729C11.5076 6.15687 11.5599 6.23778 11.6061 6.33336L11.7749 6.25181C11.7869 6.27679 11.7982 6.30217 11.8096 6.32756C11.8449 6.40653 11.8803 6.4856 11.934 6.55307M10.4746 6.73823L11.6058 6.3328C11.6136 6.34903 11.6221 6.36821 11.6315 6.38939C11.6677 6.47062 11.717 6.58142 11.7871 6.66966M10.4746 6.73823L10.468 6.74559L10.468 6.74556C10.4307 6.78685 10.3914 6.82564 10.3566 6.85995C10.3515 6.86494 10.3466 6.86983 10.3417 6.87462C10.2995 6.91638 10.2638 6.95262 10.2329 6.99039L10.0878 6.8716C10.0502 6.91771 10.0167 6.96768 9.99289 7.02231C9.96911 7.07694 9.95521 7.13639 9.95722 7.19584C9.95931 7.25818 9.97899 7.31963 10.0113 7.37306M10.4746 6.73823L11.2311 7.34059M11.934 6.55307L11.7871 6.66966M11.934 6.55307L11.7872 6.66972C11.7871 6.6697 11.7871 6.66968 11.7871 6.66966M11.934 6.55307C11.9906 6.6244 12.0644 6.67874 12.1381 6.733C12.1626 6.7511 12.1872 6.76919 12.2111 6.78789C12.259 6.82525 12.3049 6.86582 12.3427 6.91322C12.3805 6.96061 12.4102 7.01572 12.4222 7.07525M11.7871 6.66966L12.2383 7.11178M12.4222 7.07525L12.2382 7.11105C12.2382 7.11129 12.2383 7.11154 12.2383 7.11178M12.4222 7.07525L12.2385 7.11245C12.2384 7.11223 12.2384 7.11201 12.2383 7.11178M12.4222 7.07525C12.4341 7.13617 12.4289 7.19918 12.4074 7.25737C12.3863 7.31521 12.3506 7.36759 12.3062 7.41033C12.2173 7.49589 12.0962 7.54208 11.974 7.55935C11.834 7.57916 11.6931 7.56368 11.5518 7.54818C11.4467 7.53663 11.3414 7.52508 11.2362 7.52802M12.2383 7.11178C12.2434 7.1387 12.2411 7.16651 12.2316 7.19221L12.2312 7.19326C12.2209 7.22153 12.2021 7.25023 12.1762 7.27521L12.1761 7.27527C12.1239 7.32555 12.0439 7.36011 11.9478 7.3737C11.8505 7.38746 11.7478 7.3805 11.6257 7.36759C11.6092 7.36584 11.5921 7.36395 11.5746 7.36202C11.4701 7.35049 11.3503 7.33726 11.2311 7.34059M11.2362 7.52802L11.2311 7.34059M11.2362 7.52802L11.231 7.3406C11.231 7.3406 11.2311 7.34059 11.2311 7.34059M11.2362 7.52802C11.1225 7.53114 11.0099 7.55118 10.8974 7.5712C10.7632 7.5951 10.6291 7.61896 10.4933 7.61398C10.3685 7.6094 10.242 7.57896 10.1395 7.5077C10.0878 7.47229 10.0441 7.42642 10.0113 7.37306M10.0113 7.37306L10.1717 7.27606C10.1716 7.27585 10.1715 7.27564 10.1714 7.27544C10.1712 7.27522 10.1711 7.275 10.171 7.27478L10.0113 7.37306Z" fill="white" stroke="#01ACFD" stroke-width="0.375"/>
<path d="M12.7102 5.39997C12.6262 5.406 12.5444 5.43468 12.4732 5.48031C12.402 5.52594 12.3412 5.58595 12.2935 5.65544C12.1981 5.79426 12.1561 5.96449 12.1494 6.13263C12.1444 6.25892 12.1583 6.38689 12.2002 6.50619C12.2421 6.62549 12.3127 6.73595 12.4101 6.81653C12.5097 6.89903 12.6363 6.9486 12.7656 6.9547C12.8949 6.96081 13.0259 6.92361 13.1319 6.84971C13.2165 6.79082 13.2847 6.70976 13.3333 6.6189C13.3819 6.52804 13.4113 6.42746 13.4245 6.32528C13.4481 6.14476 13.4215 5.95629 13.338 5.7945C13.2545 5.6327 13.1131 5.49943 12.9422 5.43652C12.8683 5.40921 12.7887 5.39507 12.7102 5.40069V5.39997Z" fill="#01ACFD"/>
<path d="M9.31676 5.91045C9.28688 6.09089 9.28576 6.28016 9.34777 6.45216C9.38794 6.56575 9.45623 6.66882 9.53833 6.75743C9.59215 6.81543 9.65305 6.86813 9.72439 6.90228C9.79572 6.93642 9.87831 6.95096 9.95495 6.93176C10.0256 6.91408 10.0877 6.86829 10.1333 6.8115C10.1789 6.7547 10.2095 6.68674 10.2311 6.61709C10.2952 6.41143 10.285 6.18633 10.2213 5.98051C10.175 5.83052 10.0983 5.68584 9.97817 5.58469C9.92089 5.53649 9.85381 5.49873 9.78094 5.4813C9.70808 5.46387 9.62911 5.46805 9.56098 5.49898C9.48531 5.53336 9.42666 5.59883 9.38826 5.6725C9.34986 5.74617 9.33018 5.82835 9.3166 5.91029L9.31676 5.91045Z" fill="#01ACFD"/>
<path d="M9.15175 8.22988L9.20361 8.15839C9.20009 8.15584 9.19689 8.1534 9.19398 8.15109C9.19777 8.14505 9.20166 8.13907 9.20564 8.13315L9.20579 8.13293C9.20645 8.13195 9.20708 8.13102 9.20768 8.13013C9.21467 8.13052 9.22412 8.13103 9.23358 8.13127L9.23358 8.13127L9.23427 8.13129C9.33452 8.13342 9.42751 8.10623 9.50513 8.06861C9.58291 8.03092 9.64893 7.9812 9.70413 7.93333C9.7444 7.89842 9.78421 7.85968 9.81913 7.82571C9.83026 7.81487 9.8409 7.80452 9.85089 7.79494C9.8955 7.75215 9.93407 7.71768 9.97395 7.6901L9.86729 7.53588M9.15175 8.22988L9.16229 8.10396L9.16224 8.10369L9.14997 8.04339L9.13117 7.95095C9.13414 7.9497 9.13717 7.94858 9.14026 7.9476C9.16449 7.9399 9.19064 7.94137 9.21611 7.94281C9.22358 7.94323 9.23098 7.94365 9.23827 7.94383C9.30229 7.94519 9.36584 7.92776 9.42336 7.89988C9.48088 7.87201 9.53294 7.83361 9.5813 7.79167C9.6171 7.76063 9.65117 7.72749 9.68521 7.69437C9.74314 7.63802 9.80101 7.58173 9.86729 7.53588M9.15175 8.22988L9.15131 8.23048M9.15175 8.22988L9.15131 8.23048M9.86729 7.53588C9.97534 7.46125 10.1025 7.41715 10.232 7.39506C10.3615 7.37296 10.4937 7.37168 10.625 7.37698C10.7345 7.38134 10.844 7.39023 10.9534 7.39913C11.1467 7.41484 11.3399 7.43055 11.5335 7.42117M9.86729 7.53588L9.97385 7.69016C10.0541 7.63476 10.1537 7.59862 10.2635 7.57989C10.3742 7.56101 10.4915 7.55924 10.6174 7.56433L10.6176 7.56433C10.723 7.56852 10.8265 7.57694 10.9344 7.58572C10.9772 7.58919 11.0207 7.59273 11.0652 7.59608C11.2185 7.6076 11.3791 7.61637 11.5425 7.60845L11.5335 7.42117M11.5335 7.42117C11.6598 7.41505 11.7853 7.3983 11.9108 7.38155C12.0491 7.36309 12.1874 7.34464 12.3267 7.34043M11.5335 7.42117L11.5425 7.60845M9.0073 8.22099L9.0601 8.18943L8.98111 8.15387C8.98595 8.17744 8.99499 8.20021 9.0073 8.22099ZM9.0073 8.22099L9.06037 8.18955L9.15131 8.23048M9.0073 8.22099L9.15131 8.23048M12.3267 7.34043L11.5425 7.60845M12.3267 7.34043L12.3323 7.52784C12.2104 7.53153 12.0874 7.54717 11.9548 7.56485C11.9477 7.56579 11.9406 7.56673 11.9335 7.56768C11.8098 7.5842 11.6771 7.60193 11.5425 7.60845M12.3267 7.34043L12.3322 7.52785C12.4148 7.52542 12.497 7.5284 12.5864 7.53163C12.6043 7.53228 12.6225 7.53294 12.641 7.53356C12.7487 7.53721 12.8656 7.53962 12.9846 7.52876L12.9846 7.52875C13.0467 7.52307 13.1119 7.51328 13.1702 7.50454C13.1926 7.50117 13.214 7.49795 13.2338 7.49519C13.3107 7.48445 13.3767 7.47814 13.4392 7.48126L13.4392 7.48126C13.5015 7.48436 13.5546 7.49688 13.5966 7.51834C13.6386 7.53977 13.6672 7.56974 13.6808 7.59847C13.6981 7.63523 13.7027 7.69212 13.6884 7.77317C13.682 7.80982 13.6731 7.84627 13.6624 7.88981C13.6613 7.89445 13.6602 7.89917 13.659 7.90398C13.6475 7.95132 13.6343 8.00676 13.626 8.06502M11.5425 7.60845L13.626 8.06502M13.626 8.06502C13.626 8.06497 13.6261 8.06493 13.6261 8.06488L13.8117 8.09132L13.626 8.06502ZM13.626 8.06502C13.6222 8.09228 13.6195 8.11903 13.6174 8.14154L13.6171 8.14418C13.6149 8.16682 13.6131 8.18529 13.6108 8.20317C13.6058 8.24019 13.5998 8.26141 13.5926 8.27604L13.592 8.27739C13.5772 8.30817 13.54 8.3439 13.4739 8.37503C13.4414 8.39034 13.4053 8.40347 13.3622 8.41782C13.3514 8.42141 13.3397 8.42524 13.3273 8.42926C13.2943 8.44004 13.2569 8.45222 13.2219 8.46508L13.2218 8.46512C12.9919 8.54982 12.7952 8.68453 12.6179 8.81758C12.5686 8.85459 12.5214 8.89098 12.4752 8.92651C12.3493 9.02348 12.2318 9.114 12.1037 9.19299C11.9252 9.30294 11.7289 9.3871 11.524 9.44747C11.302 9.51279 11.0793 9.54675 10.8661 9.52529L10.866 9.52529C10.6848 9.50708 10.5109 9.44777 10.369 9.3482C10.2048 9.23291 10.0875 9.07483 9.95074 8.89031C9.91044 8.83596 9.86844 8.7793 9.82303 8.72078L9.823 8.72074C9.68187 8.53894 9.51331 8.35339 9.29868 8.21849L9.29844 8.21834C9.28284 8.20857 9.26993 8.20073 9.25859 8.19385C9.23705 8.18078 9.22123 8.17118 9.20361 8.15839L9.15175 8.22988L13.626 8.06502ZM9.19707 8.12629C9.197 8.12631 9.19694 8.12633 9.19688 8.12635L9.19707 8.12629ZM9.19707 8.12629C9.19706 8.12629 9.19705 8.12629 9.19705 8.1263L9.19707 8.12629Z" fill="white" stroke="#01ACFD" stroke-width="0.375"/>
<path d="M9.82814 7.20105L9.71921 7.27442C9.57938 7.36861 9.45359 7.48332 9.34716 7.61379L9.82814 7.20105ZM9.82814 7.20105L9.82026 7.16943M9.82814 7.20105L9.82026 7.16943M9.82026 7.16943C10.0444 6.93002 10.3274 6.74546 10.6372 6.63793L10.6372 6.63792C10.9435 6.53154 11.272 6.50474 11.5638 6.59317L11.5638 6.59318C11.6961 6.63324 11.8242 6.69722 11.9627 6.77141L11.9627 6.77142C12.001 6.79195 12.0403 6.81333 12.0802 6.83507C12.176 6.88724 12.2756 6.94148 12.3752 6.99096L9.82026 7.16943ZM13.788 7.36169C13.7506 7.29822 13.6861 7.2554 13.6189 7.22552C13.5408 7.19079 13.4574 7.17107 13.374 7.15138C13.3591 7.14784 13.3441 7.14431 13.3292 7.14068L13.2852 7.32295C13.3023 7.32711 13.3187 7.33101 13.3344 7.33474C13.4179 7.35457 13.4819 7.3698 13.5426 7.39682L13.5427 7.39686C13.583 7.41477 13.6061 7.43226 13.6185 7.44613M13.788 7.36169L13.6452 7.44482L13.6378 7.44915C13.6409 7.44553 13.6433 7.44373 13.6445 7.44303M13.788 7.36169C13.8064 7.39342 13.8179 7.42973 13.8177 7.46652L13.6375 7.45026M13.788 7.36169L13.6455 7.44555L13.6375 7.45026M13.6445 7.44303C13.6449 7.44276 13.6451 7.44265 13.6451 7.44266C13.6451 7.44266 13.6449 7.44278 13.6445 7.44297L13.6445 7.44303ZM13.6445 7.44303L13.6445 7.44297C13.643 7.44354 13.6371 7.44546 13.625 7.44595L13.6244 7.44597C13.6224 7.44606 13.6204 7.44611 13.6185 7.44613M13.6185 7.44613C13.621 7.44901 13.6231 7.45174 13.6248 7.45428C13.625 7.45456 13.6252 7.45484 13.6253 7.45512C13.6257 7.45569 13.6261 7.45625 13.6264 7.4568L13.6375 7.45026M13.6185 7.44613C13.5967 7.44635 13.575 7.44258 13.5361 7.43579C13.5247 7.43381 13.5118 7.43157 13.497 7.42909L13.4969 7.42907C13.4182 7.41596 13.3036 7.40232 13.1879 7.43954L13.1879 7.43955C13.1107 7.46438 13.0481 7.50685 13.0002 7.54633C12.9645 7.57579 12.9297 7.61001 12.9024 7.63679C12.8952 7.64384 12.8886 7.65037 12.8826 7.65616M13.6375 7.45026L9.34714 7.61381C9.28519 7.68977 9.24021 7.75911 9.21679 7.82898L9.21677 7.82906C9.20267 7.87105 9.1964 7.90745 9.18805 7.95592C9.18333 7.9833 9.17795 8.01453 9.17012 8.0528M13.6375 7.45026L13.6523 7.46236L13.6536 7.46581M13.6375 7.45026L13.6302 7.46626L13.6302 7.46754C13.6302 7.46716 13.6302 7.46678 13.6302 7.4664C13.6302 7.4664 13.6302 7.46639 13.6302 7.46639C13.6302 7.46616 13.6302 7.46593 13.6302 7.46571C13.6306 7.46059 13.6325 7.45568 13.6357 7.45165L13.6534 7.46581L13.6537 7.46607M12.8826 7.65616C12.788 7.74742 12.6823 7.8303 12.5686 7.91519C12.3186 8.10184 12.0695 8.26818 11.7992 8.37478L11.7991 8.37481C11.6227 8.44443 11.4338 8.48981 11.2348 8.52954L11.2347 8.52955C10.984 8.57964 10.7423 8.61556 10.5051 8.60639C10.2705 8.59731 10.0451 8.54219 9.86164 8.42761M12.8826 7.65616L13.0126 7.79089L12.8826 7.6562C12.8826 7.65619 12.8826 7.65617 12.8826 7.65616ZM9.86164 8.42761L9.58115 8.22415L9.58119 8.2241L9.57736 8.22147C9.47098 8.14825 9.33296 8.07127 9.17084 8.05288L9.14972 8.23919L9.17112 8.05292C9.17079 8.05288 9.17045 8.05284 9.17012 8.0528M9.86164 8.42761C9.86003 8.4266 9.85843 8.4256 9.85683 8.42458L9.75657 8.58303L9.86666 8.43125L9.86164 8.42761ZM9.17012 8.0528C9.17008 8.053 9.17004 8.05321 9.17 8.05341L9.16987 8.05402L9.16987 8.05402C9.16178 8.09288 9.16016 8.10156 9.16016 8.10897H9.12479H9.12478H9.09727H9.09367H9.09339H8.97266M9.17012 8.0528C9.16772 8.05253 9.16545 8.05227 9.1633 8.05204C9.16116 8.0518 9.15915 8.05159 9.15724 8.05139C9.14176 8.04977 9.13353 8.04923 9.12787 8.04886C9.12099 8.0484 9.11791 8.0482 9.11021 8.04661C9.10966 8.04649 9.1094 8.04642 9.1094 8.04642C9.1094 8.04641 9.10968 8.04649 9.1102 8.04666C9.11107 8.04695 9.11261 8.04751 9.11468 8.04849C9.11942 8.05072 9.12848 8.05582 9.13814 8.0658C9.13814 8.06581 9.13815 8.06582 9.13816 8.06582C9.13816 8.06582 9.13816 8.06583 9.13816 8.06583C9.13822 8.06589 9.13828 8.06595 9.13834 8.06601C9.14973 8.07789 9.15536 8.08975 9.1581 8.09828C9.15988 8.10381 9.16013 8.10733 9.16015 8.10801L9.12724 8.10818H9.12724L9.0974 8.10833L9.09431 8.10835L9.09403 8.10835L8.97266 8.10897M8.97266 8.10897C8.97274 8.12471 8.97474 8.14054 8.97956 8.15556L9.03901 7.76939C9.02044 7.82471 9.01039 7.88228 9.00033 7.93987C8.9959 7.96523 8.99147 7.9906 8.98631 8.01578C8.9857 8.01872 8.98508 8.02166 8.98446 8.02461C8.97857 8.05254 8.97266 8.08062 8.97266 8.10897ZM13.6536 7.46581L13.6537 7.46607M13.6536 7.46581L13.6537 7.46607M13.6536 7.46581L13.6523 7.46236L13.6565 7.46582L13.6584 7.46738L13.7822 7.56871L13.6554 7.4674L13.6537 7.46607M13.6537 7.46607L13.6543 7.46741L13.6537 7.46607ZM12.3753 6.99098C12.6647 7.13471 12.9702 7.2469 13.285 7.3229L12.3753 6.99098ZM13.6302 7.46571L13.6302 7.46588L13.6302 7.46571Z" fill="white" stroke="#01ACFD" stroke-width="0.375"/>
<path d="M16.9618 13.007C17.4507 13.4003 17.7608 13.994 17.8568 14.614C17.9316 15.0976 17.8829 15.5937 17.774 16.0706C17.6651 16.5476 17.4967 17.0086 17.3296 17.4685C17.2629 17.6519 17.1961 17.837 17.1696 18.0302C17.1431 18.2235 17.1599 18.4282 17.2531 18.5997C17.36 18.7962 17.5594 18.9315 17.7738 18.9952C17.9855 19.0581 18.2141 19.0567 18.4284 19.0034C18.6428 18.95 18.8427 18.8457 19.0171 18.7101C19.4602 18.3661 19.7276 17.8305 19.8311 17.2792C19.9345 16.7279 19.887 16.1585 19.7909 15.6058C19.6597 14.8523 19.4389 14.1156 19.1579 13.404C18.9512 12.8806 18.7093 12.366 18.3714 11.9162C18.0406 11.4759 17.6237 11.1053 17.2997 10.6601C17.0745 10.3508 16.8942 10.0054 16.6244 9.73416C16.4894 9.59856 16.332 9.48255 16.1536 9.41322C15.9753 9.34389 15.775 9.32357 15.5909 9.37546C15.3483 9.44375 15.149 9.63495 15.0444 9.86407C14.9397 10.0932 14.9204 10.356 14.9615 10.6048C15.0145 10.9257 15.1612 11.2236 15.3267 11.5037C15.5136 11.82 15.7301 12.1245 16.0124 12.3596C16.307 12.605 16.6633 12.7669 16.962 13.0071L16.9618 13.007Z" fill="#01ACFD"/>
<path d="M21.6756 21.5022C21.6916 21.4212 21.6778 21.3332 21.6372 21.2611L21.6372 21.2611C21.6054 21.2044 21.5546 21.1509 21.488 21.0982C21.4388 21.0593 21.3894 21.0264 21.3333 20.9891C21.309 20.9729 21.2834 20.9559 21.2561 20.9372M21.6756 21.5022L19.824 18.6676C19.8689 18.7814 19.8943 18.906 19.9054 19.0364L19.9054 19.0364C19.9079 19.066 19.9097 19.1007 19.9118 19.1384C19.9167 19.2306 19.9226 19.3409 19.9413 19.4384L19.9413 19.4384C19.9889 19.686 20.1169 19.903 20.265 20.0803C20.4106 20.2546 20.5834 20.4007 20.7403 20.5334L20.7454 20.5377L20.7459 20.5381C20.9059 20.6725 21.074 20.8129 21.2561 20.9372M21.6756 21.5022C21.6296 21.616 21.5653 21.7226 21.486 21.8166L21.486 21.8167C21.3019 22.0352 21.0404 22.1859 20.7492 22.3344M21.6756 21.5022L20.7492 22.3344M21.2561 20.9372L21.3619 20.7824L21.2562 20.9372C21.2561 20.9372 21.2561 20.9372 21.2561 20.9372ZM20.7492 22.3344C20.6199 22.4003 20.4868 22.4652 20.3521 22.5309C19.9836 22.7106 19.6026 22.8965 19.2522 23.125M20.7492 22.3344L15.8159 24.6563C16.1506 24.8021 16.5157 24.8686 16.8619 24.8166C17.1465 24.7739 17.4213 24.6508 17.6628 24.4765M19.2522 23.125C19.2522 23.125 19.2522 23.125 19.2522 23.125L19.3546 23.282L19.2522 23.125ZM19.2522 23.125C18.9272 23.337 18.6291 23.5846 18.3526 23.8488L18.3526 23.8488C18.2943 23.9045 18.2384 23.9595 18.1835 24.0134C18.0106 24.1832 17.8491 24.3419 17.6628 24.4765M17.6628 24.4765C17.6629 24.4765 17.6629 24.4764 17.6629 24.4764L17.7727 24.6285L17.6628 24.4765ZM15.2815 22.1112L15.2815 22.1113C15.2777 22.1324 15.274 22.1535 15.2702 22.1745C15.1881 22.6364 15.1088 23.0824 15.1094 23.5302L15.2815 22.1112ZM15.2815 22.1112C15.3522 21.7114 15.4207 21.3057 15.4648 20.8956L15.2815 22.1112ZM19.7137 18.4837L19.7136 18.4836C19.6556 18.4245 19.5695 18.3812 19.4599 18.3466L19.7137 18.4837ZM19.7137 18.4837C19.7576 18.5282 19.7934 18.5902 19.824 18.6676L19.7137 18.4837ZM15.7926 18.0444C15.7037 18.0493 15.6329 18.0743 15.5881 18.1129L15.7926 18.0444ZM15.7926 18.0444C15.8806 18.0396 15.9703 18.0527 16.0828 18.0691M15.7926 18.0444L16.0828 18.0691M16.0828 18.0691C16.0871 18.0698 16.0914 18.0704 16.0958 18.071L16.0828 18.0691ZM15.2605 24.2287C15.1431 24.0399 15.1098 23.7967 15.1094 23.5302L15.8158 24.6563C15.5793 24.5532 15.3768 24.4158 15.2605 24.2287L15.2605 24.2287ZM17.1153 18.2778C17.1923 18.302 17.2736 18.3276 17.3563 18.3499L16.0958 18.071C16.1462 18.0784 16.1958 18.0854 16.2448 18.0923C16.4627 18.1229 16.6682 18.1517 16.8697 18.2048L16.8697 18.2048C16.9469 18.2251 17.0238 18.2491 17.1052 18.2746L17.1153 18.2778ZM18.7354 18.3418C18.8825 18.3103 19.0141 18.2879 19.1432 18.291L17.3564 18.3499C17.6462 18.4282 17.957 18.4678 18.2678 18.4316L18.2678 18.4316C18.3977 18.4164 18.528 18.3875 18.6468 18.3612C18.6771 18.3545 18.7067 18.3479 18.7354 18.3418ZM15.4648 20.8956C15.5452 20.149 15.5445 19.3968 15.4912 18.6524C15.4905 18.6422 15.4898 18.6321 15.4892 18.6222C15.4814 18.5055 15.4753 18.4131 15.4889 18.3234C15.5033 18.2283 15.5397 18.1546 15.5881 18.1129L15.4648 20.8956ZM19.1432 18.291C19.2478 18.2935 19.3542 18.3134 19.4598 18.3466L19.1432 18.291Z" fill="white" stroke="#01ACFD" stroke-width="0.375"/>
<path d="M19.4587 17.8174C19.4262 17.7287 19.3689 17.6502 19.2989 17.5869C19.2288 17.5235 19.1462 17.475 19.0592 17.4381C18.8853 17.3642 18.6961 17.3368 18.5104 17.3018L17.9859 17.1992C17.8036 17.1682 17.6149 17.1485 17.4344 17.1892C17.2765 17.2248 17.1304 17.3065 17.0109 17.4157C16.8914 17.525 16.798 17.6612 16.7309 17.8094C16.6127 18.0689 16.5755 18.3609 16.5981 18.6451C16.6149 18.8566 16.6683 19.0746 16.8077 19.2348C16.9202 19.3641 17.0798 19.4449 17.2443 19.4935C17.5275 19.5772 17.8361 19.5728 18.1167 19.481C18.5834 19.3233 18.987 19.0197 19.2679 18.6151C19.3595 18.4825 19.4376 18.3381 19.473 18.181C19.5 18.0605 19.501 17.9336 19.4587 17.8183V17.8174Z" fill="#01ACFD"/>
<path d="M8.39815 9.71143L7.03871 11.4134C6.75489 11.7653 6.46432 12.1199 6.27954 12.5325C6.1208 12.887 6.04577 13.2721 5.93691 13.6451C5.81336 14.0687 5.64562 14.4782 5.45731 14.8772C5.28338 15.2455 5.09178 15.6052 4.89978 15.9646C4.76016 16.226 4.61821 16.4932 4.56976 16.7856C4.53152 17.0167 4.5537 17.2551 4.61266 17.4818C4.67163 17.7085 4.7653 17.9244 4.87279 18.133C5.32805 19.0227 6.01114 19.7897 6.82028 20.3764C7.18741 20.6426 7.58082 20.8728 7.99334 21.0613C8.21683 21.1633 8.45238 21.2544 8.69804 21.2587C8.82096 21.2608 8.945 21.2406 9.05747 21.1912C9.16994 21.1418 9.27035 21.0623 9.33727 20.9593C9.41946 20.8325 9.44733 20.6751 9.43086 20.5249C9.4144 20.3748 9.35575 20.2314 9.27718 20.1023C9.08438 19.7872 8.78191 19.5593 8.49022 19.3333C7.86039 18.8453 7.25104 18.3307 6.66805 17.7876C6.50336 17.6342 6.33883 17.4761 6.22379 17.2828C6.1118 17.0945 6.05123 16.88 6.01026 16.6648C5.89779 16.0743 5.92671 15.4531 6.12755 14.8867C6.20612 14.6652 6.30991 14.4535 6.41017 14.2408C6.58369 13.8721 6.74814 13.4964 6.97653 13.1589C7.26076 12.7388 7.64067 12.3829 7.87228 11.9316C8.06781 11.5508 8.14702 11.1224 8.2227 10.701L8.39815 9.71143Z" fill="#01ACFD"/>
<path d="M6.46543 18.205C6.84076 18.7219 7.20211 19.2495 7.52947 19.7981C7.5974 19.9118 7.66392 20.0266 7.73044 20.1413C7.92402 20.4752 8.11761 20.8092 8.346 21.1198L6.46543 18.205ZM6.46543 18.205L6.31371 18.3152C6.31371 18.3152 6.31372 18.3152 6.31372 18.3152L6.46543 18.205ZM5.11065 17.4715L5.11059 17.4716L5.11057 17.4716C5.1106 17.4716 5.11063 17.4716 5.11065 17.4715ZM5.11065 17.4715L5.11057 17.4714C5.11055 17.4714 5.11052 17.4714 5.11049 17.4714L5.11065 17.4715ZM1.92439 23.1127L2.08606 23.0177C2.08606 23.0177 2.08605 23.0177 2.08604 23.0177L1.92439 23.1127ZM7.80982 24.8048C7.80981 24.8048 7.8098 24.8048 7.80979 24.8048L7.80278 24.9922L7.80982 24.8048ZM9.26197 22.8595C9.26198 22.8595 9.26198 22.8595 9.26198 22.8595L9.44283 22.81L9.26197 22.8595Z" fill="white" stroke="#01ACFD" stroke-width="0.375"/>
</svg>
