<svg width="241" height="60" viewBox="0 0 241 60" fill="none" xmlns="http://www.w3.org/2000/svg">
<path d="M87.9183 50.7044C92.4687 49.8744 95.336 47.3554 96.5127 43.5923L96.9718 48.299L100.921 47.5788L100.85 30.6478L87.5847 33.0671L87.5871 37.4579L95.8293 35.9546L95.8299 36.9303C95.8394 39.9005 94.4447 44.9009 88.2631 46.0284C83.8844 46.8269 80.6792 45.0606 79.4813 38.4927C78.3225 32.1393 79.5005 23.7629 87.1418 22.3693C91.0053 21.6647 93.7966 23.1072 94.9892 26.9704L100.398 25.0082C98.5952 19.2602 93.598 16.6674 86.6865 17.928C74.6237 20.128 72.1006 31.1006 73.6508 39.6004C75.3655 49.0017 81.4791 51.8787 87.9183 50.7044ZM109.938 13.7761L104.786 14.7156L104.925 46.8485L110.119 45.9012L109.938 13.7761ZM114.615 19.2216L120.196 18.2038L120.161 12.6655L114.624 13.6755L114.615 19.2216ZM114.972 45.016L120.124 44.0765L120.073 21.9077L114.921 22.8472L114.972 45.016ZM132.593 42.3347C135.555 41.7944 137.892 39.7714 138.831 36.8944L138.852 40.6608L143.746 39.7682L143.565 7.64307L138.413 8.58259L138.468 22.0126C136.811 19.2541 133.899 18.8537 131.324 19.3235C123.811 20.6937 122.286 28.8673 123.343 34.6625C124.588 41.4881 129.073 42.9767 132.593 42.3347ZM134.019 37.9937C132.13 38.3383 129.577 37.9611 128.724 33.2819C128.09 29.8047 128.352 23.9462 133.031 23.0928C135.736 22.5996 138.648 23.9757 138.632 29.4789L138.64 30.9854C138.638 34.1351 137.453 37.3675 134.019 37.9937ZM151.92 28.519L167.031 25.763C167.261 24.3461 167.166 22.8553 166.931 21.5674C165.835 15.5575 161.182 13.8779 156.245 14.7782C147.96 16.2893 145.907 23.7607 146.995 29.7277C148.381 37.326 154.166 38.4001 158.674 37.578C163.31 36.7324 166.017 34.0652 166.983 30.1188L162.825 28.9696C162.156 31.6201 160.814 33.0181 158.238 33.488C155.276 34.0282 152.676 32.9055 151.928 28.562L151.92 28.519ZM156.692 18.2008C159.139 17.7546 161.376 18.5886 161.932 21.6365C162.041 22.2375 162.057 22.8112 162.034 23.1704L151.559 25.0806C151.679 21.5992 153.301 18.8194 156.692 18.2008Z" fill="white"/>
</svg>
